<?xml version="1.0" encoding="utf-8"?>
<!-- Generator: Adobe Illustrator 16.0.0, SVG Export Plug-In . SVG Version: 6.00 Build 0)  -->
<!DOCTYPE svg PUBLIC "-//W3C//DTD SVG 1.1//EN" "http://www.w3.org/Graphics/SVG/1.1/DTD/svg11.dtd">
<svg version="1.1" id="Capa_1" xmlns="http://www.w3.org/2000/svg" xmlns:xlink="http://www.w3.org/1999/xlink" x="0px" y="0px"
	 width="82.206px" height="78.794px" viewBox="0 0 82.206 78.794" enable-background="new 0 0 82.206 78.794" xml:space="preserve">
<g>
	<path fill="#EBC333" d="M39.396,78.794C17.674,78.794,0,61.116,0,39.396S17.674,0,39.396,0c6.945,0,13.771,1.829,19.738,5.294
		c2.354,1.369,3.156,4.384,1.791,6.74c-1.367,2.352-4.389,3.15-6.738,1.787c-4.467-2.59-9.582-3.964-14.791-3.964
		c-16.287,0-29.538,13.254-29.538,29.538c0,16.288,13.251,29.541,29.538,29.541s29.539-13.253,29.539-29.541
		c0-2.72,2.208-4.93,4.93-4.93c2.721,0,4.928,2.21,4.928,4.93C78.793,61.116,61.121,78.794,39.396,78.794z"/>
	<path fill="#EBC333" d="M38.236,57.742L22.254,40.597c-1.855-1.991-1.748-5.11,0.246-6.966c1.992-1.856,5.113-1.747,6.967,0.245
		l9.043,9.698L73.805,8.485c1.927-1.918,5.047-1.91,6.97,0.021c1.917,1.932,1.907,5.053-0.022,6.972L38.236,57.742z"/>
</g>
</svg>
