<?xml version="1.0" encoding="utf-8"?>
<!-- Generator: Adobe Illustrator 16.0.0, SVG Export Plug-In . SVG Version: 6.00 Build 0)  -->
<!DOCTYPE svg PUBLIC "-//W3C//DTD SVG 1.1//EN" "http://www.w3.org/Graphics/SVG/1.1/DTD/svg11.dtd">
<svg version="1.1" id="Capa_1" xmlns="http://www.w3.org/2000/svg"
	xmlns:xlink="http://www.w3.org/1999/xlink" x="0px" y="0px"
	width="24px" height="24px" viewBox="0 0 47.426 47.426"
	enable-background="new 0 0 47.426 47.426" xml:space="preserve">
	<g id="XMLID_2_">
		<path id="XMLID_9_" fill="#427FBE" d="M38.957,47.426H8.469C3.791,47.426,0,43.635,0,38.957V8.469C0,3.791,3.791,0,8.469,0h30.488
			c4.678,0,8.469,3.791,8.469,8.469v30.488C47.426,43.635,43.635,47.426,38.957,47.426z"/>
		<g id="XMLID_3_">
			<g id="XMLID_5_">
				<rect id="XMLID_7_" x="12.96" y="18.428" fill="#FFFFFF" width="4.907" height="15.854"/>
				<ellipse id="XMLID_6_" fill="#FFFFFF" cx="15.391" cy="13.426" rx="2.902" ry="2.926"/>
			</g>
			<path id="XMLID_4_" fill="#FFFFFF" d="M25.713,25.959c0-2.229,1.025-3.557,2.99-3.557c1.805,0,2.672,1.275,2.672,3.557
				c0,2.283,0,8.322,0,8.322h4.885c0,0,0-5.791,0-10.039c0-4.246-2.407-6.299-5.769-6.299c-3.363,0-4.778,2.619-4.778,2.619v-2.135
				h-4.707v15.854h4.707C25.713,34.281,25.713,28.402,25.713,25.959z"/>
		</g>
	</g>
</svg>