<?xml version="1.0" encoding="utf-8"?>
<!DOCTYPE svg PUBLIC "-//W3C//DTD SVG 1.1//EN" "http://www.w3.org/Graphics/SVG/1.1/DTD/svg11.dtd">
<svg version="1.1" id="Capa_1" xmlns="http://www.w3.org/2000/svg"
	xmlns:xlink="http://www.w3.org/1999/xlink" x="0px" y="0px"
	width="25.9px" height="25.89px" viewBox="0 0 51.8 51.779"
	enable-background="new 0 0 51.8 51.779" xml:space="preserve">
<g>
	<path fill-rule="evenodd" clip-rule="evenodd" fill="#427FBE" d="M30.547,38.225c-1.689,0.936-3.4,1.633-5.211,2.07
		c-2.372,0.571-4.768,0.758-7.195,0.451c-6.563-0.828-11.603-4.064-15.136-9.633c-1.567-2.469-2.497-5.186-2.842-8.094
		c-0.65-5.508,0.641-10.518,3.999-14.934C7.346,3.898,11.56,1.293,16.747,0.34c10.012-1.836,19.8,3.925,23.063,13.549
		c0.84,2.479,1.19,5.033,1.047,7.641c-0.166,3.064-0.968,5.965-2.454,8.659c-0.144,0.259-0.109,0.397,0.09,0.596
		c3.801,3.79,7.591,7.591,11.396,11.378c0.894,0.889,1.545,1.893,1.805,3.143c0.634,3.041-1.64,6.129-4.738,6.441
		c-1.783,0.179-3.296-0.371-4.555-1.627c-3.912-3.903-7.817-7.811-11.725-11.719C30.631,38.355,30.6,38.296,30.547,38.225z
		 M20.462,5.451C12.203,5.464,5.501,12.061,5.451,20.337C5.4,28.672,12.04,35.416,20.408,35.428
		c8.396,0.01,14.967-6.699,15.016-14.918C35.475,12.209,28.723,5.451,20.462,5.451z"/>
	<path fill-rule="evenodd" clip-rule="evenodd" fill="#427FBE" d="M20.523,9.521c1.389-0.086,2.483,1.199,2.631,2.455
		c0.168,1.435-0.968,2.905-2.41,2.985c-1.095,0.062-2.155,0.207-3.105,0.81c-1.626,1.031-2.541,2.487-2.621,4.424
		c-0.04,0.9-0.262,1.709-0.972,2.307c-0.855,0.722-1.838,0.873-2.857,0.441c-1.075-0.455-1.651-1.324-1.657-2.489
		c-0.018-4.307,2.518-8.212,6.466-9.978C17.339,9.877,18.744,9.578,20.523,9.521z"/>
</g>
</svg>