<?xml version="1.0" encoding="utf-8"?>
<!-- Generator: Adobe Illustrator 16.0.0, SVG Export Plug-In . SVG Version: 6.00 Build 0)  -->
<!DOCTYPE svg PUBLIC "-//W3C//DTD SVG 1.1//EN" "http://www.w3.org/Graphics/SVG/1.1/DTD/svg11.dtd">
<svg version="1.1" id="Capa_1" xmlns="http://www.w3.org/2000/svg" xmlns:xlink="http://www.w3.org/1999/xlink" x="0px" y="0px"
	 width="55.279px" height="55.292px" viewBox="0 0 55.279 55.292" enable-background="new 0 0 55.279 55.292" xml:space="preserve">
<g>
	<g>
		<defs>
			<rect id="SVGID_71_" x="-1289.57" y="161.337" width="43.111" height="42.004"/>
		</defs>
		<clipPath id="SVGID_2_">
			<use xlink:href="#SVGID_71_"  overflow="visible"/>
		</clipPath>
		<g clip-path="url(#SVGID_2_)">
			<rect x="-1484.121" y="-769.414" fill="none" width="2122.375" height="2356.721"/>
		</g>
	</g>
</g>
<g>
	<g>
		<defs>
			<rect id="SVGID_83_" x="-806.51" y="159.125" width="45.322" height="46.428"/>
		</defs>
		<clipPath id="SVGID_3_">
			<use xlink:href="#SVGID_83_"  overflow="visible"/>
		</clipPath>
		<g clip-path="url(#SVGID_3_)">
			<rect x="-1484.121" y="-769.414" fill="none" width="2122.375" height="2356.721"/>
		</g>
	</g>
</g>
<g>
	<g>
		<defs>
			<rect id="SVGID_95_" x="-383.141" y="161.337" width="44.217" height="42.004"/>
		</defs>
		<clipPath id="SVGID_4_">
			<use xlink:href="#SVGID_95_"  overflow="visible"/>
		</clipPath>
		<g clip-path="url(#SVGID_4_)">
			<rect x="-1484.121" y="-769.414" fill="none" width="2122.375" height="2356.721"/>
		</g>
	</g>
</g>
<g>
	<g>
		<defs>
			<rect id="SVGID_107_" x="137.506" y="160.232" width="44.217" height="44.215"/>
		</defs>
		<clipPath id="SVGID_5_">
			<use xlink:href="#SVGID_107_"  overflow="visible"/>
		</clipPath>
		<g clip-path="url(#SVGID_5_)">
			<rect x="-1484.121" y="-769.414" fill="none" width="2122.375" height="2356.721"/>
		</g>
	</g>
</g>
<g>
	<g>
		<defs>
			<rect id="SVGID_119_" x="-1238.721" y="283.456" width="49.742" height="39.794"/>
		</defs>
		<clipPath id="SVGID_6_">
			<use xlink:href="#SVGID_119_"  overflow="visible"/>
		</clipPath>
		<g clip-path="url(#SVGID_6_)">
			<rect x="-1484.121" y="-753.414" fill="none" width="2122.375" height="2356.721"/>
		</g>
	</g>
</g>
<g>
	<g>
		<defs>
			<rect id="SVGID_131_" x="-771.137" y="281.245" width="49.744" height="48.638"/>
		</defs>
		<clipPath id="SVGID_7_">
			<use xlink:href="#SVGID_131_"  overflow="visible"/>
		</clipPath>
		<g clip-path="url(#SVGID_7_)">
			<rect x="-1484.121" y="-753.414" fill="none" width="2122.375" height="2356.721"/>
		</g>
	</g>
</g>
<g>
	<g>
		<defs>
			<rect id="SVGID_143_" x="157.402" y="279.034" width="48.639" height="48.638"/>
		</defs>
		<clipPath id="SVGID_8_">
			<use xlink:href="#SVGID_143_"  overflow="visible"/>
		</clipPath>
		<g clip-path="url(#SVGID_8_)">
			<rect x="-1484.121" y="-753.414" fill="none" width="2122.375" height="2356.721"/>
		</g>
	</g>
</g>
<g>
	<path fill-rule="evenodd" clip-rule="evenodd" fill="#666363" d="M25.033,30.04c-0.078,0.053-0.156,0.105-0.234,0.159
		c-0.256-0.303-0.496-0.622-0.775-0.902c-2.73-2.738-5.471-5.469-8.203-8.205c-0.674-0.673-1.451-1.047-2.416-0.854
		c-0.979,0.196-1.699,0.768-1.994,1.721c-0.33,1.074-0.045,2.021,0.777,2.838c4.42,4.396,8.822,8.812,13.234,13.213
		c1.57,1.565,2.867,1.555,4.455-0.027c2.863-2.852,5.719-5.711,8.576-8.567c1.572-1.57,3.156-3.13,4.711-4.718
		c1.09-1.113,1.109-2.676,0.09-3.719c-1.063-1.089-2.596-1.077-3.766,0.085c-2.789,2.762-5.557,5.547-8.336,8.32
		c-0.254,0.254-0.521,0.495-0.914,0.867c0-0.496,0-0.805,0-1.112c0-8.603,0-17.205,0-25.808c0-0.317,0.01-0.637-0.02-0.951
		c-0.145-1.587-1.551-2.631-3.117-2.325c-1.279,0.251-2.064,1.289-2.066,2.798c-0.006,6.467-0.002,12.933-0.002,19.398
		C25.033,24.845,25.033,27.442,25.033,30.04z M27.598,55.292c8.084,0,16.168,0.002,24.252-0.006c0.516,0,1.047-0.024,1.545-0.141
		c1.123-0.258,1.896-1.325,1.885-2.495c-0.014-1.118-0.791-2.201-1.848-2.448c-0.498-0.115-1.031-0.104-1.551-0.104
		c-16.166-0.005-32.334-0.004-48.502-0.003c-0.346,0-0.693,0.003-1.037,0.033c-1.287,0.104-2.217,1.049-2.332,2.36
		c-0.111,1.256,0.717,2.416,1.963,2.676c0.477,0.099,0.973,0.121,1.461,0.122C11.488,55.294,19.543,55.292,27.598,55.292z"/>
	<path fill-rule="evenodd" clip-rule="evenodd" fill="#666363" d="M25.033,30.04c0-2.598,0-5.194,0-7.79
		c0-6.466-0.004-12.932,0.002-19.398c0.002-1.509,0.787-2.547,2.066-2.798c1.566-0.306,2.973,0.738,3.117,2.325
		c0.029,0.314,0.02,0.634,0.02,0.951c0,8.603,0,17.205,0,25.808c0,0.308,0,0.616,0,1.112c0.393-0.372,0.66-0.613,0.914-0.867
		c2.779-2.773,5.547-5.559,8.336-8.32c1.17-1.162,2.703-1.174,3.766-0.085c1.02,1.043,1,2.605-0.09,3.719
		c-1.555,1.588-3.139,3.147-4.711,4.718c-2.857,2.856-5.713,5.716-8.576,8.567c-1.588,1.582-2.885,1.593-4.455,0.027
		c-4.412-4.401-8.814-8.817-13.234-13.213c-0.822-0.816-1.107-1.764-0.777-2.838c0.295-0.953,1.016-1.524,1.994-1.721
		c0.965-0.192,1.742,0.182,2.416,0.854c2.732,2.736,5.473,5.467,8.203,8.205c0.279,0.28,0.52,0.6,0.775,0.902
		C24.877,30.145,24.955,30.092,25.033,30.04z"/>
</g>
</svg>
