<?xml version="1.0" encoding="UTF-8"?>
<!DOCTYPE svg PUBLIC "-//W3C//DTD SVG 1.1//EN" "http://www.w3.org/Graphics/SVG/1.1/DTD/svg11.dtd">
<!-- Creator: CorelDRAW 2019 (64-Bit) -->
<svg xmlns="http://www.w3.org/2000/svg" xml:space="preserve" width="223.155mm" height="202.319mm" version="1.1" style="shape-rendering:geometricPrecision; text-rendering:geometricPrecision; image-rendering:optimizeQuality; fill-rule:evenodd; clip-rule:evenodd"
viewBox="0 0 18205.12 16505.24"
 xmlns:xlink="http://www.w3.org/1999/xlink">
 <defs>
  <style type="text/css">
   <![CDATA[
    .str0 {stroke:#373435;stroke-width:230.24;stroke-miterlimit:22.9256}
    .str1 {stroke:#373435;stroke-width:345.35;stroke-miterlimit:22.9256}
    .fil0 {fill:#364958}
    .fil3 {fill:#E7ECF0}
    .fil4 {fill:#FF6800}
    .fil5 {fill:#373435;fill-rule:nonzero}
    .fil1 {fill:#07659B;fill-rule:nonzero}
    .fil2 {fill:#C7D0D7;fill-rule:nonzero}
   ]]>
  </style>
 </defs>
 <g id="Layer_x0020_1">
  <metadata id="CorelCorpID_0Corel-Layer"/>
  <g id="_2127177488464">
   <path class="fil0 str0" d="M14489.55 5094.9c285.82,0.01 449.13,-26.91 700.9,69.38 20.05,26.55 2.24,8.21 33.09,38.22 46.83,45.58 1.29,3.92 34.52,28.15 29.84,59.02 49.97,134.06 63.25,218.69 5.84,-0.51 13.44,3.28 23.26,14.93 9.85,400.89 3.74,806.98 4.93,1208.86 0.98,331.4 57.47,900.47 -73.71,1159.89 -33.24,24.23 12.3,-17.43 -34.52,28.15 -30.85,30.01 -13.04,11.67 -33.09,38.22 -251.77,96.28 -415.08,69.37 -700.9,69.38 -243.04,0.02 -515.78,15.84 -754.25,1.09 -79.18,252.03 -410.96,1014.22 -411.74,1038.89 47.26,28.75 41.9,34.26 92,63.94 94.25,90.09 207.83,252.68 318.73,302.19l379.09 372.95c56.68,60.84 135.51,130.76 188.85,199.44 71.92,92.6 64,187.83 30.06,311.12l-8.61 25.89 -328.46 406.66c-132.85,139.36 -223.51,239.77 -347.21,363.81 -227.2,227.82 -492.88,458.55 -764.88,681.35 -489.27,400.78 -497.14,318.7 -868.7,-83.11l-654.66 -785.18c-87.36,12.34 -347.71,131.4 -453.18,169.17 -148.8,53.27 -318.31,84.97 -460.18,144.74l-6.87 1405.56c-76.11,335.47 -345.45,304.65 -733.18,338.02 -350.79,30.19 -712.95,26.6 -1066.69,13.84 -911.63,-32.9 -1001.47,-10.99 -928.62,-1212.16l-1.73 -542.6c-51.98,-30.89 -587.97,-187.22 -879.45,-335.86 -102.87,118.23 -208.22,249.97 -313.8,370.34 -112.61,128.37 -206.51,262.25 -310.82,380.15 -420.85,475.69 -436.59,498.63 -822.49,208.6 -614.19,-461.62 -639.38,-572.8 -1082.27,-988.7l-263.68 -291.57c-1.47,4.15 -4.07,8.77 -8.01,14.15 -46.84,-23.12 -176.62,-189.88 -202.62,-260.54 -31.17,-84.73 -21.75,-158.59 3.7,-223.07 9.73,-52.61 36.45,-100.94 82.4,-147.76l66.38 -66.27c9.67,-12.21 14.95,-17.96 32.62,-34.94 18.79,-18.05 33.94,-32.33 47.74,-45.29l382.18 -381.54c97.77,-92.09 188.6,-168.91 274.17,-264.47 50.19,-12.62 68.05,-26.95 122.74,-100.69 -28.17,-61.5 -62.74,-111.3 -94.25,-170.9 -17.51,-33.12 -30.1,-62.31 -48.56,-101.23l-61.7 -93.64c-81.21,-234.86 -178.4,-391.57 -240.54,-661.56 -1402.38,-57.18 -1550.31,231.81 -1555.65,-670.9 -2.18,-366.92 -2.53,-733.85 -2.83,-1100.82 -0.24,-299.84 -51.97,-788.52 87.22,-1001.82l8.65 -6.59c135.3,-223.67 503.48,-95.54 1480.34,-135.37 62.14,-269.99 159.33,-426.7 240.54,-661.56l61.7 -93.64c18.46,-38.91 31.05,-68.1 48.56,-101.23 26.4,-49.94 54.96,-93 80.1,-141.84 -72.19,-99.37 -87.85,-115.63 -144.04,-129.76 -85.57,-95.56 -176.4,-172.38 -274.17,-264.47l-528.93 -528.04c-89.22,-90.9 -105.91,-187.48 -66.68,-310.02 3.12,-19.62 8.34,-39.88 16.04,-60.81 12.72,-34.56 50.25,-92.1 90.77,-144.58l14.42 -24.41 333.66 -368.96c442.89,-415.9 468.08,-527.08 1082.27,-988.7 385.89,-290.03 401.64,-267.09 822.49,208.6 104.31,117.9 198.22,251.78 310.82,380.15 105.58,120.37 210.93,252.11 313.8,370.34 291.49,-148.64 827.47,-304.97 879.45,-335.86l1.73 -542.6c-72.84,-1201.17 16.99,-1179.25 928.62,-1212.16 353.74,-12.77 715.9,-16.36 1066.69,13.84 387.73,33.37 657.07,2.55 733.18,338.02l6.87 1405.56c141.87,59.77 311.38,91.47 460.18,144.74 105.47,37.76 365.82,156.82 453.18,169.17l654.66 -785.18c371.57,-401.82 379.43,-483.89 868.7,-83.11 272.01,222.8 537.68,453.53 764.88,681.35 123.7,124.03 214.37,224.45 347.21,363.81l328.46 406.66 8.61 25.89c33.94,123.29 41.86,218.52 -30.06,311.12 -53.34,68.68 -132.17,138.6 -188.85,199.44l-379.09 372.95c-110.89,49.51 -224.48,212.1 -318.73,302.19 -50.1,29.68 -44.74,35.19 -92,63.94 0.78,24.68 332.56,786.87 411.74,1038.89 238.48,-14.76 511.21,1.07 754.25,1.09z"/>
   <path class="fil1" d="M6118.28 3618.94c753.11,-756.01 1798.03,-1228.05 2956.17,-1236.87 1157.59,-8.81 2209.26,447.22 2973.71,1191.6 764.86,744.77 1242.3,1778.43 1251.02,2924.37 8.71,1145.36 -452.89,2185.83 -1206.25,2942.1 -753.1,756.01 -1798.01,1228.06 -2956.17,1236.87 -1157.59,8.81 -2209.24,-447.2 -2973.71,-1191.6 -764.86,-744.77 -1242.29,-1778.42 -1251.02,-2924.36 -8.71,-1145.36 452.89,-2185.84 1206.24,-2942.11z"/>
   <path class="fil1" d="M9075.35 2611.42c-1094.54,8.34 -2082.24,454.62 -2794.29,1169.42 -711.79,714.55 -1147.92,1697.46 -1139.69,2779.32 8.23,1081.29 459.25,2057.12 1181.77,2760.68 722.92,703.94 1717.61,1135.17 2812.72,1126.84 1094.55,-8.33 2082.24,-454.62 2794.28,-1169.42 711.79,-714.55 1147.93,-1697.45 1139.7,-2779.32 -8.22,-1081.29 -459.25,-2057.13 -1181.77,-2760.68 -722.91,-703.93 -1717.61,-1135.17 -2812.72,-1126.84z"/>
   <path class="fil2" d="M9072.3 2613.7c-1094.54,8.34 -2082.24,454.62 -2794.29,1169.42 -711.79,714.55 -1147.92,1697.46 -1139.69,2779.32 8.23,1081.29 459.25,2057.12 1181.77,2760.68 722.92,703.94 1717.61,1135.17 2812.72,1126.84 1094.55,-8.33 2082.24,-454.62 2794.28,-1169.42 711.79,-714.55 1147.93,-1697.45 1139.7,-2779.32 -8.22,-1081.29 -459.25,-2057.13 -1181.77,-2760.68 -722.91,-703.93 -1717.61,-1135.17 -2812.72,-1126.84zm-2957.07 1007.53c753.11,-756.01 1798.03,-1228.05 2956.17,-1236.87 1157.59,-8.81 2209.26,447.22 2973.71,1191.6 764.86,744.77 1242.3,1778.43 1251.02,2924.37 8.71,1145.36 -452.89,2185.83 -1206.25,2942.1 -753.1,756.01 -1798.01,1228.06 -2956.17,1236.87 -1157.59,8.81 -2209.24,-447.2 -2973.71,-1191.6 -764.86,-744.77 -1242.29,-1778.42 -1251.02,-2924.36 -8.71,-1145.36 452.89,-2185.84 1206.24,-2942.11z"/>
   <path class="fil3 str1" d="M9046.1 2929.46l2246.95 3327.63c178.48,342.33 268.03,721.24 260.99,1104.12 -24.07,1305.04 -1141.11,2342.77 -2495.02,2317.85 -1353.91,-24.93 -2431.97,-1103.13 -2407.95,-2408.17 7.41,-402.03 121.12,-795.52 330.36,-1143.14l2064.66 -3198.28z"/>
   <path class="fil4" d="M9042.93 4589.24l1246.71 2210.02c96.72,185.51 145.25,390.85 141.44,598.34 -13.04,707.23 -618.39,1269.6 -1352.1,1256.09 -733.71,-13.51 -1317.93,-597.81 -1304.91,-1305.03 4.01,-217.87 65.64,-431.11 179.03,-619.49l1089.83 -2139.92z"/>
  </g>
  <path class="fil5" d="M1659.62 16505.24c-241.98,0 -464.61,-43.14 -669.36,-129.44 -204.75,-86.29 -380.47,-214.82 -527.15,-385.61 -147.42,-169.88 -261.33,-382.91 -341.75,-638.18 -81.16,-255.27 -121.36,-550.09 -121.36,-884.46 0,-311 38.72,-593.24 115.41,-846.72 77.43,-253.47 189.85,-471 336.54,-651.66 141.47,-174.37 316.43,-309.2 524.91,-403.58 209.22,-95.28 437.06,-142.92 685,-142.92 136.25,0 259.84,8.99 370.04,27.87 109.45,17.97 211.46,42.24 304.52,71.91 97.53,34.16 185.39,71.01 265.06,112.36 79.66,41.34 148.91,79.09 208.47,115.05l0 950.98 -96.04 0c-40.95,-42.24 -92.32,-91.68 -154.12,-149.21 -61.8,-57.52 -131.79,-114.15 -210.71,-169.88 -79.66,-55.74 -166.77,-102.47 -259.85,-141.13 -93.07,-38.64 -192.84,-57.52 -298.56,-57.52 -118.39,0 -230.07,22.47 -336.54,67.41 -106.47,44.05 -204.76,118.65 -294.84,222.02 -85.63,100.67 -155.61,232.8 -208.48,397.29 -52.86,165.39 -79.67,365.83 -79.67,600.42 0,246.29 29.04,451.22 86.37,616.61 57.33,164.49 129.55,294.82 217.41,389.2 88.6,97.07 187.64,165.39 296.33,206.73 109.45,41.34 217.41,62.03 323.14,62.03 102,0 203.26,-17.98 303.03,-54.83 99.02,-35.96 191.36,-85.39 276.23,-148.31 70.73,-50.34 137,-103.37 198.05,-160.89 61.05,-57.52 111.68,-106.96 151.14,-148.31l87.11 0 0 936.6c-81.16,43.15 -159.33,84.49 -233.79,123.15 -73.72,38.64 -151.89,71.91 -233.79,99.77 -105.73,36.85 -205.5,64.71 -298.57,84.48 -93.07,18.88 -221.13,28.77 -384.19,28.77z"/>
  <path id="1" class="fil5" d="M5819.45 16424.34l-786.25 0 0 -327.18c-145.19,133.92 -277.72,234.6 -398.34,303.81 -119.87,69.21 -263.57,104.27 -430.35,104.27 -269.53,0 -478,-93.48 -623.19,-281.34 -145.94,-187.86 -218.9,-464.71 -218.9,-831.44l0 -1923.53 786.25 0 0 1465.12c0,149.21 3.72,273.25 11.91,372.12 8.19,99.77 26.81,181.57 55.84,246.28 27.55,64.72 69.25,112.36 125.1,142.02 55.83,29.65 134.01,44.93 234.53,44.93 66.27,0 140.73,-15.28 221.87,-44.93 81.16,-29.66 160.09,-73.71 235.29,-131.24l0 -2094.31 786.25 0 0 2955.41z"/>
  <path id="2" class="fil5" d="M8336.05 14374.97l-69.25 0c-33.5,-14.37 -87.11,-25.17 -161.56,-32.35 -73.71,-7.19 -135.51,-10.78 -184.65,-10.78 -111.68,0 -209.96,8.99 -295.59,26.06 -85.63,17.98 -177.95,47.64 -276.23,89.89l0 1976.56 -786.25 0 0 -2955.41 786.25 0 0 434.14c172.74,-178.87 322.4,-297.52 450.46,-356.84 127.31,-58.42 244.95,-88.08 352.17,-88.08 27.54,0 58.82,0.9 93.07,2.69 34.99,1.8 65.52,4.5 91.58,8.09l0 906.03z"/>
  <path id="3" class="fil5" d="M10909.23 15486.85c0,305.61 -113.17,551.89 -340.26,737.95 -226.34,186.96 -536.82,280.44 -930.69,280.44 -218.15,0 -416.21,-24.27 -593.41,-73.71 -177.2,-48.53 -319.42,-103.36 -427.38,-162.69l0 -777.5 72.22 0c38.72,33.26 84.13,69.21 135.51,108.76 52.12,39.55 125.09,81.79 218.9,127.63 81.9,39.55 173.48,74.61 276.97,103.37 102.74,28.76 213.68,43.14 331.32,43.14 153.38,0 267.3,-20.67 341.76,-62.02 73.71,-41.34 110.93,-102.47 110.93,-183.37 0,-71.91 -21.59,-124.03 -65.52,-156.4 -43.19,-32.35 -126.58,-62.91 -248.68,-93.47 -58.08,-15.28 -137,-32.36 -236.77,-51.24 -99.02,-17.97 -189.86,-40.45 -271.02,-66.51 -222.62,-70.11 -387.92,-179.77 -495.13,-328.08 -107.96,-148.31 -161.56,-332.58 -161.56,-553.69 0,-284.03 111.68,-520.43 335.04,-708.29 223.37,-188.75 528.63,-283.13 915.06,-283.13 183.16,0 358.88,22.47 527.15,67.41 168.27,44.94 299.31,92.59 393.87,143.82l0 748.74 -67.75 0c-116.15,-97.07 -248.68,-176.17 -397.6,-237.29 -148.91,-61.12 -300.05,-91.68 -452.69,-91.68 -126.57,0 -233.04,20.67 -319.41,62.91 -86.37,42.25 -129.55,102.47 -129.55,179.77 0,70.11 19.36,123.14 58.82,160 39.46,36.85 131.79,73.71 276.97,110.56 80.41,19.78 166.04,38.65 258.36,56.63 92.32,17.98 185.4,41.34 278.47,70.11 206.24,64.72 358.87,166.29 457.9,305.61 99.02,140.22 148.17,313.7 148.17,522.23z"/>
  <path id="4" class="fil5" d="M12916.55 15652.23l0 -619.3c-105.72,10.78 -219.65,25.17 -342.49,44.04 -122.85,17.98 -215.92,39.55 -279.21,64.72 -78.18,29.66 -137.75,73.71 -178.69,130.33 -40.95,57.53 -61.8,133.03 -61.8,226.51 0,62.03 4.47,111.46 12.66,151.01 8.93,38.64 30.52,75.5 65.51,110.56 32.76,35.06 72.97,61.12 119.13,78.19 46.17,17.08 118.39,25.17 216.67,25.17 78.18,0 157.1,-19.78 236.76,-58.42 80.42,-38.65 151.15,-89.89 211.46,-152.81zm0 458.41c-41.7,38.65 -94.56,85.39 -156.35,140.22 -62.55,53.93 -121.37,97.08 -176.47,128.54 -76.69,42.24 -156.36,73.71 -239,94.38 -82.65,20.67 -173.48,31.46 -272.51,31.46 -231.56,0 -425.89,-87.19 -582.24,-261.56 -157.1,-174.38 -235.29,-396.39 -235.29,-667.84 0,-216.62 40.21,-393.7 119.87,-530.32 79.67,-137.52 192.84,-246.28 338.78,-325.38 145.19,-79.09 325.37,-135.73 539.79,-168.98 214.44,-33.26 437.07,-57.53 667.87,-73.71l0 -16.18c0,-162.7 -55.1,-275.95 -165.3,-337.97 -110.19,-62.02 -272.5,-93.47 -486.94,-93.47 -128.81,0 -266.55,27.86 -412.48,82.69 -146.67,55.73 -251.66,97.98 -315.69,127.64l-71.47 0 0 -715.49c82.64,-26.06 217.4,-57.52 403.55,-93.48 186.14,-35.95 373.02,-53.92 559.9,-53.92 445.25,0 766.89,82.69 964.2,248.98 198.05,166.29 297.08,426.95 297.08,782.9l0 2015.22 -777.32 0 0 -313.7z"/>
  <polygon id="5" class="fil5" points="15203.82,16424.34 14417.57,16424.34 14417.57,12325.6 15203.82,12325.6 "/>
  <path id="6" class="fil5" d="M17427.81 15652.23l0 -619.3c-105.73,10.78 -219.65,25.17 -342.49,44.04 -122.86,17.98 -215.93,39.55 -279.21,64.72 -78.18,29.66 -137.75,73.71 -178.69,130.33 -40.95,57.53 -61.8,133.03 -61.8,226.51 0,62.03 4.46,111.46 12.65,151.01 8.93,38.64 30.53,75.5 65.52,110.56 32.76,35.06 72.97,61.12 119.13,78.19 46.16,17.08 118.39,25.17 216.66,25.17 78.18,0 157.11,-19.78 236.77,-58.42 80.41,-38.65 151.15,-89.89 211.46,-152.81zm0 458.41c-41.7,38.65 -94.56,85.39 -156.36,140.22 -62.55,53.93 -121.37,97.08 -176.46,128.54 -76.69,42.24 -156.37,73.71 -239,94.38 -82.65,20.67 -173.49,31.46 -272.51,31.46 -231.56,0 -425.89,-87.19 -582.24,-261.56 -157.11,-174.38 -235.29,-396.39 -235.29,-667.84 0,-216.62 40.21,-393.7 119.87,-530.32 79.66,-137.52 192.84,-246.28 338.78,-325.38 145.19,-79.09 325.37,-135.73 539.79,-168.98 214.43,-33.26 437.06,-57.53 667.87,-73.71l0 -16.18c0,-162.7 -55.09,-275.95 -165.29,-337.97 -110.19,-62.02 -272.5,-93.47 -486.94,-93.47 -128.81,0 -266.55,27.86 -412.49,82.69 -146.67,55.73 -251.66,97.98 -315.68,127.64l-71.48 0 0 -715.49c82.65,-26.06 217.41,-57.52 403.55,-93.48 186.14,-35.95 373.03,-53.92 559.91,-53.92 445.24,0 766.89,82.69 964.2,248.98 198.04,166.29 297.08,426.95 297.08,782.9l0 2015.22 -777.32 0 0 -313.7z"/>
 </g>
</svg>
