<?xml version="1.0" encoding="utf-8"?>
<!-- Generator: Adobe Illustrator 16.0.0, SVG Export Plug-In . SVG Version: 6.00 Build 0)  -->
<!DOCTYPE svg PUBLIC "-//W3C//DTD SVG 1.1//EN" "http://www.w3.org/Graphics/SVG/1.1/DTD/svg11.dtd">
<svg version="1.1" id="Capa_1" xmlns="http://www.w3.org/2000/svg"
	xmlns:xlink="http://www.w3.org/1999/xlink" x="0px" y="0px"
	width="46.98px" height="46.979px" viewBox="0 0 46.98 46.979"
	enable-background="new 0 0 46.98 46.979" xml:space="preserve">
<g>
	<path id="XMLID_16_" fill="#FFFFFF" d="M38.59,46.979H8.389C3.756,46.979,0,43.224,0,38.591V8.389C0,3.755,3.756,0,8.389,0H38.59
		c4.635,0,8.391,3.755,8.391,8.389v30.202C46.98,43.224,43.225,46.979,38.59,46.979z"/>
	<g>
		<path fill-rule="evenodd" clip-rule="evenodd" fill="#427FBE" stroke="#427FBE" stroke-width="0.3" stroke-miterlimit="10" d="
			M23.463,11.419c4.238,0,8.479-0.004,12.719,0c2.063,0.003,3.129,1.122,3.133,3.32c0.01,6.334,0.01,12.667-0.002,19.001
			c-0.004,2.158-1.121,3.306-3.174,3.306c-8.445,0.004-16.893,0.002-25.34,0c-2.094,0-3.131-1.085-3.133-3.295
			c-0.006-6.367-0.008-12.734,0-19.102c0.004-2.171,1.016-3.227,3.078-3.229C14.984,11.414,19.225,11.419,23.463,11.419z
			 M9.492,14.113c0.377,0.44,0.227,0.236,0.402,0.423c3.518,3.719,7.031,7.44,10.561,11.149c1.848,1.942,4.066,1.938,5.904-0.005
			c3.496-3.695,6.982-7.399,10.461-11.114c0.215-0.231,0.439-0.53,0.301-0.887c-0.141-0.402-0.471-0.438-0.795-0.438
			c-8.609-0.025-17.697-0.025-26.309-0.002C9.641,13.24,9.168,13.648,9.492,14.113z M10.004,33.832
			c-0.311,0.495-0.279,1.238,0.689,1.224c4.863,0.029,9.729,0.018,14.592,0.018c3.672,0,7.344,0.012,11.018-0.02
			c0.328-0.002,0.732-0.125,0.895-0.448c0.002-0.399-0.146-0.626-0.357-0.854c-2.426-2.605-4.871-5.192-7.316-7.781
			c-0.168-0.176-0.365-0.32-0.586-0.514c-1.584,1.762-3.064,3.582-5.578,3.584c-2.535,0-4.018-1.876-5.521-3.516
			C14.986,28.538,12.986,30.677,10.004,33.832z M37.41,31.573c0-4.983,0-9.913,0-14.805c-2.346,2.502-4.674,4.987-6.92,7.383
			C32.723,26.545,35.047,29.036,37.41,31.573z M9.393,31.347c2.311-2.445,4.627-4.896,6.717-7.111
			c-2.219-2.375-4.516-4.832-6.717-7.185C9.393,21.719,9.393,26.594,9.393,31.347z"/>
	</g>
</g>
</svg>