<?xml version="1.0" encoding="utf-8"?>
<!-- Generator: Adobe Illustrator 16.0.0, SVG Export Plug-In . SVG Version: 6.00 Build 0)  -->
<!DOCTYPE svg PUBLIC "-//W3C//DTD SVG 1.1//EN" "http://www.w3.org/Graphics/SVG/1.1/DTD/svg11.dtd">
<svg version="1.1" id="Capa_1" xmlns="http://www.w3.org/2000/svg" xmlns:xlink="http://www.w3.org/1999/xlink" x="0px" y="0px"
	 width="46.98px" height="46.981px" viewBox="0 0 46.98 46.981" enable-background="new 0 0 46.98 46.981" xml:space="preserve">
<g id="XMLID_45_">
	<path id="XMLID_54_" fill="#427FBE" d="M38.592,46.981H8.389C3.756,46.981,0,43.225,0,38.592V8.389C0,3.756,3.756,0,8.389,0h30.203
		c4.633,0,8.389,3.756,8.389,8.389v30.203C46.98,43.225,43.225,46.981,38.592,46.981z"/>
	<g id="XMLID_46_">
		<path id="XMLID_51_" fill="#FFFFFF" d="M23.49,12.932c3.439,0,3.846,0.014,5.203,0.076c1.256,0.056,1.939,0.267,2.393,0.442
			c0.602,0.234,1.031,0.513,1.48,0.964c0.451,0.45,0.73,0.88,0.965,1.479c0.176,0.455,0.385,1.137,0.443,2.393
			c0.061,1.358,0.074,1.766,0.074,5.204c0,3.439-0.014,3.847-0.074,5.205c-0.059,1.256-0.268,1.938-0.443,2.391
			c-0.234,0.603-0.514,1.031-0.965,1.481c-0.449,0.451-0.879,0.73-1.48,0.964c-0.453,0.177-1.137,0.387-2.393,0.443
			c-1.357,0.063-1.764,0.075-5.203,0.075s-3.848-0.013-5.205-0.075c-1.256-0.057-1.938-0.267-2.391-0.443
			c-0.604-0.233-1.029-0.513-1.48-0.964c-0.451-0.45-0.73-0.879-0.965-1.481c-0.176-0.453-0.387-1.135-0.443-2.391
			c-0.063-1.358-0.074-1.766-0.074-5.205c0-3.438,0.012-3.846,0.074-5.204c0.057-1.256,0.268-1.938,0.443-2.393
			c0.234-0.6,0.514-1.029,0.965-1.479c0.451-0.451,0.877-0.729,1.48-0.964c0.453-0.176,1.135-0.387,2.391-0.442
			C19.643,12.945,20.051,12.932,23.49,12.932 M23.49,10.61c-3.498,0-3.938,0.016-5.311,0.078c-1.371,0.063-2.307,0.28-3.127,0.599
			c-0.846,0.329-1.564,0.771-2.281,1.486s-1.156,1.434-1.484,2.281c-0.318,0.818-0.537,1.754-0.6,3.126
			c-0.063,1.374-0.078,1.812-0.078,5.31s0.016,3.937,0.078,5.312c0.063,1.37,0.281,2.306,0.6,3.125
			c0.328,0.848,0.768,1.566,1.484,2.282s1.436,1.156,2.281,1.485c0.82,0.317,1.756,0.536,3.127,0.599
			c1.373,0.063,1.813,0.077,5.311,0.077s3.936-0.015,5.311-0.077c1.371-0.063,2.307-0.281,3.127-0.599
			c0.846-0.329,1.564-0.77,2.279-1.485c0.717-0.716,1.158-1.435,1.486-2.282c0.318-0.819,0.537-1.755,0.598-3.125
			c0.064-1.375,0.078-1.813,0.078-5.312s-0.014-3.936-0.078-5.31c-0.061-1.372-0.279-2.308-0.598-3.126
			c-0.328-0.848-0.77-1.565-1.486-2.281c-0.715-0.716-1.434-1.157-2.279-1.486c-0.82-0.318-1.756-0.535-3.127-0.599
			C27.426,10.626,26.988,10.61,23.49,10.61"/>
		<path id="XMLID_48_" fill="#FFFFFF" d="M23.49,16.877c-3.654,0-6.613,2.961-6.613,6.613c0,3.653,2.959,6.614,6.613,6.614
			c3.652,0,6.613-2.961,6.613-6.614C30.104,19.838,27.143,16.877,23.49,16.877 M23.49,27.784c-2.371,0-4.295-1.923-4.295-4.294
			s1.924-4.293,4.295-4.293s4.293,1.922,4.293,4.293S25.861,27.784,23.49,27.784"/>
		<path id="XMLID_47_" fill="#FFFFFF" d="M31.912,16.615c0,0.854-0.693,1.546-1.547,1.546s-1.545-0.692-1.545-1.546
			c0-0.853,0.691-1.546,1.545-1.546S31.912,15.763,31.912,16.615"/>
	</g>
</g>
</svg>
