<?xml version="1.0" encoding="utf-8"?>
<!-- Generator: Adobe Illustrator 16.0.0, SVG Export Plug-In . SVG Version: 6.00 Build 0)  -->
<!DOCTYPE svg PUBLIC "-//W3C//DTD SVG 1.1//EN" "http://www.w3.org/Graphics/SVG/1.1/DTD/svg11.dtd">
<svg version="1.1" id="Capa_1" xmlns="http://www.w3.org/2000/svg" xmlns:xlink="http://www.w3.org/1999/xlink" x="0px" y="0px"
	 width="51.312px" height="51.291px" viewBox="0 0 51.312 51.291" enable-background="new 0 0 51.312 51.291" xml:space="preserve">
<g>
	<path fill-rule="evenodd" clip-rule="evenodd" fill="#427FBE" d="M30.259,37.864c-1.674,0.928-3.369,1.618-5.162,2.051
		c-2.35,0.566-4.723,0.751-7.129,0.447c-6.5-0.82-11.492-4.025-14.992-9.542c-1.553-2.445-2.475-5.137-2.814-8.018
		c-0.645-5.456,0.635-10.419,3.961-14.793c3.152-4.148,7.328-6.729,12.467-7.673c9.916-1.819,19.613,3.888,22.846,13.421
		c0.832,2.455,1.18,4.986,1.037,7.569c-0.164,3.035-0.959,5.908-2.432,8.577c-0.143,0.257-0.107,0.394,0.09,0.59
		c3.766,3.755,7.52,7.52,11.287,11.271c0.887,0.881,1.531,1.875,1.789,3.113c0.627,3.013-1.625,6.071-4.693,6.381
		c-1.768,0.178-3.266-0.367-4.512-1.611c-3.877-3.867-7.744-7.737-11.615-11.608C30.341,37.994,30.31,37.935,30.259,37.864z
		 M20.269,5.399c-8.182,0.013-14.82,6.548-14.869,14.746c-0.051,8.257,6.525,14.938,14.816,14.949
		c8.316,0.01,14.824-6.637,14.873-14.778C35.14,12.093,28.45,5.399,20.269,5.399z"/>
	<path fill-rule="evenodd" clip-rule="evenodd" fill="#427FBE" d="M20.329,9.431c1.375-0.085,2.459,1.188,2.605,2.433
		c0.166,1.421-0.959,2.877-2.387,2.957c-1.084,0.061-2.135,0.205-3.076,0.802c-1.611,1.021-2.518,2.464-2.598,4.382
		c-0.039,0.893-0.258,1.693-0.961,2.285c-0.848,0.715-1.82,0.865-2.832,0.438c-1.064-0.451-1.635-1.313-1.641-2.466
		c-0.018-4.267,2.494-8.135,6.404-9.884C17.175,9.784,18.567,9.488,20.329,9.431z"/>
</g>
</svg>
