<?xml version="1.0" encoding="utf-8"?>
<!-- Generator: Adobe Illustrator 16.0.0, SVG Export Plug-In . SVG Version: 6.00 Build 0)  -->
<!DOCTYPE svg PUBLIC "-//W3C//DTD SVG 1.1//EN" "http://www.w3.org/Graphics/SVG/1.1/DTD/svg11.dtd">
<svg version="1.1" id="Capa_1" xmlns="http://www.w3.org/2000/svg" xmlns:xlink="http://www.w3.org/1999/xlink" x="0px" y="0px"
	 width="46.98px" height="46.981px" viewBox="0 0 46.98 46.981" enable-background="new 0 0 46.98 46.981" xml:space="preserve">
<g id="XMLID_38_">
	<path id="XMLID_44_" fill="#427FBE" d="M38.592,46.981H8.389C3.756,46.981,0,43.225,0,38.592V8.389C0,3.756,3.756,0,8.389,0h30.203
		c4.633,0,8.389,3.756,8.389,8.389v30.203C46.98,43.225,43.225,46.981,38.592,46.981z"/>
	<g id="XMLID_39_">
		<path id="XMLID_41_" fill-rule="evenodd" clip-rule="evenodd" fill="#FFFFFF" d="M36.369,22.839
			c-0.172-6.786-5.762-12.235-12.646-12.235c-6.799,0-12.342,5.324-12.637,12.005c-0.006,0.183-0.012,0.366-0.012,0.551
			c0,2.374,0.664,4.59,1.813,6.485l-2.281,6.733l7.006-2.227c1.813,0.994,3.898,1.563,6.111,1.563
			c6.99,0,12.652-5.621,12.652-12.556C36.375,23.053,36.375,22.946,36.369,22.839z M23.723,33.713c-2.16,0-4.168-0.64-5.85-1.747
			l-4.086,1.303l1.326-3.921c-1.275-1.74-2.025-3.879-2.025-6.188c0-0.344,0.018-0.688,0.053-1.024
			c0.521-5.343,5.07-9.53,10.582-9.53c5.586,0,10.178,4.294,10.604,9.731c0.023,0.272,0.035,0.545,0.035,0.823
			C34.361,28.98,29.588,33.713,23.723,33.713z"/>
		<path id="XMLID_40_" fill-rule="evenodd" clip-rule="evenodd" fill="#FFFFFF" d="M29.521,25.693c-0.313-0.154-1.836-0.899-2.121-1
			c-0.283-0.107-0.49-0.154-0.697,0.153s-0.805,1.001-0.982,1.202c-0.186,0.207-0.363,0.23-0.676,0.077
			c-0.309-0.154-1.309-0.474-2.494-1.527c-0.918-0.812-1.543-1.819-1.723-2.127c-0.178-0.308-0.02-0.474,0.137-0.628
			c0.141-0.142,0.307-0.36,0.467-0.538c0.041-0.055,0.078-0.101,0.113-0.148c0.072-0.113,0.123-0.22,0.195-0.367
			c0.105-0.207,0.055-0.386-0.023-0.539s-0.699-1.67-0.959-2.287c-0.256-0.615-0.516-0.509-0.699-0.509
			c-0.178,0-0.385-0.029-0.592-0.029c-0.209,0-0.545,0.078-0.83,0.386s-1.084,1.054-1.084,2.569c0,0.355,0.066,0.712,0.162,1.049
			c0.313,1.084,0.988,1.978,1.105,2.133c0.152,0.201,2.145,3.41,5.295,4.648c3.156,1.227,3.156,0.816,3.725,0.764
			c0.57-0.047,1.836-0.74,2.09-1.463c0.262-0.717,0.262-1.333,0.184-1.463C30.039,25.925,29.83,25.848,29.521,25.693z"/>
	</g>
</g>
</svg>
