<?xml version="1.0" encoding="utf-8"?>
<!-- Generator: Adobe Illustrator 16.0.0, SVG Export Plug-In . SVG Version: 6.00 Build 0)  -->
<!DOCTYPE svg PUBLIC "-//W3C//DTD SVG 1.1//EN" "http://www.w3.org/Graphics/SVG/1.1/DTD/svg11.dtd">
<svg version="1.1" id="Capa_1" xmlns="http://www.w3.org/2000/svg" xmlns:xlink="http://www.w3.org/1999/xlink" x="0px" y="0px"
	 width="46.979px" height="46.979px" viewBox="0 0 46.979 46.979" enable-background="new 0 0 46.979 46.979" xml:space="preserve">
<g id="XMLID_31_">
	<path id="XMLID_37_" fill="#427FBE" d="M38.59,46.979H8.389C3.754,46.979,0,43.224,0,38.591V8.389C0,3.755,3.754,0,8.389,0H38.59
		c4.633,0,8.389,3.755,8.389,8.389v30.202C46.979,43.224,43.223,46.979,38.59,46.979z"/>
	<g id="XMLID_32_">
		<g id="XMLID_34_">
			<rect id="XMLID_36_" x="12.838" y="18.255" fill="#FFFFFF" width="4.859" height="15.703"/>
			<ellipse id="XMLID_35_" fill="#FFFFFF" cx="15.244" cy="13.3" rx="2.875" ry="2.898"/>
		</g>
		<path id="XMLID_33_" fill="#FFFFFF" d="M25.471,25.715c0-2.208,1.016-3.523,2.961-3.523c1.787,0,2.646,1.264,2.646,3.523
			c0,2.262,0,8.243,0,8.243h4.84c0,0,0-5.736,0-9.944c0-4.206-2.385-6.239-5.715-6.239c-3.332,0-4.732,2.595-4.732,2.595v-2.114
			h-4.664v15.703h4.664C25.471,33.958,25.471,28.135,25.471,25.715z"/>
	</g>
</g>
</svg>
