<?xml version="1.0" encoding="UTF-8"?>
<!DOCTYPE svg PUBLIC "-//W3C//DTD SVG 1.1//EN" "http://www.w3.org/Graphics/SVG/1.1/DTD/svg11.dtd">
<!-- Creator: CorelDRAW 2019 (64-Bit) -->
<svg xmlns="http://www.w3.org/2000/svg" xml:space="preserve" width="91.9673mm" height="63.747mm" version="1.1" style="shape-rendering:geometricPrecision; text-rendering:geometricPrecision; image-rendering:optimizeQuality; fill-rule:evenodd; clip-rule:evenodd"
viewBox="0 0 217.2 150.55"
 xmlns:xlink="http://www.w3.org/1999/xlink">
 <defs>
  <style type="text/css">
   <![CDATA[
    .fil2 {fill:#0DD1C6}
    .fil1 {fill:white}
    .fil0 {fill:white;fill-rule:nonzero}
   ]]>
  </style>
 </defs>
 <g id="Layer_x0020_1">
  <metadata id="CorelCorpID_0Corel-Layer"/>
  <g id="_2023683199168">
   <path class="fil0" d="M81.95 5.64c3.91,-1.83 8.05,-3.26 12.37,-4.22 4.2,-0.93 8.56,-1.43 13.03,-1.43 16.53,0 31.5,6.7 42.34,17.54 10.84,10.84 17.54,25.8 17.54,42.34 0,9.72 -2.32,18.9 -6.43,27.02 -4.27,8.43 -10.48,15.71 -18.04,21.26l-0.98 -1.34c7.35,-5.4 13.38,-12.48 17.53,-20.67 4,-7.89 6.25,-16.82 6.25,-26.27 0,-16.07 -6.52,-30.63 -17.05,-41.16 -10.53,-10.53 -25.09,-17.05 -41.16,-17.05 -4.36,0 -8.6,0.48 -12.67,1.38 -4.2,0.93 -8.22,2.32 -12.02,4.1l-0.7 -1.5z"/>
   <path class="fil0" d="M74.78 110.13c-8.37,-5.43 -15.3,-12.9 -20.08,-21.7 -4.62,-8.49 -7.24,-18.22 -7.24,-28.55 0,-5.77 0.82,-11.35 2.35,-16.64 1.58,-5.46 3.91,-10.61 6.88,-15.3l1.41 0.89c-2.89,4.57 -5.16,9.57 -6.7,14.88 -1.48,5.13 -2.28,10.56 -2.28,16.18 0,10.06 2.55,19.51 7.03,27.76 4.65,8.56 11.39,15.82 19.53,21.1l-0.91 1.39z"/>
   <path class="fil1" d="M112.6 73.46c1.29,-1.1 10.33,-17.38 12.74,-18.87 1.94,-1.2 6.44,0.23 10.76,-5.03 2.05,-2.49 4.65,-8.01 1.88,-11.65 -4.79,-6.31 -17.83,3.43 -16,11.41 0.76,3.32 1.32,3.01 -0.37,6.15 -0.93,1.72 -8.36,13.16 -9.91,14 0.12,-5.85 -0.68,-14.89 -0.34,-20.2 0.16,-2.52 1.17,-3.41 2.63,-4.43 3.79,-2.63 3.47,-4.91 2.61,-10.35 -0.33,-2.1 -1.84,-9.85 -2.66,-11.1 -1.42,3.6 -0.18,13.55 -0.96,15.23l-1.2 0.16c-0.82,-1.52 -0.38,-8.26 -0.74,-11.69l-0.39 -3.22c-0.13,-0.34 -0.11,-0.25 -0.21,-0.37 -1.61,3.49 -0.77,13.58 -1.36,15.22l-1.32 -0.1c-0.8,-2.49 0.59,-13.29 -1.12,-15.24 -0.93,1.84 -2.34,10.31 -2.68,12.84 -0.32,2.32 -0.6,4.77 0.6,6.55 1.21,1.81 3.08,2.23 4.09,3.71 1.32,1.92 0.6,11.92 0.53,15.01 -0.04,1.55 -0.53,6.32 0.03,7.41 0.81,1.57 2.6,3.2 3.41,4.57zm-56.73 5.79c-1.94,0.88 -0.79,3.07 1.36,3.18 4.58,0.24 15.45,0.04 20.41,0.04 11.04,-0.01 80.12,0.3 81.17,-0.21 0.57,-0.28 1.2,-1.09 0.93,-2.1 -0.26,-0.96 -1.04,-1.13 -2.31,-1.13l-47.6 0.08c-5.6,-0.02 -52.84,-0.35 -53.96,0.15zm44.96 -1.55l3.84 -0.04c-0.51,-0.91 -7.23,-6.73 -8.41,-7.82 -1.02,-0.94 -1.75,-1.78 -2.85,-2.75l-7.84 -8.56c-1.93,-2.62 -0.86,-1.61 -0.62,-4.05 0.2,-2 -1.58,-3.19 -3.34,-4.99 -3.99,-4.08 -14.98,-16.89 -18.23,-17.53 -4.14,-0.82 -1.39,5.66 -0.62,7.19 1.89,3.76 6.19,10.05 8.73,13.27 0.69,0.87 4.34,5.7 5.02,6 2.44,1.04 2.34,-2.22 7.68,2.9l14.48 15.71c0.76,0.8 0.7,0.7 2.16,0.68zm15.11 14.69c-0.25,-0.49 -1.12,-1.52 -1.51,-1.94 -3.67,-4.02 -1.81,-3.3 -7.41,-3.32 -13.77,-0.04 -30.05,-0.3 -43.36,0.05 0.21,1.94 5.23,5.05 8.95,5.29 5.72,0.37 21.93,0.05 28.8,0.05 2.44,0 12.98,0.16 14.51,-0.13zm-22.21 -47.62c-1.04,0.07 -1.55,-0.98 -2.42,-2.19 -0.83,-1.15 -5.18,-8.01 -6.08,-8.21 -0.34,0.79 2.31,5.05 2.84,6.06 1.04,1.95 3.83,5.39 3.16,6.05 -1.48,0.64 -3.45,-3.64 -4.24,-4.97 -0.73,-1.22 -2.85,-5.36 -3.88,-5.73 -0.36,1.37 4.2,10.51 5,12.01 0.9,1.67 2.09,4.17 3.38,5.21 1.99,1.6 3.12,-0.58 5.57,3.23 3.59,5.57 9.61,16.77 13.29,21.45l3.79 0.03c-0.32,-1.06 -1.74,-2.57 -2.42,-3.36 -2.66,-3.1 -12.69,-17.7 -13.35,-21.03 -0.35,-1.77 0.74,-2.97 0.78,-4.67 0.04,-1.72 -3.36,-5.9 -4.24,-7.08 -1.67,-2.22 -3.43,-4.31 -5.1,-6.5 -0.24,-0.32 -2.83,-3.68 -2.22,-1.42 0.8,2.95 6.88,9.34 6.12,11.11zm56.56 42.43l-35 -0.05c0.03,0.69 0.61,0.97 1.11,1.54 1.87,2.13 2.69,3.75 4.82,3.79 3.42,0.07 20.45,0.31 22.62,-0.4 2.2,-0.72 5.87,-3.08 6.45,-4.89z"/>
   <path class="fil2" d="M107.15 115.45c5.51,-0.2 8.85,-1.41 11.57,-4.44 1.96,-2.18 3.59,-5.63 5.06,-6.94 0.65,-0.58 1.93,-1.13 2.38,-1.77 -6.69,-0.01 -13.1,2.16 -16.6,7.35 -0.86,1.29 -2.24,3.86 -2.4,5.8z"/>
   <path class="fil2" d="M106.98 115.46c-0.52,-4.36 -3.72,-7.76 -6.25,-9.54 -2.27,-1.6 -8.42,-3.94 -12.19,-3.29 0.66,1.09 1.41,-0.25 4.18,3.5 3.31,4.48 5.68,9.2 14.27,9.33z"/>
  </g>
  <polygon class="fil0" points="8.98,145.16 8.98,126.29 -0,126.29 -0,123.83 20.61,123.83 20.61,126.29 11.63,126.29 11.63,145.16 "/>
  <path id="1" class="fil0" d="M26.4 143.26c2.2,0 4,-0.59 5.39,-1.79 1.39,-1.19 2.08,-2.7 2.08,-4.54 0,-1.83 -0.7,-3.34 -2.1,-4.54 -1.4,-1.19 -3.19,-1.79 -5.38,-1.79 -2.19,0 -3.98,0.59 -5.36,1.79 -1.38,1.19 -2.08,2.7 -2.08,4.54 0,1.84 0.69,3.36 2.08,4.54 1.38,1.19 3.17,1.79 5.36,1.79zm0 2.41c-2.93,0 -5.35,-0.83 -7.25,-2.49 -1.89,-1.66 -2.84,-3.74 -2.84,-6.25 0,-2.52 0.94,-4.6 2.83,-6.24 1.89,-1.64 4.31,-2.46 7.26,-2.46 2.97,0 5.41,0.82 7.3,2.45 1.89,1.64 2.83,3.72 2.83,6.25 0,2.53 -0.95,4.61 -2.84,6.26 -1.89,1.66 -4.32,2.48 -7.29,2.48z"/>
  <path id="2" class="fil0" d="M50.26 126.29l-6.49 0 0 16.42 6.49 0c2.62,0 4.69,-0.74 6.2,-2.21 1.51,-1.48 2.26,-3.47 2.26,-5.98 0,-2.47 -0.76,-4.46 -2.3,-5.97 -1.53,-1.51 -3.59,-2.26 -6.16,-2.26zm0 -2.45c3.36,0 6.06,0.99 8.11,2.97 2.05,1.98 3.08,4.56 3.08,7.75 0,3.2 -1.01,5.78 -3.03,7.71 -2.02,1.93 -4.74,2.89 -8.16,2.89l-9.15 0 0 -21.32 9.15 0z"/>
  <path id="3" class="fil0" d="M74.38 143.26c2.2,0 4,-0.59 5.39,-1.79 1.39,-1.19 2.08,-2.7 2.08,-4.54 0,-1.83 -0.7,-3.34 -2.1,-4.54 -1.4,-1.19 -3.19,-1.79 -5.38,-1.79 -2.19,0 -3.98,0.59 -5.36,1.79 -1.38,1.19 -2.08,2.7 -2.08,4.54 0,1.84 0.69,3.36 2.08,4.54 1.38,1.19 3.17,1.79 5.36,1.79zm0 2.41c-2.93,0 -5.35,-0.83 -7.25,-2.49 -1.89,-1.66 -2.84,-3.74 -2.84,-6.25 0,-2.52 0.94,-4.6 2.83,-6.24 1.89,-1.64 4.31,-2.46 7.26,-2.46 2.97,0 5.41,0.82 7.3,2.45 1.89,1.64 2.83,3.72 2.83,6.25 0,2.53 -0.95,4.61 -2.84,6.26 -1.89,1.66 -4.32,2.48 -7.29,2.48z"/>
  <path id="4" class="fil0" d="M105.44 139.38l0 -3.13 -5.82 0 0 -2.45 8.47 0 0 6.41c-1.03,1.77 -2.37,3.13 -4.03,4.08 -1.66,0.94 -3.53,1.42 -5.63,1.42 -3.19,0 -5.83,-1.05 -7.91,-3.16 -2.08,-2.1 -3.12,-4.77 -3.12,-8.01 0,-3.24 1.04,-5.92 3.13,-8.02 2.09,-2.1 4.72,-3.16 7.9,-3.16 1.97,0 3.77,0.43 5.39,1.29 1.62,0.86 2.94,2.1 3.96,3.69l-2.22 1.58c-0.67,-1.27 -1.64,-2.28 -2.9,-2.99 -1.26,-0.72 -2.67,-1.08 -4.23,-1.08 -2.39,0 -4.38,0.82 -5.95,2.47 -1.57,1.64 -2.35,3.72 -2.35,6.22 0,2.51 0.78,4.59 2.35,6.22 1.57,1.64 3.55,2.45 5.95,2.45 1.5,0 2.82,-0.32 3.99,-0.96 1.16,-0.65 2.17,-1.6 3.02,-2.87z"/>
  <polygon id="5" class="fil0" points="113.16,145.16 113.16,128.66 128.63,128.66 128.63,131.07 115.73,131.07 115.73,135.19 124.2,135.19 124.2,137.56 115.73,137.56 115.73,142.78 129.34,142.78 129.34,145.16 "/>
  <path id="6" class="fil0" d="M131.59 143.05l1.25 -2.16c1.13,0.76 2.37,1.35 3.71,1.77 1.35,0.43 2.62,0.64 3.85,0.64 1.47,0 2.66,-0.3 3.56,-0.9 0.9,-0.6 1.35,-1.37 1.35,-2.3 0,-0.94 -0.42,-1.64 -1.24,-2.1 -0.82,-0.45 -2.12,-0.71 -3.9,-0.76 -3.01,-0.04 -5.07,-0.39 -6.19,-1.04 -1.12,-0.66 -1.68,-1.75 -1.68,-3.26 0,-1.42 0.61,-2.56 1.85,-3.42 1.23,-0.86 2.89,-1.29 4.97,-1.29 1.42,0 2.79,0.2 4.13,0.6 1.33,0.4 2.62,0.99 3.86,1.77l-1.3 2.14c-1.03,-0.69 -2.14,-1.23 -3.32,-1.61 -1.19,-0.38 -2.32,-0.57 -3.4,-0.57 -1.25,0 -2.26,0.22 -3.02,0.65 -0.76,0.44 -1.14,1.01 -1.14,1.71 0,0.73 0.38,1.25 1.15,1.56 0.76,0.31 2.1,0.46 3.99,0.46 2.63,0 4.61,0.44 5.95,1.33 1.34,0.89 2.01,2.21 2.01,3.96 0,1.56 -0.68,2.85 -2.04,3.88 -1.36,1.03 -3.12,1.54 -5.28,1.54 -1.6,0 -3.18,-0.23 -4.77,-0.69 -1.58,-0.45 -3.02,-1.1 -4.33,-1.94z"/>
  <polygon id="7" class="fil0" points="156.52,145.16 156.52,130.95 149.56,130.95 149.56,128.66 166.06,128.66 166.06,130.95 159.1,130.95 159.1,145.16 "/>
  <polygon id="8" class="fil0" points="168.66,145.16 168.66,128.62 171.28,128.62 171.28,145.16 "/>
  <path id="9" class="fil0" d="M185.64 143.26c2.2,0 4,-0.59 5.39,-1.79 1.39,-1.19 2.08,-2.7 2.08,-4.54 0,-1.83 -0.7,-3.34 -2.1,-4.54 -1.4,-1.19 -3.19,-1.79 -5.38,-1.79 -2.19,0 -3.98,0.59 -5.36,1.79 -1.38,1.19 -2.08,2.7 -2.08,4.54 0,1.84 0.69,3.36 2.08,4.54 1.38,1.19 3.17,1.79 5.36,1.79zm0 2.41c-2.93,0 -5.35,-0.83 -7.25,-2.49 -1.89,-1.66 -2.84,-3.74 -2.84,-6.25 0,-2.52 0.94,-4.6 2.83,-6.24 1.89,-1.64 4.31,-2.46 7.26,-2.46 2.97,0 5.41,0.82 7.3,2.45 1.89,1.64 2.83,3.72 2.83,6.25 0,2.53 -0.95,4.61 -2.84,6.26 -1.89,1.66 -4.32,2.48 -7.29,2.48zm-0.6 -19.58l-1.77 0 4.03 -6.77 2.93 0 -5.19 6.77z"/>
  <polygon id="10" class="fil0" points="200,145.16 200,128.66 201.35,128.66 211.83,140.25 211.83,128.66 214.36,128.66 214.36,145.16 213.01,145.16 202.53,133.61 202.53,145.16 "/>
  <polygon id="11" class="fil1" points="2.06,148.75 217.2,148.75 217.2,150.55 2.06,150.55 "/>
 </g>
</svg>
