<?xml version="1.0" encoding="UTF-8"?>
<!DOCTYPE svg PUBLIC "-//W3C//DTD SVG 1.1//EN" "http://www.w3.org/Graphics/SVG/1.1/DTD/svg11.dtd">
<!-- Creator: CorelDRAW 2019 (64-Bit) -->
<svg xmlns="http://www.w3.org/2000/svg" xml:space="preserve" width="391.989mm" height="160.121mm" version="1.1" style="shape-rendering:geometricPrecision; text-rendering:geometricPrecision; image-rendering:optimizeQuality; fill-rule:evenodd; clip-rule:evenodd"
viewBox="0 0 86912.24 35502.29"
 xmlns:xlink="http://www.w3.org/1999/xlink">
 <defs>
  <style type="text/css">
   <![CDATA[
    .str0 {stroke:#373435;stroke-width:938.61;stroke-miterlimit:22.9256}
    .fil0 {fill:#364958}
    .fil4 {fill:#E7ECF0}
    .fil5 {fill:#FF6800}
    .fil2 {fill:#07659B;fill-rule:nonzero}
    .fil3 {fill:#C7D0D7;fill-rule:nonzero}
    .fil1 {fill:#E7ECF0;fill-rule:nonzero}
   ]]>
  </style>
 </defs>
 <g id="Layer_x0020_1">
  <metadata id="CorelCorpID_0Corel-Layer"/>
  <path class="fil0" d="M31965.77 13845.84c776.8,0.02 1220.66,-73.12 1904.92,188.55 54.5,72.15 6.1,22.31 89.93,103.88 127.27,123.88 3.5,10.64 93.83,76.49 81.11,160.39 135.8,364.35 171.9,594.37 15.88,-1.4 36.54,8.91 63.21,40.57 26.76,1089.56 10.15,2193.22 13.39,3285.46 2.66,900.68 156.18,2447.31 -200.32,3152.36 -90.33,65.85 33.44,-47.38 -93.83,76.49 -83.83,81.57 -35.43,31.73 -89.93,103.88 -684.25,261.68 -1128.12,188.53 -1904.92,188.55 -660.55,0.04 -1401.79,43.06 -2049.92,2.95 -215.2,684.96 -1116.92,2756.46 -1119.05,2823.53 128.44,78.13 113.88,93.12 250.03,173.78 256.15,244.85 564.86,686.74 866.24,821.3l1030.29 1013.6c154.05,165.36 368.3,355.37 513.26,542.04 195.47,251.68 173.94,510.49 81.7,845.58l-23.41 70.35 -892.69 1105.24c-361.05,378.74 -607.47,651.66 -943.67,988.77 -617.49,619.18 -1339.55,1246.25 -2078.81,1851.79 -1329.75,1089.25 -1351.12,866.18 -2360.97,-225.89l-1779.25 -2133.98c-237.42,33.55 -945.02,357.13 -1231.66,459.76 -404.42,144.78 -865.11,230.92 -1250.68,393.38l-18.67 3820.05c-206.87,911.74 -938.88,828 -1992.65,918.68 -953.38,82.06 -1937.66,72.3 -2899.07,37.6 -2477.64,-89.42 -2721.8,-29.87 -2523.83,-3294.42l-4.7 -1474.69c-141.28,-83.94 -1597.99,-508.83 -2390.2,-912.8 -279.59,321.34 -565.9,679.38 -852.85,1006.52 -306.04,348.88 -561.26,712.74 -844.76,1033.18 -1143.79,1292.83 -1186.58,1355.18 -2235.37,566.94 -1669.27,-1254.61 -1737.72,-1556.77 -2941.42,-2687.1l-716.62 -792.43c-3.99,11.29 -11.06,23.84 -21.77,38.47 -127.29,-62.84 -480.03,-516.06 -550.69,-708.09 -84.72,-230.28 -59.11,-431.03 10.04,-606.27 26.45,-142.99 99.06,-274.34 223.96,-401.58l180.41 -180.1c26.27,-33.19 40.62,-48.8 88.67,-94.96 51.06,-49.07 92.24,-87.87 129.75,-123.1l1038.7 -1036.95c265.71,-250.28 512.57,-459.07 745.14,-718.78 136.4,-34.3 184.94,-73.23 333.58,-273.67 -76.56,-167.16 -170.53,-302.49 -256.15,-464.48 -47.58,-90.02 -81.79,-169.35 -131.97,-275.11l-167.69 -254.49c-220.7,-638.31 -484.86,-1064.22 -653.74,-1798 -3811.43,-155.4 -4213.45,630.02 -4227.98,-1823.39 -5.92,-997.23 -6.87,-1994.47 -7.69,-2991.84 -0.67,-814.91 -141.26,-2143.07 237.04,-2722.78l23.5 -17.92c367.72,-607.89 1368.37,-259.66 4023.31,-367.9 168.88,-733.79 433.04,-1159.69 653.74,-1798l167.69 -254.49c50.18,-105.76 84.39,-185.09 131.97,-275.11 71.75,-135.74 149.37,-252.76 217.69,-385.48 -196.2,-270.06 -238.77,-314.27 -391.47,-352.67 -232.56,-259.7 -479.43,-468.5 -745.14,-718.78l-1437.53 -1435.11c-242.47,-247.04 -287.84,-509.54 -181.23,-842.58 8.47,-53.32 22.66,-108.4 43.59,-165.27 34.57,-93.92 136.58,-250.3 246.71,-392.93l39.18 -66.34 906.84 -1002.78c1203.7,-1130.33 1272.15,-1432.5 2941.42,-2687.1 1048.78,-788.24 1091.58,-725.89 2235.37,566.94 283.49,320.43 538.72,684.3 844.76,1033.18 286.95,327.15 573.26,685.18 852.85,1006.52 792.21,-403.98 2248.92,-828.86 2390.2,-912.8l4.7 -1474.69c-197.97,-3264.55 46.18,-3205 2523.83,-3294.42 961.4,-34.7 1945.69,-44.46 2899.07,37.6 1053.77,90.68 1785.79,6.94 1992.65,918.68l18.67 3820.05c385.57,162.46 846.26,248.59 1250.68,393.38 286.64,102.63 994.24,426.21 1231.66,459.76l1779.25 -2133.98c1009.85,-1092.06 1031.22,-1315.14 2360.97,-225.89 739.26,605.54 1461.32,1232.61 2078.81,1851.79 336.2,337.1 582.62,610.02 943.67,988.77l892.69 1105.24 23.41 70.35c92.24,335.09 113.77,593.9 -81.7,845.58 -144.96,186.67 -359.21,376.68 -513.26,542.04l-1030.29 1013.6c-301.39,134.56 -610.09,576.45 -866.24,821.3 -136.16,80.66 -121.59,95.65 -250.03,173.78 2.13,67.07 903.85,2138.57 1119.05,2823.53 648.14,-40.11 1389.37,2.9 2049.92,2.95z"/>
  <path class="fil1" d="M31965.77 13532.97c205.29,0 308.68,-2.02 405.82,-3.9 280.54,-5.45 524.35,-10.18 770.35,12.82 -148.86,-276.02 -71.51,-384.26 724.36,158.31 37.83,13.08 76.32,27.09 115.61,42.1l83.83 32.06 54.28 71.82c11.93,15.79 21.15,28.89 28.36,39.53l50.44 49.09 100.93 73.35 33.39 66.07c49.98,98.91 91.17,208.79 124.78,327.3 20.22,71.24 38.05,147.93 53.68,229.19l16.27 18.56 70.62 83.81 2.7 109.29c18.38,748.09 16.32,1505.46 14.28,2261.13 -0.93,344.47 -1.86,688.67 -0.86,1031.67 0.51,179.9 7.87,399.92 15.7,634.74 30.26,908.77 67.69,2031.83 -248.99,2658.17l-33.44 66.07 -100.91 73.37 -50.44 49.09c-7.21,10.64 -16.41,23.7 -28.34,39.51l-54.21 71.77 -83.9 32.11c-39.11,14.97 -77.45,28.89 -115.1,41.93 -811.26,553.88 -884.96,440.78 -729.99,158.93 -244.25,22.48 -486.63,17.78 -765.23,12.37 -97.14,-1.88 -200.52,-3.9 -405.82,-3.9l0 -1.22c-216.49,0 -448.41,4.94 -682.72,9.87 -385.68,8.14 -778.06,16.41 -1147.34,4.21 -177.18,492.53 -503.91,1279.91 -746.73,1865.12 -95.83,230.97 -176.78,404.22 -226.71,513.48 11.71,7.76 25.76,16.58 43.44,27.05l30.09 17.83 26.12 24.97c94.52,90.35 182.96,189.88 274.76,293.2 173.05,194.78 360.19,405.44 503.53,469.43l51.82 23.13c359.68,353.87 723.3,705.94 1079.94,1062.58 53.15,57.07 110.53,114.1 169.55,172.74 125.98,125.18 258.82,257.2 362,390.07 140.06,180.35 202.54,365.6 213.52,567.5 9.6,175.91 -23.68,354.49 -77.98,551.84l-4.9 17.12 -41.4 123.99 -927.33 1148.14 -17.12 19.56c-116.07,121.75 -228.53,241.45 -335.49,355.26 -202.21,215.2 -384.86,409.61 -613.06,638.4 -311.36,312.25 -651.44,628.53 -1008.39,944.44 -367.19,324.98 -733.34,634.28 -1093.59,929.34 -1462.16,1197.69 -1593.6,1053.57 -2584.62,-33.57 -108.44,-118.95 -181.21,-199.44 -202.87,-222.87l-11 -12.22 -1651.8 -1981.01c-163.16,55.54 -401.16,153.72 -611.86,240.63 -166.49,68.67 -318.1,131.24 -402.62,161.48 -175.12,62.68 -371.94,117.49 -568.56,172.23 -162.94,45.36 -325.84,90.73 -476.63,142.26l-17.78 3641.26 -7.16 31.6c-231.81,1021.65 -904.75,1066.99 -1884.74,1132.97 -113.83,7.65 -233.12,15.72 -386.59,28.91 -475.08,40.89 -969.08,59 -1470.96,62.59 -493.2,3.53 -982.91,-7.61 -1464.76,-24.99l-149.06 -5.32c-291.25,-10.35 -550.95,-19.58 -764.07,-32.48 -1912.26,-115.94 -2098.68,-496.21 -1911.41,-3585.67l-3.95 -1244.74c-80.73,-28 -188.66,-64.65 -312.83,-106.8 -471.93,-160.22 -1159.14,-393.53 -1685.39,-632.95 -83.5,98.33 -163.5,194.16 -243.83,290.41 -143.3,171.68 -287.55,344.53 -455.37,535.83 -139.68,159.24 -281.39,339.19 -420.18,515.48 -136.05,172.74 -269.28,342 -425.84,518.92l-23.97 27.07c-1302.94,1472.96 -1360.61,1538.06 -2631.83,582.66 -1140.73,-857.37 -1547.01,-1277.29 -2059.9,-1807.43 -245.02,-253.23 -515.15,-532.42 -908.35,-901.67l-17.12 -18.34 -595.3 -658.25 -50.29 -24.83c-107.27,-52.95 -268.26,-217.38 -405.55,-393.93 -129.24,-166.18 -253.54,-359.43 -300.3,-486.48 -57.31,-155.85 -77.2,-304.18 -71,-444.77 5.76,-130.37 33.59,-249.66 74.54,-359.39 20.55,-92.79 54.43,-181.81 102.35,-267.91 50.91,-91.55 116.94,-178.51 198.99,-262.12l172.9 -172.59c14.46,-17.96 26.07,-31.68 37.56,-44.01 15.96,-17.14 35.25,-36.21 64.74,-64.57l71.17 -67.96 61.02 -57.6 1038.67 -1036.95c80.91,-76.21 149.51,-139.11 216.8,-200.79 182.54,-167.36 356.02,-326.4 510.07,-498.43l64.72 -72.28 91.7 -23.04c18.4,-4.61 30.18,-8.03 36.5,-11.26l-47.2 -80.97c-39.4,-67.07 -79.22,-134.81 -112.3,-197.4 -37.6,-71.19 -65.67,-131.75 -97.34,-199.99l-33.24 -71.44 -174.52 -264.82 -12.93 -37.34c-77.8,-225.07 -164.25,-429.25 -249.57,-630.75 -127.16,-300.39 -252.07,-595.41 -354.75,-965.51 -798.44,-25.65 -1436.29,-10.62 -1946.18,1.42 -2063.82,48.71 -2335.45,55.12 -2348.36,-2126.77 -2.95,-498.07 -4.68,-997.35 -5.74,-1497.08 -1.04,-498.61 -1.53,-997.3 -1.91,-1495.97 -0.11,-154.12 -5.88,-337.84 -11.93,-531.86 -25.59,-819.55 -56.72,-1815.61 299.06,-2360.8l30.22 -46.3 21.29 -16.23c338.9,-498.7 911.16,-485.24 2065.53,-458.01 509.91,12.04 1147.76,27.07 1946.18,1.42 102.7,-370.1 227.6,-665.1 354.75,-965.46 85.34,-201.52 171.77,-405.68 249.59,-630.8l12.93 -37.36 174.52 -264.8 33.24 -71.44c31.66,-68.25 59.73,-128.8 97.34,-199.99 33.1,-62.64 72.84,-130.22 112.21,-197.22l10.6 -18.05c-21.55,-27.23 -38.2,-46.32 -51.22,-58.22 -5.9,-5.39 -19.42,-9.73 -44.94,-16.14l-91.73 -23.08 -64.7 -72.24c-154.05,-172.03 -327.53,-331.07 -510.07,-498.43 -67.29,-61.68 -135.89,-124.59 -216.8,-200.79 -481.62,-481.62 -964.44,-962.05 -1446.06,-1443.67 -164.87,-167.93 -263.87,-346.64 -304.64,-545.48 -38.36,-187.18 -21.91,-380.94 42.42,-590.58 5.23,-29.05 11.46,-57.36 18.67,-84.83 10.86,-41.44 22.55,-79.38 35.03,-113.3 23.86,-64.85 66.21,-144.27 118.84,-228.13 46.01,-73.28 101.88,-152.94 160.17,-229.46l45.28 -76.65 930.79 -1029.25 17.12 -18.34c393.2,-369.25 663.32,-648.45 908.35,-901.67 512.89,-530.14 919.17,-950.05 2059.9,-1807.43 1271.22,-955.4 1328.89,-890.3 2631.83,582.66l23.97 27.07c156.56,176.91 289.79,346.17 425.84,518.92 138.8,176.29 280.5,356.24 420.18,515.48 167.62,191.1 311.94,363.98 455.17,535.59 80.4,96.32 160.48,192.25 244.03,290.65 526.28,-239.41 1213.46,-472.73 1685.41,-632.97 124.14,-42.15 232.08,-78.78 312.8,-106.8l3.95 -1244.72c-187.24,-3089.48 -0.84,-3469.76 1911.44,-3585.67 213.12,-12.9 472.8,-22.13 764.05,-32.48l149.06 -5.32c481.87,-17.36 971.56,-28.51 1464.76,-24.99 501.91,3.59 995.9,21.73 1470.96,62.59 153.48,13.19 272.76,21.26 386.59,28.91 979.98,65.98 1652.93,111.33 1884.74,1132.97l7.16 31.57 17.78 3641.28c150.79,51.53 313.69,96.89 476.63,142.26 196.62,54.74 393.44,109.55 568.56,172.23 84.52,30.24 236.13,92.81 402.62,161.48 210.7,86.91 448.7,185.09 611.86,240.63l1651.8 -1981.01 11 -12.22c21.64,-23.41 94.43,-103.92 202.87,-222.87 991.03,-1087.14 1122.46,-1231.26 2584.62,-33.57 360.25,295.09 726.4,604.35 1093.59,929.34 356.95,315.91 697.02,632.19 1008.39,944.44 228.2,228.79 410.85,423.2 613.06,638.4 106.96,113.81 219.42,233.52 335.49,355.26l17.12 19.56 926.75 1147.41 41.88 125.94 4.9 15.9c54.34,197.33 87.65,375.88 78.07,551.84 -10.98,201.94 -73.46,387.17 -213.52,567.5 -103.19,132.88 -236.02,264.89 -362,390.07 -59.02,58.65 -116.4,115.67 -169.55,172.74 -356.62,356.62 -720.19,708.8 -1079.94,1062.55l-51.82 23.15c-143.34,63.99 -330.48,274.65 -503.53,469.43 -91.79,103.32 -180.24,202.85 -274.76,293.2l-26.12 24.94 -30.09 17.85c-17.67,10.47 -31.73,19.29 -43.44,27.05 49.93,109.24 130.88,282.49 226.71,513.48 242.83,585.21 569.56,1372.59 746.73,1865.12 369.28,-12.19 761.66,-3.92 1147.34,4.21 234.31,4.92 466.24,9.87 682.72,9.87l0 -1.22zm415.57 619.4c-157.84,3.06 -325.69,6.34 -415.57,6.34l0 -1.22c-228.82,-0.02 -460.67,-4.94 -694.96,-9.87 -451.82,-9.53 -913.2,-19.27 -1336.6,6.92l-243.09 15.03 -73.46 -233.8c-129.33,-411.63 -524.55,-1364.03 -805.56,-2041.23 -185.07,-446.01 -324.31,-781.43 -326.93,-865.4l-5.72 -181.99 154.83 -94.21c45.21,-27.49 65.76,-43.99 86.09,-60.31 34.59,-27.74 68.91,-55.28 134.85,-96.14 62.75,-62.68 137.4,-146.71 214.58,-233.58 199.73,-224.83 414.55,-466.66 660.06,-596.05l986.77 -970.76c54.14,-58.02 118.58,-122.06 184.87,-187.93 108.51,-107.85 222.96,-221.57 308.26,-331.41 55.36,-71.28 79.91,-141.37 83.94,-215.54 5.34,-98.51 -17.41,-214.76 -54.26,-349.68l-1.84 -5.48 -850.17 -1052.6c-125.65,-131.88 -229.9,-242.81 -329.3,-348.61 -202.5,-215.51 -385.37,-410.14 -600.82,-626.16 -306.04,-306.88 -635.81,-613.79 -979.03,-917.57 -332.96,-294.67 -697.51,-601.77 -1076.52,-912.23 -1004.13,-822.52 -1088.74,-729.75 -1726.65,-29.98 -18.82,20.64 -38.69,42.44 -199.48,216.38l-1888.42 2264.77 -170.5 -24.08c-197.69,-27.94 -588.05,-188.95 -918.21,-325.15 -141.9,-58.53 -271.19,-111.86 -375.71,-149.28 -175.23,-62.72 -349.99,-111.39 -524.57,-159.99 -251.65,-70.06 -503.13,-140.08 -742.03,-240.72l-189.66 -79.91 -19.47 -3988.3c-138.53,-538.18 -617.94,-570.53 -1310.5,-617.16 -135.85,-9.13 -277.93,-18.74 -396.39,-28.91 -478.27,-41.15 -953.16,-59.24 -1422.05,-62.59 -477.59,-3.41 -960.85,7.69 -1440.32,24.99l-149.06 5.32c-272.5,9.67 -515.37,18.31 -749.37,32.48 -1349.51,81.82 -1478.37,392.27 -1324.74,2926.63 0,557.05 -3.53,1114.35 -5.25,1671.44l-152.21 90.46c-75.39,44.81 -289.21,117.4 -582.22,216.87 -523.04,177.6 -1320.15,448.23 -1825.07,705.72l-217.33 110.84 -160.3 -184.18c-123.25,-141.64 -264.34,-310.68 -406.26,-480.69 -155.38,-186.18 -311.92,-373.69 -445.37,-525.83 -166.58,-189.9 -305.82,-366.73 -442.18,-539.91 -138.71,-176.16 -274.65,-348.81 -401.4,-492.04l-23.97 -27.07c-937.84,-1060.2 -979.32,-1107.08 -1790.97,-497.08 -1097.39,824.8 -1490.43,1231.02 -1986.6,1743.88 -250.26,258.66 -526.12,543.75 -924.33,917.88l-869.37 961.32 -33.37 56.52 -13.86 17.96c-51.42,66.58 -100.66,136.18 -140.11,198.99 -29.25,46.58 -50.97,85.81 -60.18,110.84 -8.43,22.9 -14.35,41.02 -17.92,54.63 -5.01,19.09 -8.67,36.05 -10.98,50.75l-4.08 25.99 -6.94 21.66c-36.96,115.45 -48.76,212.99 -31.77,295.91 15.88,77.36 60.77,153.43 138.29,232.43l1429.1 1426.71c64.7,60.93 139.02,129.09 211.92,195.91 167.64,153.72 327.9,300.63 490.31,475.26 78.93,28.07 143.92,66.29 218.68,134.63 77.71,71.11 146.34,160.35 254.8,309.66l112.61 154.96 -88.18 171.35c-36.36,70.64 -78.64,142.61 -121.28,215.18 -31,52.73 -62.33,106.05 -97.58,172.74 -28.69,54.34 -54.08,109.04 -82.66,170.68l-50.8 108.31 -161.06 244.38c-82.13,233.07 -167.13,433.86 -251.1,632.15 -141.04,333.14 -279.08,659.13 -379.72,1096.32l-53.46 232.25 -238.64 9.73c-922.87,37.63 -1648.74,20.49 -2218.19,7.05 -948.5,-22.37 -1402.32,-33.08 -1549.65,210.52l-30.46 50.38 -24.68 18.8c-221.96,402.71 -195.36,1255.25 -173.32,1961.21 6.03,193.78 11.8,377.21 11.93,548.98 0.38,498.67 0.86,997.37 1.91,1495.97 1.04,497.45 2.77,995.55 5.74,1494.64 9.16,1546.06 207.02,1541.38 1710.38,1505.91 569.42,-13.44 1295.34,-30.58 2218.19,7.05l238.64 9.71 53.46 232.27c100.64,437.19 238.68,763.21 379.72,1096.37 83.94,198.29 168.95,399.05 251.08,632.1l161.06 244.36 50.8 108.33c28.58,61.64 53.94,116.34 82.66,170.68 35.32,66.8 66.65,120.13 97.67,172.92 56.96,96.94 113.23,192.7 165.8,307.44l76.72 167.38 -109.71 147.93c-90.99,122.72 -154.3,198.42 -223.92,255.36 -63.3,51.82 -121.35,83.46 -189.33,107.56 -162.39,174.61 -322.6,321.47 -490.25,475.19 -72.9,66.83 -147.22,134.98 -211.92,195.91l-1038.67 1036.95 -58.58 55.12 -68.73 65.52c-18.47,17.76 -30.49,29.64 -40.26,40.13 -10.64,11.42 -15.76,17.36 -20.27,23.06l-13.92 17.63 -188.71 188.35c-42.7,43.55 -75.45,85.87 -98.58,127.47 -20.35,36.58 -33.86,73.59 -40.84,111.37l-5.96 32.35 -9.91 25.08c-23.3,59.07 -39.22,120.26 -41.95,182.28 -2.68,61.13 6.96,128.38 34.32,202.79 18.27,49.64 73.72,137.09 142.03,230.99l17.87 -50.09 1053.33 1164.72c398.21,374.13 674.08,659.22 924.33,917.88 496.17,512.86 889.21,919.08 1986.6,1743.88 811.63,609.98 853.14,563.13 1790.97,-497.08l23.97 -27.07c126.76,-143.23 262.7,-315.89 401.4,-492.04 136.36,-173.19 275.6,-350.01 442.18,-539.91 133.45,-152.12 290.12,-339.85 445.57,-526.08 141.83,-169.9 282.92,-338.94 406.04,-480.45l160.28 -184.21 217.35 110.86c504.93,257.48 1302.03,528.12 1825.07,705.69 293.03,99.49 506.83,172.08 582.24,216.89l152.21 90.44c1.73,557.1 5.25,1114.39 5.25,1671.47 -153.65,2534.36 -24.79,2844.79 1324.72,2926.63 234,14.17 476.9,22.82 749.4,32.48l149.06 5.32c479.47,17.32 962.74,28.4 1440.32,24.99 468.9,-3.35 943.78,-21.42 1422.05,-62.59 118.47,-10.18 260.54,-19.78 396.39,-28.91 692.57,-46.63 1171.97,-78.98 1310.5,-617.16l19.47 -3988.32 189.66 -79.89c238.9,-100.64 490.38,-170.66 742.03,-240.72 174.58,-48.6 349.34,-97.27 524.57,-159.99 104.52,-37.43 233.8,-90.75 375.71,-149.28 330.16,-136.2 720.53,-297.22 918.21,-325.15l170.5 -24.1 1888.42 2264.79c160.81,173.96 180.66,195.74 199.48,216.38 637.91,699.77 722.52,792.54 1726.65,-29.98 379.01,-310.41 743.54,-617.52 1076.52,-912.23 343.22,-303.78 672.99,-610.69 979.03,-917.57 215.45,-216.02 398.32,-410.65 600.82,-626.16 99.4,-105.81 203.65,-216.73 329.3,-348.61l849.61 -1051.89 4.3 -12.9c35.74,-132.03 57.63,-246.07 52.35,-342.96 -4.04,-74.14 -28.58,-144.23 -83.94,-215.54 -85.3,-109.84 -199.75,-223.56 -308.26,-331.41 -66.29,-65.87 -130.73,-129.91 -184.87,-187.93l-986.77 -970.76c-245.51,-129.4 -460.34,-371.23 -660.06,-596.05 -77.18,-86.87 -151.83,-170.9 -214.58,-233.58 -65.94,-40.86 -100.26,-68.4 -134.85,-96.14 -20.33,-16.32 -40.91,-32.81 -86.09,-60.31l-154.83 -94.23 5.72 -181.97c2.62,-83.92 141.86,-419.39 326.93,-865.4 281.01,-677.2 676.23,-1629.61 805.56,-2041.23l73.46 -233.83 243.09 15.05c423.4,26.19 884.78,16.45 1336.6,6.92 234.29,-4.92 466.15,-9.84 694.96,-9.87l0 -1.22c89.89,0 257.73,3.28 415.57,6.34 458.12,8.89 804.51,15.59 1235.14,-123.63 52.39,-40.38 108.51,-82.75 168.71,-127.33l12.08 -12.24 1.97 1.91 5.17 -3.79c213.94,-507.28 181.17,-1492.14 154.41,-2295.37 -7.8,-233.87 -15.12,-453.04 -15.7,-654.3 -1,-343 -0.07,-687.2 0.86,-1031.67 1.75,-653.1 3.55,-1307.44 -8.18,-1959.24l-20.24 1.77 -45.39 -289.24c-15.59,-99.44 -35.87,-195.49 -61.75,-286.64 -15.68,-55.23 -33.08,-106.4 -52.41,-152.88l-4.94 -3.61 -1.97 1.91 -12.06 -12.24c-60.13,-44.57 -116.23,-86.94 -168.51,-127.27 -430.72,-139.31 -777.15,-132.59 -1235.36,-123.7z"/>
  <path class="fil2" d="M9214.17 9834.44c2046.82,-2054.71 4886.71,-3337.61 8034.35,-3361.58 3146.13,-23.95 6004.36,1215.45 8082,3238.55 2078.75,2024.16 3376.35,4833.45 3400.05,7947.9 23.68,3112.88 -1230.88,5940.71 -3278.37,7996.1 -2046.8,2054.71 -4886.67,3337.63 -8034.33,3361.58 -3146.13,23.95 -6004.32,-1215.41 -8082,-3238.55 -2078.75,-2024.16 -3376.32,-4833.43 -3400.05,-7947.88 -23.68,-3112.88 1230.86,-5940.73 3278.35,-7996.13z"/>
  <path class="fil2" d="M17250.96 7096.16c-2974.77,22.66 -5659.16,1235.58 -7594.37,3178.26 -1934.52,1942.01 -3119.84,4613.39 -3097.47,7553.7 22.37,2938.76 1248.16,5590.87 3211.85,7503.02 1964.76,1913.19 4668.16,3085.18 7644.45,3062.54 2974.79,-22.64 5659.16,-1235.58 7594.35,-3178.26 1934.52,-1942.01 3119.86,-4613.37 3097.49,-7553.68 -22.35,-2938.76 -1248.16,-5590.9 -3211.85,-7503.04 -1964.74,-1913.14 -4668.16,-3085.18 -7644.45,-3062.54z"/>
  <path class="fil3" d="M17242.67 7102.37c-2974.77,22.66 -5659.16,1235.58 -7594.37,3178.26 -1934.52,1942.01 -3119.84,4613.39 -3097.47,7553.7 22.37,2938.76 1248.16,5590.87 3211.85,7503.02 1964.76,1913.19 4668.16,3085.18 7644.45,3062.54 2974.79,-22.64 5659.16,-1235.58 7594.35,-3178.26 1934.52,-1942.01 3119.86,-4613.37 3097.49,-7553.68 -22.35,-2938.76 -1248.16,-5590.9 -3211.85,-7503.04 -1964.74,-1913.14 -4668.16,-3085.18 -7644.45,-3062.54zm-8036.79 2738.28c2046.82,-2054.71 4886.71,-3337.61 8034.35,-3361.58 3146.13,-23.95 6004.36,1215.45 8082,3238.55 2078.75,2024.16 3376.35,4833.45 3400.05,7947.9 23.68,3112.88 -1230.88,5940.71 -3278.37,7996.1 -2046.8,2054.71 -4886.67,3337.63 -8034.33,3361.58 -3146.13,23.95 -6004.32,-1215.41 -8082,-3238.55 -2078.75,-2024.16 -3376.32,-4833.43 -3400.05,-7947.88 -23.68,-3112.88 1230.86,-5940.73 3278.35,-7996.13z"/>
  <path class="fil4 str0" d="M17171.45 7960.54l6106.8 9043.89c485.08,930.39 728.46,1960.19 709.33,3000.8 -65.43,3546.87 -3101.32,6367.23 -6781.01,6299.49 -3679.68,-67.76 -6609.66,-2998.11 -6544.36,-6544.98 20.13,-1092.64 329.19,-2162.09 897.86,-3106.84l5611.38 -8692.35z"/>
  <path class="fil5" d="M17162.83 12471.52l3388.34 6006.42c262.87,504.19 394.77,1062.27 384.4,1626.19 -35.45,1922.12 -1680.67,3450.53 -3674.76,3413.82 -1994.09,-36.72 -3581.9,-1624.73 -3546.52,-3546.85 10.91,-592.13 178.4,-1171.68 486.57,-1683.66l2961.97 -5815.92z"/>
  <path class="fil1" d="M41944.5 24066.29c-657.67,0 -1262.72,-130.37 -1819.2,-391.12 -556.48,-260.77 -1034.04,-649.18 -1432.67,-1165.26 -400.67,-513.35 -710.28,-1157.1 -928.83,-1928.49 -220.57,-771.41 -329.85,-1662.33 -329.85,-2672.74 0,-939.81 105.25,-1792.7 313.67,-2558.66 210.46,-765.96 516.01,-1423.29 914.67,-1969.24 384.46,-526.94 860.01,-934.38 1426.6,-1219.58 568.63,-287.9 1187.83,-431.87 1861.7,-431.87 370.3,0 706.2,27.16 1005.7,84.19 297.46,54.34 574.68,127.67 827.64,217.31 265.07,103.21 503.86,214.58 720.39,339.52 216.51,124.94 404.71,239.02 566.59,347.68l0 2873.73 -261.03 0c-111.3,-127.67 -250.92,-277.06 -418.88,-450.89 -167.95,-173.83 -358.19,-344.95 -572.68,-513.35 -216.51,-168.42 -453.26,-309.66 -706.2,-426.46 -252.96,-116.78 -524.1,-173.83 -811.48,-173.83 -321.74,0 -625.28,67.91 -914.64,203.72 -289.37,133.1 -556.48,358.55 -801.32,670.91 -232.72,304.2 -422.93,703.48 -566.61,1200.55 -143.68,499.78 -216.53,1105.48 -216.53,1814.41 0,744.25 78.93,1363.54 234.74,1863.32 155.83,497.05 352.12,890.9 590.89,1176.1 240.81,293.36 509.96,499.78 805.38,624.72 297.48,124.96 590.89,187.42 878.24,187.42 277.24,0 552.42,-54.32 823.58,-165.69 269.15,-108.64 520.07,-258.04 750.75,-448.16 192.23,-152.1 372.34,-312.36 538.27,-486.19 165.94,-173.85 303.54,-323.22 410.78,-448.19l236.75 0 0 2830.29c-220.57,130.37 -433.04,255.31 -635.39,372.11 -200.35,116.78 -412.82,217.29 -635.41,301.5 -287.35,111.37 -558.49,195.56 -811.45,255.31 -252.94,57.05 -601,86.91 -1044.15,86.91z"/>
  <path id="1" class="fil1" d="M53250.17 23821.84l-2136.88 0 0 -988.7c-394.6,404.71 -754.81,708.93 -1082.62,918.08 -325.8,209.15 -716.34,315.07 -1169.6,315.07 -732.54,0 -1299.15,-282.47 -1693.73,-850.17 -396.64,-567.67 -594.94,-1404.27 -594.94,-2512.48l0 -5812.64 2136.9 0 0 4427.39c0,450.89 10.11,825.71 32.37,1124.5 22.24,301.5 72.84,548.67 151.77,744.23 74.85,195.58 188.2,339.52 339.94,429.16 151.77,89.64 364.24,135.8 637.45,135.8 180.08,0 382.45,-46.16 603.01,-135.8 220.57,-89.64 435.06,-222.72 639.44,-396.57l0 -6328.72 2136.88 0 0 8930.84z"/>
  <path id="2" class="fil1" d="M60089.82 17628.93l-188.2 0c-91.04,-43.46 -236.75,-76.07 -439.1,-97.8 -200.32,-21.73 -368.3,-32.59 -501.84,-32.59 -303.54,0 -570.67,27.16 -803.36,78.78 -232.72,54.32 -483.64,143.96 -750.75,271.63l0 5972.9 -2136.9 0 0 -8930.84 2136.9 0 0 1311.9c469.47,-540.51 876.2,-899.06 1224.26,-1078.32 346.04,-176.56 665.76,-266.18 957.15,-266.18 74.88,0 159.86,2.7 252.94,8.14 95.12,5.43 178.09,13.59 248.9,24.46l0 2737.92z"/>
  <path id="3" class="fil1" d="M67083.28 20988.85c0,923.51 -307.57,1667.74 -924.78,2230 -615.17,564.97 -1458.99,847.44 -2529.44,847.44 -592.93,0 -1131.2,-73.32 -1612.8,-222.72 -481.6,-146.67 -868.1,-312.36 -1161.53,-491.62l0 -2349.51 196.29 0c105.23,100.51 228.66,209.15 368.28,328.66 141.66,119.51 339.96,247.17 594.94,385.71 222.59,119.51 471.49,225.45 752.77,312.36 279.24,86.91 580.78,130.37 900.48,130.37 416.86,0 726.47,-62.48 928.83,-187.42 200.32,-124.94 301.5,-309.63 301.5,-554.1 0,-217.29 -58.67,-374.84 -178.06,-472.62 -117.36,-97.78 -344,-190.13 -675.87,-282.47 -157.84,-46.18 -372.34,-97.78 -643.48,-154.83 -269.17,-54.32 -516.03,-122.23 -736.6,-200.99 -605.03,-211.88 -1054.26,-543.24 -1345.67,-991.43 -293.4,-448.16 -439.12,-1005 -439.12,-1673.17 0,-858.3 303.54,-1572.67 910.61,-2140.36 607.07,-570.4 1436.73,-855.6 2486.96,-855.6 497.81,0 975.37,67.91 1432.7,203.72 457.32,135.8 813.47,279.77 1070.47,434.6l0 2262.57 -184.14 0c-315.69,-293.34 -675.87,-532.37 -1080.6,-717.07 -404.71,-184.69 -815.49,-277.04 -1230.33,-277.04 -344,0 -633.37,62.46 -868.08,190.13 -234.76,127.67 -352.12,309.66 -352.12,543.24 0,211.85 52.61,372.11 159.86,483.48 107.25,111.37 358.17,222.72 752.79,334.09 218.53,59.75 451.22,116.8 702.17,171.12 250.9,54.32 503.86,124.94 756.8,211.85 560.53,195.58 975.37,502.51 1244.5,923.51 269.13,423.73 402.69,947.95 402.69,1578.1z"/>
  <path id="4" class="fil1" d="M72538.82 21488.63l0 -1871.46c-287.33,32.59 -596.94,76.05 -930.83,133.1 -333.89,54.32 -586.83,119.51 -758.84,195.56 -212.48,89.64 -374.38,222.74 -485.66,393.87 -111.28,173.83 -167.95,401.98 -167.95,684.48 0,187.42 12.15,336.79 34.39,456.32 24.28,116.78 82.97,228.15 178.09,334.09 89.04,105.94 198.31,184.69 323.76,236.31 125.47,51.59 321.76,76.05 588.87,76.05 212.48,0 426.97,-59.75 643.5,-176.56 218.55,-116.8 410.78,-271.61 574.68,-461.76zm0 1385.27c-113.32,116.78 -257,258.04 -424.95,423.73 -169.97,162.96 -329.83,293.34 -479.56,388.41 -208.44,127.64 -424.95,222.72 -649.58,285.2 -224.6,62.46 -471.49,95.05 -740.61,95.05 -629.33,0 -1157.49,-263.47 -1582.45,-790.41 -426.97,-526.92 -639.44,-1197.83 -639.44,-2018.13 0,-654.59 109.29,-1189.69 325.8,-1602.56 216.53,-415.57 524.08,-744.23 920.72,-983.24 394.6,-239.04 884.29,-410.16 1467.08,-510.65 582.79,-100.51 1187.85,-173.85 1815.14,-222.74l0 -48.89c0,-491.62 -149.75,-833.87 -449.23,-1021.29 -299.48,-187.42 -740.61,-282.47 -1323.41,-282.47 -350.08,0 -724.45,84.19 -1121.07,249.88 -398.63,168.4 -683.97,296.06 -857.99,385.71l-194.25 0 0 -2162.09c224.6,-78.78 590.86,-173.83 1096.77,-282.49 505.9,-108.64 1013.8,-162.96 1521.72,-162.96 1210.09,0 2084.27,249.9 2620.52,752.39 538.27,502.49 807.42,1290.19 807.42,2365.81l0 6089.7 -2112.62 0 0 -947.95z"/>
  <polygon id="5" class="fil1" points="78755.23,23821.84 76618.33,23821.84 76618.33,11436 78755.23,11436 "/>
  <path id="6" class="fil1" d="M84799.62 21488.63l0 -1871.46c-287.33,32.59 -596.94,76.05 -930.83,133.1 -333.89,54.32 -586.83,119.51 -758.84,195.56 -212.45,89.64 -374.35,222.74 -485.64,393.87 -111.3,173.83 -167.95,401.98 -167.95,684.48 0,187.42 12.13,336.79 34.39,456.32 24.28,116.78 82.97,228.15 178.06,334.09 89.04,105.94 198.31,184.69 323.78,236.31 125.47,51.59 321.74,76.05 588.85,76.05 212.48,0 426.99,-59.75 643.5,-176.56 218.55,-116.8 410.8,-271.61 574.68,-461.76zm0 1385.27c-113.3,116.78 -256.97,258.04 -424.93,423.73 -169.99,162.96 -329.85,293.34 -479.58,388.41 -208.44,127.64 -424.95,222.72 -649.58,285.2 -224.6,62.46 -471.49,95.05 -740.61,95.05 -629.33,0 -1157.49,-263.47 -1582.45,-790.41 -426.97,-526.92 -639.44,-1197.83 -639.44,-2018.13 0,-654.59 109.29,-1189.69 325.8,-1602.56 216.53,-415.57 524.1,-744.23 920.72,-983.24 394.6,-239.04 884.31,-410.16 1467.08,-510.65 582.79,-100.51 1187.85,-173.85 1815.14,-222.74l0 -48.89c0,-491.62 -149.73,-833.87 -449.23,-1021.29 -299.48,-187.42 -740.61,-282.47 -1323.41,-282.47 -350.08,0 -724.45,84.19 -1121.07,249.88 -398.63,168.4 -683.94,296.06 -857.99,385.71l-194.25 0 0 -2162.09c224.63,-78.78 590.89,-173.83 1096.77,-282.49 505.9,-108.64 1013.8,-162.96 1521.72,-162.96 1210.11,0 2084.29,249.9 2620.52,752.39 538.27,502.49 807.42,1290.19 807.42,2365.81l0 6089.7 -2112.62 0 0 -947.95z"/>
 </g>
</svg>
