<?xml version="1.0" encoding="UTF-8"?>
<!DOCTYPE svg PUBLIC "-//W3C//DTD SVG 1.1//EN" "http://www.w3.org/Graphics/SVG/1.1/DTD/svg11.dtd">
<!-- Creator: CorelDRAW 2019 (64-Bit) -->
<svg xmlns="http://www.w3.org/2000/svg" xml:space="preserve" width="50.7056mm" height="48.8893mm" version="1.1" style="shape-rendering:geometricPrecision; text-rendering:geometricPrecision; image-rendering:optimizeQuality; fill-rule:evenodd; clip-rule:evenodd"
viewBox="0 0 66.28 63.91"
 xmlns:xlink="http://www.w3.org/1999/xlink">
 <defs>
  <style type="text/css">
   <![CDATA[
    .fil2 {fill:#0DD1C6}
    .fil1 {fill:white}
    .fil0 {fill:white;fill-rule:nonzero}
   ]]>
  </style>
 </defs>
 <g id="Layer_x0020_1">
  <metadata id="CorelCorpID_0Corel-Layer"/>
  <g id="_2058924457856">
   <path class="fil0" d="M19.09 3.12c2.16,-1.02 4.46,-1.8 6.85,-2.34 2.33,-0.52 4.74,-0.79 7.21,-0.79 9.15,0 17.44,3.71 23.43,9.71 6,6 9.71,14.28 9.71,23.43 0,5.38 -1.28,10.46 -3.56,14.96 -2.36,4.67 -5.8,8.7 -9.98,11.77l-0.54 -0.74c4.07,-2.99 7.41,-6.91 9.71,-11.44 2.21,-4.37 3.46,-9.31 3.46,-14.54 0,-8.9 -3.61,-16.95 -9.44,-22.78 -5.83,-5.83 -13.89,-9.44 -22.78,-9.44 -2.41,0 -4.76,0.26 -7.01,0.76 -2.32,0.52 -4.55,1.28 -6.66,2.27l-0.39 -0.83z"/>
   <path class="fil0" d="M15.12 60.96c-4.63,-3.01 -8.47,-7.14 -11.12,-12.01 -2.55,-4.7 -4.01,-10.08 -4.01,-15.8 0,-3.19 0.45,-6.28 1.3,-9.21 0.87,-3.02 2.17,-5.87 3.81,-8.47l0.78 0.49c-1.6,2.53 -2.86,5.3 -3.71,8.24 -0.82,2.84 -1.26,5.84 -1.26,8.96 0,5.57 1.41,10.8 3.89,15.36 2.57,4.74 6.3,8.76 10.81,11.68l-0.5 0.77z"/>
   <path class="fil1" d="M36.05 40.66c0.71,-0.61 5.72,-9.62 7.05,-10.45 1.08,-0.66 3.57,0.13 5.96,-2.78 1.13,-1.38 2.57,-4.43 1.04,-6.45 -2.65,-3.49 -9.87,1.9 -8.86,6.31 0.42,1.84 0.73,1.67 -0.21,3.4 -0.51,0.95 -4.63,7.28 -5.49,7.75 0.07,-3.24 -0.38,-8.24 -0.19,-11.18 0.09,-1.4 0.64,-1.89 1.45,-2.45 2.1,-1.46 1.92,-2.72 1.44,-5.73 -0.18,-1.16 -1.02,-5.45 -1.47,-6.14 -0.78,1.99 -0.1,7.5 -0.53,8.43l-0.66 0.09c-0.45,-0.84 -0.21,-4.57 -0.41,-6.47l-0.22 -1.78c-0.07,-0.19 -0.06,-0.14 -0.12,-0.21 -0.89,1.93 -0.43,7.51 -0.75,8.42l-0.73 -0.06c-0.44,-1.38 0.33,-7.36 -0.62,-8.43 -0.51,1.02 -1.29,5.71 -1.49,7.11 -0.18,1.29 -0.33,2.64 0.33,3.63 0.67,1 1.71,1.23 2.27,2.05 0.73,1.06 0.33,6.6 0.29,8.31 -0.02,0.86 -0.29,3.5 0.02,4.1 0.45,0.87 1.44,1.77 1.88,2.53zm-31.4 3.21c-1.07,0.49 -0.44,1.7 0.75,1.76 2.54,0.13 8.55,0.02 11.3,0.02 6.11,-0.01 44.34,0.16 44.93,-0.12 0.32,-0.15 0.67,-0.61 0.52,-1.16 -0.14,-0.53 -0.58,-0.62 -1.28,-0.63l-26.35 0.04c-3.1,-0.01 -29.25,-0.2 -29.87,0.09zm24.88 -0.86l2.12 -0.02c-0.28,-0.5 -4,-3.72 -4.65,-4.33 -0.56,-0.52 -0.97,-0.99 -1.58,-1.52l-4.34 -4.74c-1.07,-1.45 -0.47,-0.89 -0.34,-2.24 0.11,-1.11 -0.87,-1.76 -1.85,-2.76 -2.21,-2.26 -8.29,-9.35 -10.09,-9.7 -2.29,-0.45 -0.77,3.13 -0.34,3.98 1.05,2.08 3.42,5.56 4.83,7.35 0.38,0.48 2.4,3.16 2.78,3.32 1.35,0.57 1.29,-1.23 4.25,1.6l8.01 8.7c0.42,0.44 0.38,0.39 1.2,0.38zm8.36 8.13c-0.14,-0.27 -0.62,-0.84 -0.83,-1.07 -2.03,-2.23 -1,-1.83 -4.1,-1.84 -7.62,-0.02 -16.63,-0.17 -24,0.03 0.11,1.07 2.9,2.79 4.96,2.93 3.16,0.21 12.14,0.03 15.94,0.03 1.35,0 7.18,0.09 8.03,-0.07zm-12.29 -26.36c-0.58,0.04 -0.86,-0.54 -1.34,-1.21 -0.46,-0.64 -2.87,-4.44 -3.37,-4.55 -0.19,0.44 1.28,2.8 1.57,3.35 0.58,1.08 2.12,2.98 1.75,3.35 -0.82,0.36 -1.91,-2.02 -2.35,-2.75 -0.4,-0.68 -1.58,-2.97 -2.15,-3.17 -0.2,0.76 2.32,5.82 2.77,6.65 0.5,0.93 1.16,2.31 1.87,2.88 1.1,0.88 1.72,-0.32 3.08,1.79 1.99,3.08 5.32,9.28 7.36,11.87l2.1 0.02c-0.17,-0.59 -0.96,-1.42 -1.34,-1.86 -1.47,-1.72 -7.02,-9.8 -7.39,-11.64 -0.19,-0.98 0.41,-1.64 0.43,-2.58 0.02,-0.95 -1.86,-3.27 -2.35,-3.92 -0.93,-1.23 -1.9,-2.38 -2.82,-3.6 -0.13,-0.18 -1.57,-2.03 -1.23,-0.79 0.44,1.63 3.81,5.17 3.39,6.15zm31.3 23.49l-19.37 -0.03c0.02,0.38 0.34,0.54 0.61,0.85 1.03,1.18 1.49,2.08 2.67,2.1 1.89,0.04 11.32,0.17 12.52,-0.22 1.22,-0.4 3.25,-1.7 3.57,-2.71z"/>
   <path class="fil2" d="M33.04 63.9c3.05,-0.11 4.9,-0.78 6.4,-2.45 1.08,-1.21 1.99,-3.12 2.8,-3.84 0.36,-0.32 1.07,-0.62 1.32,-0.98 -3.7,-0 -7.25,1.19 -9.19,4.07 -0.48,0.71 -1.24,2.14 -1.33,3.21z"/>
   <path class="fil2" d="M32.94 63.91c-0.29,-2.41 -2.06,-4.29 -3.46,-5.28 -1.26,-0.89 -4.66,-2.18 -6.75,-1.82 0.37,0.6 0.78,-0.14 2.31,1.94 1.83,2.48 3.14,5.09 7.9,5.16z"/>
  </g>
 </g>
</svg>
