<?xml version="1.0" encoding="UTF-8"?>
<!DOCTYPE svg PUBLIC "-//W3C//DTD SVG 1.1//EN" "http://www.w3.org/Graphics/SVG/1.1/DTD/svg11.dtd">
<!-- Creator: CorelDRAW 2019 (64-Bit) -->
<svg xmlns="http://www.w3.org/2000/svg" xml:space="preserve" width="244.003mm" height="48.8893mm" version="1.1" style="shape-rendering:geometricPrecision; text-rendering:geometricPrecision; image-rendering:optimizeQuality; fill-rule:evenodd; clip-rule:evenodd"
viewBox="0 0 1534.89 307.54"
 xmlns:xlink="http://www.w3.org/1999/xlink">
 <defs>
  <style type="text/css">
   <![CDATA[
    .fil2 {fill:#0DD1C6}
    .fil1 {fill:white}
    .fil0 {fill:white;fill-rule:nonzero}
   ]]>
  </style>
 </defs>
 <g id="Layer_x0020_1">
  <metadata id="CorelCorpID_0Corel-Layer"/>
  <g id="_2059055573296">
   <path class="fil0" d="M91.84 15.04c10.42,-4.89 21.45,-8.68 32.94,-11.24 11.19,-2.49 22.8,-3.8 34.7,-3.8 44.04,0 83.91,17.85 112.77,46.71 28.86,28.86 46.71,68.73 46.71,112.77 0,25.89 -6.18,50.34 -17.14,71.97 -11.38,22.45 -27.91,41.85 -48.04,56.64l-2.62 -3.57c19.57,-14.38 35.64,-33.23 46.7,-55.06 10.65,-21.01 16.65,-44.79 16.65,-69.97 0,-42.81 -17.35,-81.58 -45.41,-109.63 -28.06,-28.06 -66.82,-45.41 -109.63,-45.41 -11.61,0 -22.9,1.27 -33.74,3.68 -11.18,2.48 -21.9,6.17 -32.03,10.92l-1.87 -4z"/>
   <path class="fil0" d="M72.76 293.33c-22.29,-14.47 -40.74,-34.36 -53.49,-57.81 -12.29,-22.61 -19.28,-48.52 -19.28,-76.04 0,-15.36 2.18,-30.24 6.25,-44.33 4.2,-14.55 10.43,-28.25 18.33,-40.76l3.75 2.36c-7.7,12.17 -13.75,25.49 -17.83,39.63 -3.95,13.66 -6.06,28.12 -6.06,43.1 0,26.78 6.78,51.96 18.72,73.93 12.39,22.79 30.34,42.14 52.02,56.21l-2.41 3.71z"/>
   <path class="fil1" d="M173.5 195.67c3.44,-2.93 27.51,-46.3 33.94,-50.27 5.18,-3.2 17.17,0.61 28.66,-13.4 5.45,-6.64 12.39,-21.34 5.02,-31.04 -12.77,-16.8 -47.48,9.13 -42.63,30.39 2.02,8.83 3.51,8.02 -0.99,16.37 -2.47,4.59 -22.27,35.05 -26.41,37.28 0.33,-15.58 -1.81,-39.66 -0.9,-53.79 0.44,-6.72 3.1,-9.09 6.99,-11.79 10.11,-7.02 9.24,-13.08 6.95,-27.57 -0.88,-5.58 -4.9,-26.24 -7.09,-29.56 -3.77,9.6 -0.47,36.1 -2.56,40.55l-3.2 0.41c-2.17,-4.05 -1.01,-22 -1.98,-31.14l-1.05 -8.57c-0.33,-0.9 -0.28,-0.65 -0.57,-1 -4.3,9.3 -2.05,36.16 -3.62,40.53l-3.51 -0.28c-2.12,-6.63 1.57,-35.39 -2.99,-40.58 -2.47,4.91 -6.23,27.46 -7.15,34.21 -0.84,6.18 -1.59,12.71 1.59,17.45 3.23,4.82 8.21,5.94 10.9,9.87 3.52,5.12 1.6,31.76 1.4,39.98 -0.1,4.14 -1.42,16.82 0.09,19.75 2.16,4.19 6.93,8.53 9.07,12.18zm-151.11 15.43c-5.16,2.34 -2.11,8.17 3.61,8.46 12.21,0.64 41.15,0.11 54.36,0.1 29.4,-0.03 213.39,0.79 216.2,-0.57 1.53,-0.74 3.2,-2.91 2.48,-5.6 -0.69,-2.56 -2.78,-3 -6.15,-3.01l-126.78 0.21c-14.92,-0.06 -140.74,-0.94 -143.72,0.41zm119.75 -4.13l10.22 -0.11c-1.37,-2.42 -19.25,-17.92 -22.4,-20.84 -2.71,-2.51 -4.66,-4.75 -7.58,-7.34l-20.89 -22.79c-5.15,-6.97 -2.28,-4.29 -1.64,-10.79 0.53,-5.33 -4.21,-8.49 -8.9,-13.28 -10.63,-10.87 -39.89,-44.98 -48.56,-46.7 -11.03,-2.19 -3.71,15.07 -1.66,19.14 5.04,10 16.48,26.77 23.24,35.35 1.83,2.32 11.55,15.19 13.38,15.97 6.5,2.76 6.22,-5.91 20.45,7.72l38.57 41.85c2.02,2.13 1.85,1.86 5.75,1.81zm40.25 39.12c-0.65,-1.3 -2.98,-4.04 -4.01,-5.17 -9.77,-10.71 -4.82,-8.8 -19.73,-8.85 -36.68,-0.12 -80.04,-0.79 -115.48,0.13 0.55,5.16 13.94,13.44 23.85,14.09 15.23,0.99 58.4,0.12 76.72,0.13 6.49,0 34.57,0.42 38.65,-0.33zm-59.15 -126.84c-2.78,0.2 -4.12,-2.61 -6.43,-5.82 -2.2,-3.06 -13.8,-21.35 -16.2,-21.88 -0.91,2.1 6.15,13.46 7.58,16.13 2.78,5.19 10.21,14.36 8.42,16.1 -3.95,1.72 -9.19,-9.71 -11.29,-13.23 -1.94,-3.26 -7.59,-14.27 -10.33,-15.25 -0.95,3.65 11.18,27.99 13.32,31.99 2.38,4.45 5.58,11.12 9.01,13.87 5.3,4.25 8.3,-1.54 14.83,8.61 9.56,14.84 25.59,44.68 35.41,57.14l10.09 0.09c-0.84,-2.82 -4.63,-6.84 -6.44,-8.94 -7.07,-8.25 -33.8,-47.14 -35.56,-56.02 -0.94,-4.71 1.98,-7.9 2.09,-12.44 0.11,-4.57 -8.94,-15.72 -11.31,-18.86 -4.46,-5.92 -9.13,-11.47 -13.59,-17.3 -0.64,-0.84 -7.53,-9.79 -5.91,-3.78 2.12,7.85 18.32,24.88 16.31,29.6zm150.64 113.02l-93.23 -0.14c0.08,1.84 1.62,2.59 2.95,4.11 4.98,5.67 7.15,9.99 12.84,10.11 9.11,0.19 54.47,0.83 60.25,-1.06 5.87,-1.91 15.64,-8.19 17.19,-13.02z"/>
   <path class="fil2" d="M158.97 307.49c14.67,-0.54 23.57,-3.76 30.8,-11.81 5.21,-5.8 9.56,-15.01 13.46,-18.48 1.74,-1.55 5.15,-3 6.34,-4.72 -17.82,-0.02 -34.9,5.74 -44.21,19.58 -2.3,3.42 -5.97,10.29 -6.4,15.44z"/>
   <path class="fil2" d="M158.51 307.54c-1.39,-11.61 -9.92,-20.66 -16.65,-25.41 -6.05,-4.27 -22.43,-10.5 -32.48,-8.75 1.77,2.89 3.74,-0.66 11.13,9.32 8.83,11.93 15.12,24.5 38,24.84z"/>
  </g>
  <polygon class="fil0" points="366.96,212.2 366.96,106.35 316.58,106.35 316.58,92.59 432.2,92.59 432.2,106.35 381.83,106.35 381.83,212.2 "/>
  <path id="1" class="fil0" d="M464.64 201.55c12.35,0 22.45,-3.33 30.25,-10.02 7.8,-6.66 11.69,-15.16 11.69,-25.48 0,-10.24 -3.92,-18.71 -11.76,-25.45 -7.84,-6.69 -17.9,-10.06 -30.18,-10.06 -12.28,0 -22.3,3.33 -30.07,10.02 -7.77,6.66 -11.65,15.16 -11.65,25.48 0,10.32 3.88,18.83 11.65,25.48 7.77,6.69 17.79,10.02 30.07,10.02zm0 13.54c-16.46,0 -30.03,-4.66 -40.65,-13.98 -10.61,-9.28 -15.94,-20.97 -15.94,-35.06 0,-14.13 5.29,-25.82 15.87,-35.03 10.61,-9.21 24.19,-13.8 40.72,-13.8 16.68,0 30.33,4.59 40.94,13.76 10.58,9.17 15.87,20.86 15.87,35.06 0,14.17 -5.33,25.85 -15.94,35.14 -10.62,9.28 -24.23,13.91 -40.87,13.91z"/>
  <path id="2" class="fil0" d="M598.49 106.35l-36.43 0 0 92.09 36.43 0c14.72,0 26.33,-4.14 34.77,-12.39 8.47,-8.28 12.69,-19.45 12.69,-33.55 0,-13.87 -4.29,-25.04 -12.91,-33.47 -8.58,-8.47 -20.12,-12.69 -34.54,-12.69zm0 -13.76c18.83,0 33.99,5.55 45.49,16.68 11.5,11.13 17.27,25.59 17.27,43.46 0,17.98 -5.66,32.4 -16.98,43.24 -11.35,10.84 -26.59,16.24 -45.79,16.24l-51.3 0 0 -119.61 51.3 0z"/>
  <path id="3" class="fil0" d="M733.78 201.55c12.35,0 22.45,-3.33 30.25,-10.02 7.8,-6.66 11.69,-15.16 11.69,-25.48 0,-10.24 -3.92,-18.71 -11.76,-25.45 -7.84,-6.69 -17.9,-10.06 -30.18,-10.06 -12.28,0 -22.3,3.33 -30.07,10.02 -7.77,6.66 -11.65,15.16 -11.65,25.48 0,10.32 3.88,18.83 11.65,25.48 7.77,6.69 17.79,10.02 30.07,10.02zm0 13.54c-16.46,0 -30.03,-4.66 -40.65,-13.98 -10.61,-9.28 -15.94,-20.97 -15.94,-35.06 0,-14.13 5.29,-25.82 15.87,-35.03 10.61,-9.21 24.19,-13.8 40.72,-13.8 16.68,0 30.33,4.59 40.94,13.76 10.58,9.17 15.87,20.86 15.87,35.06 0,14.17 -5.33,25.85 -15.94,35.14 -10.62,9.28 -24.23,13.91 -40.87,13.91z"/>
  <path id="4" class="fil0" d="M907.98 179.8l0 -17.53 -32.62 0 0 -13.76 47.49 0 0 35.95c-5.77,9.95 -13.31,17.57 -22.6,22.89 -9.28,5.29 -19.82,7.95 -31.59,7.95 -17.9,0 -32.7,-5.92 -44.38,-17.72 -11.65,-11.8 -17.49,-26.78 -17.49,-44.94 0,-18.2 5.84,-33.21 17.53,-45.01 11.72,-11.8 26.48,-17.72 44.31,-17.72 11.06,0 21.16,2.4 30.25,7.25 9.1,4.85 16.5,11.76 22.19,20.71l-12.43 8.88c-3.77,-7.14 -9.17,-12.76 -16.27,-16.79 -7.06,-4.03 -14.98,-6.07 -23.71,-6.07 -13.43,0 -24.56,4.62 -33.36,13.83 -8.8,9.21 -13.2,20.86 -13.2,34.91 0,14.09 4.4,25.74 13.2,34.91 8.8,9.17 19.94,13.76 33.36,13.76 8.4,0 15.83,-1.81 22.38,-5.4 6.51,-3.62 12.17,-8.99 16.94,-16.13z"/>
  <polygon id="5" class="fil0" points="951.29,212.2 951.29,119.66 1038.06,119.66 1038.06,133.2 965.72,133.2 965.72,156.28 1013.21,156.28 1013.21,169.59 965.72,169.59 965.72,198.89 1042.06,198.89 1042.06,212.2 "/>
  <path id="6" class="fil0" d="M1054.71 200.37l7.03 -12.13c6.36,4.25 13.31,7.58 20.82,9.95 7.54,2.4 14.72,3.59 21.6,3.59 8.25,0 14.91,-1.66 19.97,-5.03 5.07,-3.37 7.58,-7.66 7.58,-12.91 0,-5.29 -2.33,-9.17 -6.95,-11.76 -4.62,-2.55 -11.91,-3.96 -21.9,-4.25 -16.87,-0.22 -28.44,-2.18 -34.73,-5.84 -6.29,-3.7 -9.43,-9.8 -9.43,-18.31 0,-7.95 3.44,-14.35 10.36,-19.2 6.92,-4.84 16.2,-7.25 27.85,-7.25 7.95,0 15.64,1.11 23.15,3.37 7.47,2.22 14.68,5.55 21.64,9.95l-7.29 11.98c-5.77,-3.88 -11.98,-6.88 -18.64,-9.02 -6.66,-2.11 -13.02,-3.18 -19.08,-3.18 -7.03,0 -12.69,1.22 -16.94,3.66 -4.25,2.48 -6.4,5.66 -6.4,9.62 0,4.11 2.15,7.03 6.44,8.77 4.29,1.74 11.76,2.59 22.38,2.59 14.76,0 25.85,2.48 33.36,7.47 7.51,4.99 11.28,12.39 11.28,22.23 0,8.73 -3.81,15.98 -11.43,21.78 -7.62,5.77 -17.49,8.65 -29.63,8.65 -8.99,0 -17.86,-1.29 -26.74,-3.85 -8.84,-2.55 -16.94,-6.18 -24.3,-10.87z"/>
  <polygon id="7" class="fil0" points="1194.55,212.2 1194.55,132.53 1155.49,132.53 1155.49,119.66 1248.03,119.66 1248.03,132.53 1208.97,132.53 1208.97,212.2 "/>
  <polygon id="8" class="fil0" points="1262.64,212.2 1262.64,119.44 1277.29,119.44 1277.29,212.2 "/>
  <path id="9" class="fil0" d="M1357.84 201.55c12.35,0 22.45,-3.33 30.25,-10.02 7.8,-6.66 11.69,-15.16 11.69,-25.48 0,-10.24 -3.92,-18.71 -11.76,-25.45 -7.84,-6.69 -17.9,-10.06 -30.18,-10.06 -12.28,0 -22.3,3.33 -30.07,10.02 -7.77,6.66 -11.65,15.16 -11.65,25.48 0,10.32 3.88,18.83 11.65,25.48 7.77,6.69 17.79,10.02 30.07,10.02zm0 13.54c-16.46,0 -30.03,-4.66 -40.65,-13.98 -10.61,-9.28 -15.94,-20.97 -15.94,-35.06 0,-14.13 5.29,-25.82 15.87,-35.03 10.61,-9.21 24.19,-13.8 40.72,-13.8 16.68,0 30.33,4.59 40.94,13.76 10.58,9.17 15.87,20.86 15.87,35.06 0,14.17 -5.33,25.85 -15.94,35.14 -10.62,9.28 -24.23,13.91 -40.87,13.91zm-3.37 -109.85l-9.95 0 22.6 -37.95 16.46 0 -29.11 37.95z"/>
  <polygon id="10" class="fil0" points="1438.39,212.2 1438.39,119.66 1445.98,119.66 1504.75,184.68 1504.75,119.66 1518.95,119.66 1518.95,212.2 1511.37,212.2 1452.6,147.4 1452.6,212.2 "/>
  <polygon id="11" class="fil1" points="328.12,232.38 1534.89,232.38 1534.89,242.46 328.12,242.46 "/>
 </g>
</svg>
