<?xml version="1.0" encoding="UTF-8"?>
<!DOCTYPE svg PUBLIC "-//W3C//DTD SVG 1.1//EN" "http://www.w3.org/Graphics/SVG/1.1/DTD/svg11.dtd">
<!-- Creator: CorelDRAW 2019 (64-Bit) -->
<svg xmlns="http://www.w3.org/2000/svg" xml:space="preserve" width="391.994mm" height="160.132mm" version="1.1" style="shape-rendering:geometricPrecision; text-rendering:geometricPrecision; image-rendering:optimizeQuality; fill-rule:evenodd; clip-rule:evenodd"
viewBox="0 0 81053.25 33110.78"
 xmlns:xlink="http://www.w3.org/1999/xlink">
 <defs>
  <style type="text/css">
   <![CDATA[
    .str0 {stroke:#373435;stroke-width:583.55;stroke-miterlimit:22.9256}
    .str1 {stroke:#373435;stroke-width:875.33;stroke-miterlimit:22.9256}
    .fil0 {fill:#364958}
    .fil3 {fill:#E7ECF0}
    .fil4 {fill:#FF6800}
    .fil5 {fill:#373435;fill-rule:nonzero}
    .fil1 {fill:#07659B;fill-rule:nonzero}
    .fil2 {fill:#C7D0D7;fill-rule:nonzero}
   ]]>
  </style>
 </defs>
 <g id="Layer_x0020_1">
  <metadata id="CorelCorpID_0Corel-Layer"/>
  <g id="_2012695158320">
   <path class="fil0 str0" d="M29811.54 12913.4c724.42,0.02 1138.36,-68.19 1776.48,175.84 50.82,67.28 5.69,20.8 83.87,96.87 118.69,115.52 3.27,9.93 87.51,71.34 75.64,149.58 126.65,339.79 160.31,554.29 14.8,-1.3 34.08,8.31 58.95,37.84 24.96,1016.1 9.47,2045.34 12.49,3063.94 2.48,839.95 145.65,2282.3 -186.82,2939.82 -84.24,61.41 31.18,-44.19 -87.51,71.34 -78.18,76.07 -33.04,29.59 -83.87,96.87 -638.12,244.03 -1052.05,175.82 -1776.48,175.84 -616.01,0.04 -1307.27,40.16 -1911.71,2.75 -200.69,638.78 -1041.61,2570.6 -1043.6,2633.15 119.78,72.87 106.2,86.84 233.18,162.07 238.88,228.34 526.77,640.43 807.84,765.92l960.83 945.26c143.66,154.21 343.47,331.41 478.66,505.49 182.29,234.71 162.21,476.07 76.2,788.56l-21.84 65.61 -832.5 1030.71c-336.71,353.21 -566.51,607.72 -880.04,922.1 -575.86,577.43 -1249.23,1162.22 -1938.65,1726.94 -1240.09,1015.81 -1260.02,807.77 -2201.79,-210.66l-1659.28 -1990.09c-221.41,31.28 -881.3,333.05 -1148.62,428.76 -377.15,135.02 -806.78,215.35 -1166.36,366.85l-17.41 3562.49c-192.92,850.27 -875.57,772.17 -1858.3,856.74 -889.1,76.53 -1807.02,67.43 -2703.6,35.07 -2310.59,-83.39 -2538.29,-27.85 -2353.66,-3072.29l-4.38 -1375.26c-131.75,-78.28 -1490.24,-474.52 -2229.04,-851.26 -260.74,299.67 -527.74,633.57 -795.35,938.66 -285.41,325.36 -523.42,664.69 -787.8,963.51 -1066.67,1205.66 -1106.58,1263.81 -2084.65,528.71 -1556.72,-1170.02 -1620.55,-1451.81 -2743.09,-2505.93l-668.31 -739c-3.72,10.52 -10.32,22.23 -20.3,35.87 -118.71,-58.6 -447.66,-481.26 -513.56,-660.35 -79.01,-214.75 -55.13,-401.96 9.37,-565.4 24.67,-133.35 92.39,-255.84 208.86,-374.5l168.25 -167.96c24.5,-30.95 37.88,-45.51 82.69,-88.56 47.62,-45.76 86.02,-81.94 121,-114.8l968.66 -967.03c247.8,-233.4 478.01,-428.12 694.9,-670.31 127.21,-31.99 172.47,-68.3 311.09,-255.22 -71.4,-155.89 -159.03,-282.1 -238.88,-433.17 -44.37,-83.95 -76.28,-157.93 -123.07,-256.56l-156.38 -237.33c-205.82,-595.27 -452.17,-992.46 -609.67,-1676.77 -3554.44,-144.93 -3929.36,587.54 -3942.91,-1700.45 -5.52,-930 -6.41,-1859.99 -7.17,-2790.11 -0.62,-759.97 -131.73,-1998.57 221.06,-2539.2l21.92 -16.71c342.93,-566.91 1276.11,-242.15 3752.04,-343.1 157.5,-684.31 403.85,-1081.5 609.67,-1676.77l156.38 -237.33c46.79,-98.63 78.7,-172.61 123.07,-256.56 66.91,-126.59 139.3,-235.72 203.01,-359.49 -182.97,-251.85 -222.67,-293.08 -365.08,-328.89 -216.88,-242.19 -447.1,-436.91 -694.9,-670.31l-1340.6 -1338.35c-226.13,-230.38 -268.43,-475.18 -169.02,-785.77 7.9,-49.73 21.13,-101.09 40.65,-154.13 32.24,-87.59 127.37,-233.42 230.07,-366.44l36.54 -61.87 845.7 -935.17c1122.54,-1054.12 1186.37,-1335.91 2743.09,-2505.93 978.07,-735.09 1017.98,-676.95 2084.65,528.71 264.38,298.83 502.39,638.16 787.8,963.51 267.6,305.09 534.61,638.99 795.35,938.66 738.79,-376.74 2097.28,-772.97 2229.04,-851.26l4.38 -1375.26c-184.63,-3044.44 43.07,-2988.9 2353.66,-3072.29 896.58,-32.36 1814.5,-41.46 2703.6,35.07 982.72,84.57 1665.38,6.47 1858.3,856.74l17.41 3562.49c359.58,151.5 789.21,231.83 1166.36,366.85 267.31,95.71 927.2,397.48 1148.62,428.76l1659.28 -1990.09c941.76,-1018.43 961.69,-1226.47 2201.79,-210.66 689.42,564.71 1362.79,1149.51 1938.65,1726.94 313.53,314.38 543.33,568.89 880.04,922.1l832.5 1030.71 21.84 65.61c86.02,312.49 106.09,553.86 -76.2,788.56 -135.19,174.08 -334.99,351.28 -478.66,505.49l-960.83 945.26c-281.06,125.49 -568.95,537.59 -807.84,765.92 -126.98,75.22 -113.39,89.2 -233.18,162.07 1.99,62.55 842.9,1994.37 1043.6,2633.15 604.43,-37.4 1295.69,2.71 1911.71,2.75z"/>
   <path class="fil1" d="M8593.96 9172.47c1908.81,-1916.17 4557.22,-3112.57 7492.64,-3134.93 2934.01,-22.33 5599.52,1133.5 7537.07,3020.19 1938.59,1887.68 3148.7,4507.56 3170.8,7412.02 22.08,2902.99 -1147.89,5540.15 -3057.32,7456.97 -1908.79,1916.17 -4557.18,3112.59 -7492.62,3134.93 -2934.01,22.33 -5599.48,-1133.46 -7537.07,-3020.19 -1938.59,-1887.68 -3148.68,-4507.54 -3170.8,-7412 -22.08,-2902.99 1147.87,-5540.17 3057.3,-7456.99z"/>
   <path class="fil1" d="M16088.87 6618.82c-2774.19,21.13 -5277.6,1152.28 -7082.32,2963.97 -1804.08,1811.07 -2909.48,4302.34 -2888.62,7044.4 20.86,2740.61 1164,5213.91 2995.29,6997.13 1832.29,1784.19 4353.41,2877.16 7129.03,2856.05 2774.21,-21.11 5277.6,-1152.28 7082.3,-2963.97 1804.08,-1811.07 2909.5,-4302.32 2888.64,-7044.38 -20.84,-2740.61 -1164,-5213.93 -2995.29,-6997.15 -1832.26,-1784.15 -4353.41,-2877.16 -7129.03,-2856.05z"/>
   <path class="fil2" d="M16081.14 6624.61c-2774.19,21.13 -5277.6,1152.28 -7082.32,2963.97 -1804.08,1811.07 -2909.48,4302.34 -2888.62,7044.4 20.86,2740.61 1164,5213.91 2995.29,6997.13 1832.29,1784.19 4353.41,2877.16 7129.03,2856.05 2774.21,-21.11 5277.6,-1152.28 7082.3,-2963.97 1804.08,-1811.07 2909.5,-4302.32 2888.64,-7044.38 -20.84,-2740.61 -1164,-5213.93 -2995.29,-6997.15 -1832.26,-1784.15 -4353.41,-2877.16 -7129.03,-2856.05zm-7494.91 2553.65c1908.81,-1916.17 4557.22,-3112.57 7492.64,-3134.93 2934.01,-22.33 5599.52,1133.5 7537.07,3020.19 1938.59,1887.68 3148.7,4507.56 3170.8,7412.02 22.08,2902.99 -1147.89,5540.15 -3057.32,7456.97 -1908.79,1916.17 -4557.18,3112.59 -7492.62,3134.93 -2934.01,22.33 -5599.48,-1133.46 -7537.07,-3020.19 -1938.59,-1887.68 -3148.68,-4507.54 -3170.8,-7412 -22.08,-2902.99 1147.87,-5540.17 3057.3,-7456.99z"/>
   <path class="fil3 str1" d="M16014.73 7424.92l5695.05 8434.11c452.37,867.65 679.35,1828.03 661.5,2798.47 -61.02,3307.72 -2892.22,5937.92 -6323.8,5874.75 -3431.58,-63.19 -6164,-2795.96 -6103.11,-6103.69 18.77,-1018.97 306.99,-2016.31 837.32,-2897.37l5233.04 -8106.27z"/>
   <path class="fil4" d="M16006.68 11631.75l3159.88 5601.44c245.15,470.2 368.16,990.64 358.48,1516.55 -33.06,1792.52 -1567.35,3217.88 -3426.99,3183.64 -1859.64,-34.24 -3340.39,-1515.18 -3307.39,-3307.7 10.17,-552.2 166.37,-1092.68 453.76,-1570.14l2762.26 -5423.78z"/>
  </g>
  <path class="fil5" d="M39117.46 22444.74c-613.33,0 -1177.58,-121.58 -1696.54,-364.75 -518.96,-243.18 -964.32,-605.41 -1336.08,-1086.69 -373.66,-478.74 -662.39,-1079.08 -866.21,-1798.46 -205.7,-719.4 -307.61,-1550.25 -307.61,-2492.53 0,-876.44 98.15,-1671.83 292.52,-2386.14 196.27,-714.31 481.22,-1327.33 852.99,-1836.46 358.54,-491.41 802.03,-871.38 1330.41,-1137.35 530.29,-268.49 1107.74,-402.75 1736.18,-402.75 345.33,0 658.59,25.33 937.9,78.51 277.4,50.68 535.93,119.06 771.84,202.66 247.2,96.25 469.89,200.11 671.82,316.63 201.91,116.52 377.42,222.9 528.38,324.24l0 2679.97 -243.43 0c-103.8,-119.06 -234,-258.38 -390.63,-420.49 -156.63,-162.11 -334.04,-321.7 -534.07,-478.74 -201.91,-157.06 -422.7,-288.78 -658.59,-397.7 -235.91,-108.91 -488.77,-162.11 -756.76,-162.11 -300.05,0 -583.12,63.33 -852.97,189.98 -269.86,124.12 -518.96,334.37 -747.29,625.67 -217.03,283.69 -394.42,656.04 -528.4,1119.61 -133.99,466.08 -201.93,1030.94 -201.93,1692.07 0,694.07 73.61,1271.6 218.91,1737.69 145.32,463.54 328.37,830.83 551.05,1096.8 224.57,273.58 475.57,466.08 751.08,582.6 277.43,116.54 551.05,174.78 819.02,174.78 258.55,0 515.17,-50.66 768.05,-154.52 251,-101.32 485,-240.64 700.13,-417.95 179.27,-141.85 347.23,-291.3 501.98,-453.41 154.75,-162.13 283.07,-301.43 383.09,-417.97l220.79 0 0 2639.46c-205.7,121.58 -403.85,238.1 -592.55,347.02 -186.84,108.91 -384.99,202.64 -592.57,281.17 -267.98,103.86 -520.84,182.37 -756.74,238.1 -235.88,53.2 -560.47,81.05 -973.75,81.05z"/>
  <path id="1" class="fil5" d="M49660.84 22216.78l-1992.8 0 0 -922.04c-367.99,377.42 -703.91,661.13 -1009.62,856.18 -303.83,195.05 -668.04,293.82 -1090.74,293.82 -683.15,0 -1211.56,-263.43 -1579.53,-792.84 -369.89,-529.4 -554.83,-1309.59 -554.83,-2343.07l0 -5420.72 1992.82 0 0 4128.88c0,420.49 9.43,770.04 30.19,1048.68 20.74,281.17 67.92,511.68 141.54,694.05 69.81,182.39 175.51,316.63 317.02,400.23 141.54,83.6 339.68,126.65 594.47,126.65 167.94,0 356.66,-43.05 562.36,-126.65 205.7,-83.6 405.73,-207.7 596.33,-369.83l0 -5902 1992.8 0 0 8328.68z"/>
  <path id="2" class="fil5" d="M56039.33 16441.42l-175.51 0c-84.9,-40.53 -220.79,-70.94 -409.49,-91.21 -186.82,-20.26 -343.47,-30.4 -468.01,-30.4 -283.07,0 -532.19,25.33 -749.2,73.47 -217.03,50.66 -451.03,134.26 -700.13,253.32l0 5570.18 -1992.82 0 0 -8328.68 1992.82 0 0 1223.45c437.82,-504.07 817.12,-838.44 1141.71,-1005.61 322.71,-164.65 620.87,-248.23 892.61,-248.23 69.83,0 149.08,2.52 235.88,7.59 88.7,5.07 166.08,12.68 232.12,22.81l0 2553.32z"/>
  <path id="3" class="fil5" d="M62561.26 19574.79c0,861.24 -286.83,1555.29 -862.42,2079.65 -573.69,526.87 -1360.62,790.3 -2358.89,790.3 -552.95,0 -1054.93,-68.38 -1504.06,-207.7 -449.13,-136.78 -809.57,-291.3 -1083.21,-458.47l0 -2191.1 183.05 0c98.13,93.73 213.24,195.05 343.45,306.5 132.11,111.45 317.04,230.51 554.83,359.7 207.58,111.45 439.7,210.25 702.01,291.3 260.41,81.05 541.62,121.58 839.76,121.58 388.75,0 677.49,-58.27 866.21,-174.78 186.82,-116.52 281.17,-288.76 281.17,-516.74 0,-202.64 -54.71,-349.57 -166.06,-440.75 -109.44,-91.19 -320.81,-177.31 -630.3,-263.43 -147.2,-43.07 -347.23,-91.19 -600.09,-144.39 -251.02,-50.66 -481.24,-113.99 -686.94,-187.44 -564.24,-197.59 -983.18,-506.61 -1254.94,-924.58 -273.62,-417.95 -409.51,-937.23 -409.51,-1560.36 0,-800.43 283.07,-1466.63 849.21,-1996.05 566.14,-531.94 1339.86,-797.91 2319.27,-797.91 464.24,0 909.61,63.33 1336.1,189.98 426.49,126.65 758.62,260.9 998.29,405.29l0 2110.02 -171.72 0c-294.4,-273.56 -630.3,-496.48 -1007.74,-668.72 -377.42,-172.24 -760.51,-258.36 -1147.38,-258.36 -320.81,0 -590.66,58.25 -809.55,177.31 -218.93,119.06 -328.37,288.78 -328.37,506.61 0,197.57 49.07,347.02 149.08,450.89 100.02,103.86 334.02,207.7 702.03,311.56 203.79,55.72 420.8,108.93 654.82,159.59 233.98,50.66 469.89,116.52 705.77,197.57 522.74,182.39 909.61,468.63 1160.59,861.24 250.98,395.16 375.54,884.03 375.54,1471.7z"/>
  <path id="4" class="fil5" d="M67648.95 20040.88l0 -1745.28c-267.96,30.4 -556.69,70.92 -868.07,124.12 -311.38,50.66 -547.26,111.45 -707.68,182.37 -198.15,83.6 -349.13,207.72 -452.91,367.31 -103.78,162.11 -156.63,374.88 -156.63,638.32 0,174.78 11.33,314.09 32.07,425.56 22.64,108.91 77.37,212.77 166.08,311.56 83.04,98.8 184.94,172.24 301.93,220.38 117.01,48.12 300.07,70.92 549.16,70.92 198.15,0 398.18,-55.72 600.11,-164.65 203.81,-108.93 383.09,-253.3 535.93,-430.62zm0 1291.87c-105.68,108.91 -239.67,240.64 -396.3,395.16 -158.51,151.98 -307.59,273.56 -447.23,362.22 -194.39,119.04 -396.3,207.7 -605.78,265.97 -209.46,58.25 -439.7,88.64 -690.68,88.64 -586.9,0 -1079.45,-245.71 -1475.75,-737.12 -398.18,-491.39 -596.33,-1117.06 -596.33,-1882.06 0,-610.45 101.92,-1109.47 303.83,-1494.5 201.93,-387.55 488.75,-694.05 858.64,-916.95 367.99,-222.92 824.67,-382.51 1368.17,-476.22 543.5,-93.73 1107.76,-162.13 1692.76,-207.72l0 -45.59c0,-458.47 -139.65,-777.65 -418.94,-952.43 -279.29,-174.78 -690.68,-263.43 -1234.18,-263.43 -326.47,0 -675.61,78.51 -1045.48,233.03 -371.75,157.04 -637.85,276.1 -800.14,359.7l-181.15 0 0 -2016.31c209.46,-73.47 551.03,-162.11 1022.82,-263.45 471.79,-101.32 945.44,-151.98 1419.11,-151.98 1128.5,0 1943.74,233.05 2443.83,701.66 501.98,468.61 752.98,1203.2 752.98,2206.29l0 5679.1 -1970.18 0 0 -884.03z"/>
  <polygon id="5" class="fil5" points="73446.23,22216.78 71453.4,22216.78 71453.4,10666.04 73446.23,10666.04 "/>
  <path id="6" class="fil5" d="M79083.07 20040.88l0 -1745.28c-267.96,30.4 -556.69,70.92 -868.07,124.12 -311.38,50.66 -547.26,111.45 -707.68,182.37 -198.13,83.6 -349.11,207.72 -452.89,367.31 -103.8,162.11 -156.63,374.88 -156.63,638.32 0,174.78 11.31,314.09 32.07,425.56 22.64,108.91 77.37,212.77 166.06,311.56 83.04,98.8 184.94,172.24 301.95,220.38 117.01,48.12 300.05,70.92 549.14,70.92 198.15,0 398.2,-55.72 600.11,-164.65 203.81,-108.93 383.11,-253.3 535.93,-430.62zm0 1291.87c-105.66,108.91 -239.65,240.64 -396.28,395.16 -158.53,151.98 -307.61,273.56 -447.25,362.22 -194.39,119.04 -396.3,207.7 -605.78,265.97 -209.46,58.25 -439.7,88.64 -690.68,88.64 -586.9,0 -1079.45,-245.71 -1475.75,-737.12 -398.18,-491.39 -596.33,-1117.06 -596.33,-1882.06 0,-610.45 101.92,-1109.47 303.83,-1494.5 201.93,-387.55 488.77,-694.05 858.64,-916.95 367.99,-222.92 824.69,-382.51 1368.17,-476.22 543.5,-93.73 1107.76,-162.13 1692.76,-207.72l0 -45.59c0,-458.47 -139.63,-777.65 -418.94,-952.43 -279.29,-174.78 -690.68,-263.43 -1234.18,-263.43 -326.47,0 -675.61,78.51 -1045.48,233.03 -371.75,157.04 -637.83,276.1 -800.14,359.7l-181.15 0 0 -2016.31c209.48,-73.47 551.05,-162.11 1022.82,-263.45 471.79,-101.32 945.44,-151.98 1419.11,-151.98 1128.52,0 1943.76,233.05 2443.83,701.66 501.98,468.61 752.98,1203.2 752.98,2206.29l0 5679.1 -1970.18 0 0 -884.03z"/>
 </g>
</svg>
