<?xml version="1.0" encoding="UTF-8"?>
<!DOCTYPE svg PUBLIC "-//W3C//DTD SVG 1.1//EN" "http://www.w3.org/Graphics/SVG/1.1/DTD/svg11.dtd">
<!-- Creator: CorelDRAW 2019 (64-Bit) -->
<svg xmlns="http://www.w3.org/2000/svg" xml:space="preserve" width="91.9673mm" height="65.0758mm" version="1.1" style="shape-rendering:geometricPrecision; text-rendering:geometricPrecision; image-rendering:optimizeQuality; fill-rule:evenodd; clip-rule:evenodd"
viewBox="0 0 216.25 153.02"
 xmlns:xlink="http://www.w3.org/1999/xlink">
 <defs>
  <style type="text/css">
   <![CDATA[
    .str0 {stroke:#373435;stroke-width:0.47;stroke-miterlimit:22.9256}
    .fil0 {fill:none}
    .fil4 {fill:#373435}
    .fil2 {fill:#0DD1C6}
    .fil1 {fill:#0F3C41}
    .fil3 {fill:#373435;fill-rule:nonzero}
   ]]>
  </style>
 </defs>
 <g id="Layer_x0020_1">
  <metadata id="CorelCorpID_0Corel-Layer"/>
  <g id="_2059060501440">
   <g>
    <path class="fil0 str0" d="M80.91 5.77c7.57,-3.55 16.02,-5.54 24.93,-5.54 32.47,0 58.78,26.32 58.78,58.78 0,19.46 -9.46,36.71 -24.02,47.4"/>
    <path class="fil0 str0" d="M73.88 108.36c-16.14,-10.48 -26.82,-28.66 -26.82,-49.34 0,-11.53 3.32,-22.29 9.06,-31.37"/>
   </g>
   <g>
    <path class="fil1" d="M111.09 72.55c1.29,-1.09 10.28,-17.31 12.69,-18.79 1.93,-1.19 6.42,0.23 10.71,-5.01 2.04,-2.48 4.63,-7.98 1.88,-11.6 -4.77,-6.28 -17.75,3.41 -15.93,11.36 0.75,3.3 1.31,3 -0.37,6.12 -0.92,1.72 -8.32,13.1 -9.87,13.94 0.12,-5.82 -0.68,-14.83 -0.34,-20.11 0.16,-2.51 1.16,-3.4 2.61,-4.41 3.78,-2.62 3.45,-4.89 2.6,-10.3 -0.33,-2.09 -1.83,-9.81 -2.65,-11.05 -1.41,3.59 -0.18,13.49 -0.96,15.16l-1.19 0.15c-0.81,-1.51 -0.38,-8.22 -0.74,-11.64l-0.39 -3.2c-0.12,-0.34 -0.11,-0.24 -0.21,-0.37 -1.61,3.48 -0.77,13.52 -1.35,15.15l-1.31 -0.1c-0.79,-2.48 0.59,-13.23 -1.12,-15.17 -0.92,1.83 -2.33,10.26 -2.67,12.79 -0.32,2.31 -0.59,4.75 0.6,6.52 1.21,1.8 3.07,2.22 4.08,3.69 1.32,1.91 0.6,11.87 0.52,14.95 -0.04,1.55 -0.53,6.29 0.03,7.38 0.81,1.57 2.59,3.19 3.39,4.55zm-56.48 5.77c-1.93,0.88 -0.79,3.05 1.35,3.16 4.56,0.24 15.38,0.04 20.32,0.04 10.99,-0.01 79.77,0.3 80.82,-0.21 0.57,-0.28 1.2,-1.09 0.93,-2.09 -0.26,-0.96 -1.04,-1.12 -2.3,-1.13l-47.39 0.08c-5.58,-0.02 -52.61,-0.35 -53.72,0.15zm44.76 -1.54l3.82 -0.04c-0.51,-0.9 -7.19,-6.7 -8.37,-7.79 -1.01,-0.94 -1.74,-1.78 -2.83,-2.74l-7.81 -8.52c-1.92,-2.61 -0.85,-1.6 -0.61,-4.03 0.2,-1.99 -1.57,-3.17 -3.33,-4.96 -3.97,-4.06 -14.91,-16.81 -18.15,-17.46 -4.12,-0.82 -1.39,5.63 -0.62,7.16 1.89,3.74 6.16,10.01 8.69,13.21 0.69,0.87 4.32,5.68 5,5.97 2.43,1.03 2.33,-2.21 7.64,2.89l14.42 15.64c0.76,0.8 0.69,0.69 2.15,0.68zm15.04 14.62c-0.24,-0.49 -1.11,-1.51 -1.5,-1.93 -3.65,-4 -1.8,-3.29 -7.37,-3.31 -13.71,-0.04 -29.92,-0.3 -43.17,0.05 0.21,1.93 5.21,5.03 8.91,5.27 5.69,0.37 21.83,0.05 28.68,0.05 2.42,0 12.92,0.16 14.45,-0.13zm-22.11 -47.41c-1.04,0.07 -1.54,-0.97 -2.41,-2.18 -0.82,-1.15 -5.16,-7.98 -6.06,-8.18 -0.34,0.78 2.3,5.03 2.83,6.03 1.04,1.94 3.82,5.37 3.15,6.02 -1.48,0.64 -3.44,-3.63 -4.22,-4.94 -0.73,-1.22 -2.84,-5.34 -3.86,-5.7 -0.35,1.36 4.18,10.46 4.98,11.96 0.89,1.66 2.09,4.15 3.37,5.18 1.98,1.59 3.1,-0.58 5.54,3.22 3.57,5.55 9.56,16.7 13.24,21.36l3.77 0.03c-0.31,-1.06 -1.73,-2.56 -2.41,-3.34 -2.64,-3.09 -12.63,-17.62 -13.29,-20.94 -0.35,-1.76 0.74,-2.95 0.78,-4.65 0.04,-1.71 -3.34,-5.88 -4.23,-7.05 -1.67,-2.21 -3.41,-4.29 -5.08,-6.47 -0.24,-0.31 -2.82,-3.66 -2.21,-1.41 0.79,2.94 6.85,9.3 6.1,11.06zm56.31 42.25l-34.85 -0.05c0.03,0.69 0.6,0.97 1.1,1.54 1.86,2.12 2.67,3.73 4.8,3.78 3.4,0.07 20.36,0.31 22.52,-0.4 2.19,-0.72 5.85,-3.06 6.42,-4.87z"/>
    <g>
     <path class="fil2" d="M105.66 114.35c5.48,-0.2 8.81,-1.4 11.51,-4.42 1.95,-2.17 3.57,-5.61 5.03,-6.91 0.65,-0.58 1.93,-1.12 2.37,-1.76 -6.66,-0.01 -13.05,2.15 -16.52,7.32 -0.86,1.28 -2.23,3.85 -2.39,5.77z"/>
     <path class="fil2" d="M105.48 114.36c-0.52,-4.34 -3.71,-7.72 -6.22,-9.5 -2.26,-1.6 -8.38,-3.92 -12.14,-3.27 0.66,1.08 1.4,-0.25 4.16,3.48 3.3,4.46 5.65,9.16 14.2,9.29z"/>
    </g>
   </g>
  </g>
  <polygon class="fil3" points="8.94,147.65 8.94,128.86 -0,128.86 -0,126.42 20.52,126.42 20.52,128.86 11.58,128.86 11.58,147.65 "/>
  <path id="1" class="fil3" d="M26.28 145.76c2.19,0 3.98,-0.59 5.37,-1.78 1.39,-1.18 2.07,-2.69 2.07,-4.52 0,-1.82 -0.7,-3.32 -2.09,-4.52 -1.39,-1.19 -3.18,-1.79 -5.36,-1.79 -2.18,0 -3.96,0.59 -5.34,1.78 -1.38,1.18 -2.07,2.69 -2.07,4.52 0,1.83 0.69,3.34 2.07,4.52 1.38,1.19 3.16,1.78 5.34,1.78zm0 2.4c-2.92,0 -5.33,-0.83 -7.21,-2.48 -1.88,-1.65 -2.83,-3.72 -2.83,-6.22 0,-2.51 0.94,-4.58 2.82,-6.22 1.88,-1.63 4.29,-2.45 7.23,-2.45 2.96,0 5.38,0.81 7.27,2.44 1.88,1.63 2.82,3.7 2.82,6.22 0,2.51 -0.95,4.59 -2.83,6.24 -1.88,1.65 -4.3,2.47 -7.25,2.47z"/>
  <path id="2" class="fil3" d="M50.04 128.86l-6.47 0 0 16.35 6.47 0c2.61,0 4.67,-0.74 6.17,-2.2 1.5,-1.47 2.25,-3.45 2.25,-5.95 0,-2.46 -0.76,-4.44 -2.29,-5.94 -1.52,-1.5 -3.57,-2.25 -6.13,-2.25zm0 -2.44c3.34,0 6.03,0.98 8.07,2.96 2.04,1.98 3.07,4.54 3.07,7.71 0,3.19 -1,5.75 -3.01,7.67 -2.02,1.92 -4.72,2.88 -8.13,2.88l-9.11 0 0 -21.23 9.11 0z"/>
  <path id="3" class="fil3" d="M74.05 145.76c2.19,0 3.98,-0.59 5.37,-1.78 1.39,-1.18 2.07,-2.69 2.07,-4.52 0,-1.82 -0.7,-3.32 -2.09,-4.52 -1.39,-1.19 -3.18,-1.79 -5.36,-1.79 -2.18,0 -3.96,0.59 -5.34,1.78 -1.38,1.18 -2.07,2.69 -2.07,4.52 0,1.83 0.69,3.34 2.07,4.52 1.38,1.19 3.16,1.78 5.34,1.78zm0 2.4c-2.92,0 -5.33,-0.83 -7.21,-2.48 -1.88,-1.65 -2.83,-3.72 -2.83,-6.22 0,-2.51 0.94,-4.58 2.82,-6.22 1.88,-1.63 4.29,-2.45 7.23,-2.45 2.96,0 5.38,0.81 7.27,2.44 1.88,1.63 2.82,3.7 2.82,6.22 0,2.51 -0.95,4.59 -2.83,6.24 -1.88,1.65 -4.3,2.47 -7.25,2.47z"/>
  <path id="4" class="fil3" d="M104.97 141.9l0 -3.11 -5.79 0 0 -2.44 8.43 0 0 6.38c-1.02,1.77 -2.36,3.12 -4.01,4.06 -1.65,0.94 -3.52,1.41 -5.61,1.41 -3.18,0 -5.8,-1.05 -7.88,-3.14 -2.07,-2.09 -3.11,-4.75 -3.11,-7.98 0,-3.23 1.04,-5.9 3.11,-7.99 2.08,-2.09 4.7,-3.14 7.86,-3.14 1.96,0 3.76,0.43 5.37,1.29 1.61,0.86 2.93,2.09 3.94,3.68l-2.21 1.58c-0.67,-1.27 -1.63,-2.27 -2.89,-2.98 -1.25,-0.72 -2.66,-1.08 -4.21,-1.08 -2.38,0 -4.36,0.82 -5.92,2.46 -1.56,1.63 -2.34,3.7 -2.34,6.2 0,2.5 0.78,4.57 2.34,6.2 1.56,1.63 3.54,2.44 5.92,2.44 1.49,0 2.81,-0.32 3.97,-0.96 1.16,-0.64 2.16,-1.6 3.01,-2.86z"/>
  <polygon id="5" class="fil3" points="112.66,147.65 112.66,131.22 128.06,131.22 128.06,133.62 115.22,133.62 115.22,137.72 123.65,137.72 123.65,140.08 115.22,140.08 115.22,145.28 128.77,145.28 128.77,147.65 "/>
  <path id="6" class="fil3" d="M131.02 145.55l1.25 -2.15c1.13,0.76 2.36,1.35 3.7,1.77 1.34,0.43 2.61,0.64 3.83,0.64 1.46,0 2.65,-0.3 3.54,-0.89 0.9,-0.6 1.35,-1.36 1.35,-2.29 0,-0.94 -0.41,-1.63 -1.23,-2.09 -0.82,-0.45 -2.11,-0.7 -3.89,-0.76 -2.99,-0.04 -5.05,-0.39 -6.16,-1.04 -1.12,-0.66 -1.67,-1.74 -1.67,-3.25 0,-1.41 0.61,-2.55 1.84,-3.41 1.23,-0.86 2.88,-1.29 4.94,-1.29 1.41,0 2.78,0.2 4.11,0.6 1.33,0.39 2.61,0.98 3.84,1.77l-1.29 2.13c-1.02,-0.69 -2.13,-1.22 -3.31,-1.6 -1.18,-0.37 -2.31,-0.56 -3.39,-0.56 -1.25,0 -2.25,0.22 -3.01,0.65 -0.76,0.44 -1.14,1 -1.14,1.71 0,0.73 0.38,1.25 1.14,1.56 0.76,0.31 2.09,0.46 3.97,0.46 2.62,0 4.59,0.44 5.92,1.33 1.33,0.89 2,2.2 2,3.95 0,1.55 -0.68,2.84 -2.03,3.87 -1.35,1.02 -3.11,1.54 -5.26,1.54 -1.6,0 -3.17,-0.23 -4.75,-0.68 -1.57,-0.45 -3.01,-1.1 -4.31,-1.93z"/>
  <polygon id="7" class="fil3" points="155.84,147.65 155.84,133.51 148.91,133.51 148.91,131.22 165.33,131.22 165.33,133.51 158.4,133.51 158.4,147.65 "/>
  <polygon id="8" class="fil3" points="167.93,147.65 167.93,131.18 170.53,131.18 170.53,147.65 "/>
  <path id="9" class="fil3" d="M184.82 145.76c2.19,0 3.98,-0.59 5.37,-1.78 1.39,-1.18 2.07,-2.69 2.07,-4.52 0,-1.82 -0.7,-3.32 -2.09,-4.52 -1.39,-1.19 -3.18,-1.79 -5.36,-1.79 -2.18,0 -3.96,0.59 -5.34,1.78 -1.38,1.18 -2.07,2.69 -2.07,4.52 0,1.83 0.69,3.34 2.07,4.52 1.38,1.19 3.16,1.78 5.34,1.78zm0 2.4c-2.92,0 -5.33,-0.83 -7.21,-2.48 -1.88,-1.65 -2.83,-3.72 -2.83,-6.22 0,-2.51 0.94,-4.58 2.82,-6.22 1.88,-1.63 4.29,-2.45 7.23,-2.45 2.96,0 5.38,0.81 7.27,2.44 1.88,1.63 2.82,3.7 2.82,6.22 0,2.51 -0.95,4.59 -2.83,6.24 -1.88,1.65 -4.3,2.47 -7.25,2.47zm-0.6 -19.5l-1.77 0 4.01 -6.74 2.92 0 -5.17 6.74z"/>
  <polygon id="10" class="fil3" points="199.12,147.65 199.12,131.22 200.47,131.22 210.9,142.76 210.9,131.22 213.42,131.22 213.42,147.65 212.08,147.65 201.64,136.15 201.64,147.65 "/>
  <polygon id="11" class="fil4" points="2.05,151.23 216.25,151.23 216.25,153.02 2.05,153.02 "/>
 </g>
</svg>
