<?xml version="1.0" encoding="UTF-8"?>
<!DOCTYPE svg PUBLIC "-//W3C//DTD SVG 1.1//EN" "http://www.w3.org/Graphics/SVG/1.1/DTD/svg11.dtd">
<!-- Creator: CorelDRAW 2019 (64-Bit) -->
<svg xmlns="http://www.w3.org/2000/svg" xml:space="preserve" width="156.287mm" height="160.132mm" version="1.1" style="shape-rendering:geometricPrecision; text-rendering:geometricPrecision; image-rendering:optimizeQuality; fill-rule:evenodd; clip-rule:evenodd"
viewBox="0 0 12884.15 13201.16"
 xmlns:xlink="http://www.w3.org/1999/xlink">
 <defs>
  <style type="text/css">
   <![CDATA[
    .str0 {stroke:#373435;stroke-width:232.66;stroke-miterlimit:22.9256}
    .str1 {stroke:#373435;stroke-width:348.99;stroke-miterlimit:22.9256}
    .fil0 {fill:#364958}
    .fil3 {fill:#E7ECF0}
    .fil4 {fill:#FF6800}
    .fil1 {fill:#07659B;fill-rule:nonzero}
    .fil2 {fill:#C7D0D7;fill-rule:nonzero}
   ]]>
  </style>
 </defs>
 <g id="Layer_x0020_1">
  <metadata id="CorelCorpID_0Corel-Layer"/>
  <g id="_2012699903024">
   <path class="fil0 str0" d="M11885.76 5148.53c288.83,0.01 453.86,-27.19 708.28,70.11 20.26,26.83 2.27,8.29 33.44,38.62 47.32,46.06 1.3,3.96 34.89,28.44 30.16,59.64 50.49,135.47 63.92,220.99 5.9,-0.52 13.59,3.31 23.5,15.09 9.95,405.11 3.78,815.47 4.98,1221.58 0.99,334.88 58.07,909.95 -74.48,1172.09 -33.59,24.48 12.43,-17.62 -34.89,28.44 -31.17,30.33 -13.17,11.8 -33.44,38.62 -254.42,97.29 -419.45,70.1 -708.28,70.11 -245.6,0.02 -521.2,16.01 -762.19,1.1 -80.02,254.68 -415.29,1024.89 -416.08,1049.83 47.76,29.05 42.34,34.62 92.97,64.62 95.24,91.04 210.02,255.34 322.08,305.37l383.08 376.87c57.28,61.48 136.94,132.13 190.84,201.54 72.68,93.58 64.67,189.81 30.38,314.4l-8.71 26.16 -331.92 410.94c-134.24,140.82 -225.87,242.3 -350.87,367.64 -229.59,230.22 -498.06,463.37 -772.93,688.52 -494.42,405 -502.37,322.06 -877.84,-83.99l-661.55 -793.44c-88.28,12.47 -351.37,132.78 -457.95,170.95 -150.37,53.83 -321.66,85.86 -465.02,146.26l-6.94 1420.35c-76.92,339 -349.09,307.86 -740.9,341.58 -354.48,30.51 -720.45,26.88 -1077.92,13.98 -921.22,-33.25 -1012.01,-11.1 -938.4,-1224.91l-1.75 -548.31c-52.53,-31.21 -594.16,-189.19 -888.71,-339.39 -103.96,119.48 -210.41,252.6 -317.1,374.24 -113.79,129.72 -208.69,265.01 -314.09,384.15 -425.28,480.69 -441.19,503.88 -831.14,210.8 -620.66,-466.48 -646.11,-578.83 -1093.66,-999.1l-266.45 -294.64c-1.48,4.2 -4.11,8.86 -8.1,14.3 -47.33,-23.36 -178.48,-191.88 -204.75,-263.28 -31.5,-85.62 -21.98,-160.26 3.73,-225.42 9.83,-53.17 36.83,-102 83.27,-149.31l67.08 -66.97c9.77,-12.34 15.1,-18.14 32.97,-35.31 18.99,-18.24 34.29,-32.67 48.24,-45.77l386.2 -385.55c98.8,-93.06 190.58,-170.69 277.05,-267.25 50.72,-12.75 68.76,-27.23 124.03,-101.75 -28.47,-62.15 -63.4,-112.47 -95.24,-172.7 -17.69,-33.47 -30.41,-62.97 -49.07,-102.29l-62.35 -94.62c-82.06,-237.33 -180.28,-395.69 -243.07,-668.52 -1417.15,-57.78 -1566.62,234.25 -1572.02,-677.96 -2.2,-370.79 -2.56,-741.57 -2.86,-1112.41 -0.25,-303 -52.52,-796.82 88.14,-1012.37l8.74 -6.66c136.73,-226.02 508.78,-96.54 1495.92,-136.79 62.79,-272.83 161.01,-431.19 243.07,-668.52l62.35 -94.62c18.66,-39.32 31.38,-68.82 49.07,-102.29 26.68,-50.47 55.54,-93.98 80.94,-143.33 -72.95,-100.41 -88.78,-116.85 -145.55,-131.13 -86.47,-96.56 -178.26,-174.19 -277.05,-267.25l-534.49 -533.6c-90.16,-91.85 -107.02,-189.45 -67.39,-313.29 3.15,-19.83 8.43,-40.3 16.21,-61.45 12.85,-34.92 50.78,-93.07 91.73,-146.1l14.57 -24.67 337.18 -372.85c447.55,-420.27 473,-532.62 1093.66,-999.1 389.95,-293.08 405.86,-269.9 831.14,210.8 105.41,119.14 200.3,254.43 314.09,384.15 106.69,121.64 213.15,254.76 317.1,374.24 294.56,-150.2 836.18,-308.18 888.71,-339.39l1.75 -548.31c-73.61,-1213.81 17.17,-1191.67 938.4,-1224.91 357.46,-12.9 723.44,-16.53 1077.92,13.98 391.81,33.72 663.98,2.58 740.9,341.58l6.94 1420.35c143.36,60.4 314.65,92.43 465.02,146.26 106.58,38.16 369.67,158.47 457.95,170.95l661.55 -793.44c375.48,-406.05 383.42,-488.99 877.84,-83.99 274.87,225.15 543.34,458.3 772.93,688.52 125,125.34 216.63,226.81 350.87,367.64l331.92 410.94 8.71 26.16c34.29,124.59 42.3,220.82 -30.38,314.4 -53.9,69.41 -133.56,140.06 -190.84,201.54l-383.08 376.87c-112.06,50.03 -226.84,214.33 -322.08,305.37 -50.63,29.99 -45.21,35.56 -92.97,64.62 0.79,24.94 336.06,795.15 416.08,1049.83 240.99,-14.91 516.59,1.08 762.19,1.1z"/>
   <path class="fil1" d="M3426.38 3657.03c761.04,-763.97 1816.95,-1240.97 2987.29,-1249.88 1169.78,-8.9 2232.51,451.92 3005.01,1204.14 772.91,752.61 1255.37,1797.15 1264.19,2955.15 8.8,1157.41 -457.66,2208.84 -1218.95,2973.07 -761.03,763.97 -1816.93,1240.98 -2987.28,1249.88 -1169.78,8.9 -2232.49,-451.91 -3005.01,-1204.14 -772.91,-752.61 -1255.37,-1797.14 -1264.19,-2955.14 -8.8,-1157.41 457.65,-2208.85 1218.94,-2973.08z"/>
   <path class="fil1" d="M6414.58 2638.9c-1106.06,8.43 -2104.16,459.41 -2823.7,1181.72 -719.28,722.07 -1160,1715.33 -1151.68,2808.58 8.32,1092.67 464.08,2078.77 1194.21,2789.73 730.53,711.35 1735.69,1147.12 2842.32,1138.7 1106.07,-8.42 2104.16,-459.41 2823.69,-1181.72 719.28,-722.07 1160.01,-1715.32 1151.69,-2808.57 -8.31,-1092.67 -464.08,-2078.78 -1194.21,-2789.74 -730.52,-711.33 -1735.69,-1147.12 -2842.32,-1138.7z"/>
   <path class="fil2" d="M6411.5 2641.21c-1106.06,8.43 -2104.16,459.41 -2823.7,1181.72 -719.28,722.07 -1160,1715.33 -1151.68,2808.58 8.32,1092.67 464.08,2078.77 1194.21,2789.73 730.53,711.35 1735.69,1147.12 2842.32,1138.7 1106.07,-8.42 2104.16,-459.41 2823.69,-1181.72 719.28,-722.07 1160.01,-1715.32 1151.69,-2808.57 -8.31,-1092.67 -464.08,-2078.78 -1194.21,-2789.74 -730.52,-711.33 -1735.69,-1147.12 -2842.32,-1138.7zm-2988.2 1018.13c761.04,-763.97 1816.95,-1240.97 2987.29,-1249.88 1169.78,-8.9 2232.51,451.92 3005.01,1204.14 772.91,752.61 1255.37,1797.15 1264.19,2955.15 8.8,1157.41 -457.66,2208.84 -1218.95,2973.07 -761.03,763.97 -1816.93,1240.98 -2987.28,1249.88 -1169.78,8.9 -2232.49,-451.91 -3005.01,-1204.14 -772.91,-752.61 -1255.37,-1797.14 -1264.19,-2955.14 -8.8,-1157.41 457.65,-2208.85 1218.94,-2973.08z"/>
   <path class="fil3 str1" d="M6385.02 2960.29l2270.6 3362.65c180.36,345.93 270.85,728.83 263.74,1115.74 -24.33,1318.78 -1153.12,2367.43 -2521.28,2342.24 -1368.16,-25.19 -2457.57,-1114.74 -2433.29,-2433.52 7.49,-406.26 122.4,-803.9 333.84,-1155.17l2086.39 -3231.94z"/>
   <path class="fil4" d="M6381.81 4637.54l1259.83 2233.28c97.74,187.47 146.78,394.97 142.92,604.64 -13.18,714.67 -624.9,1282.96 -1366.33,1269.31 -741.43,-13.65 -1331.8,-604.1 -1318.65,-1318.77 4.06,-220.16 66.33,-435.65 180.91,-626.01l1101.3 -2162.44z"/>
  </g>
 </g>
</svg>
