<?xml version="1.0" encoding="UTF-8"?>
<svg id="Capa_1" xmlns="http://www.w3.org/2000/svg" version="1.1" xmlns:xlink="http://www.w3.org/1999/xlink" viewBox="0 0 324.603402 61.5023114">
  <!-- Generator: Adobe Illustrator 29.5.1, SVG Export Plug-In . SVG Version: 2.1.0 Build 141)  -->
  <defs>
    <style>
      .st0 {
        fill: url(#linear-gradient2);
      }

      .st1 {
        fill: #fff;
      }

      .st2 {
        fill: url(#linear-gradient1);
      }

      .st3 {
        fill: url(#linear-gradient3);
      }

      .st4 {
        fill: #0080c1;
      }

      .st5 {
        fill: url(#linear-gradient);
      }
    </style>
    <linearGradient id="linear-gradient" x1="282.8878713" y1="53.6211019" x2="314.2857382" y2="42.193213" gradientUnits="userSpaceOnUse">
      <stop offset=".721951" stop-color="#0080c1"/>
      <stop offset=".769901" stop-color="#007bbb"/>
      <stop offset=".8323134" stop-color="#0070aa"/>
      <stop offset=".9026904" stop-color="#005d90"/>
      <stop offset=".9784116" stop-color="#00426a"/>
      <stop offset="1" stop-color="#003a5f"/>
    </linearGradient>
    <linearGradient id="linear-gradient1" x1="289.4466943" y1="56.0189114" x2="289.4466943" y2="11.8665009" gradientUnits="userSpaceOnUse">
      <stop offset="0" stop-color="#003a5f"/>
      <stop offset=".0145374" stop-color="#004068"/>
      <stop offset=".0668955" stop-color="#005483"/>
      <stop offset=".1264182" stop-color="#00649a"/>
      <stop offset=".195066" stop-color="#0070ab"/>
      <stop offset=".2785285" stop-color="#0079b7"/>
      <stop offset=".3922646" stop-color="#007ebf"/>
      <stop offset=".673171" stop-color="#0080c1"/>
    </linearGradient>
    <linearGradient id="linear-gradient2" x1="326.2067897" y1="33.7111011" x2="289.1081691" y2="27.1696133" gradientUnits="userSpaceOnUse">
      <stop offset=".614634" stop-color="#0080c1"/>
      <stop offset=".6887475" stop-color="#007cbc"/>
      <stop offset=".7682047" stop-color="#0073af"/>
      <stop offset=".8501448" stop-color="#00649a"/>
      <stop offset=".9332561" stop-color="#004f7c"/>
      <stop offset="1" stop-color="#003a5f"/>
    </linearGradient>
    <linearGradient id="linear-gradient3" x1="291.5717404" y1="12.3646114" x2="291.5717404" y2="12.2386114" gradientUnits="userSpaceOnUse">
      <stop offset=".614634" stop-color="#0080c1"/>
      <stop offset=".691694" stop-color="#0076b3"/>
      <stop offset=".836741" stop-color="#005c8e"/>
      <stop offset="1" stop-color="#003a5f"/>
    </linearGradient>
  </defs>
  <path class="st1" d="M12.5644,58.1575114c-3.8457-2.2353-6.9013-5.2431-9.166-9.0322-2.2676-3.79-3.3984-7.875-3.3984-12.2588,0-4.3818,1.1211-8.457,3.3652-12.2265,2.2441-3.7666,5.2793-6.7676,9.1045-9.001,3.8241974-2.2305,8.0225-3.3467,12.5976972-3.3467,5.9833998,0,11.2606997,1.8242,15.8348996,5.4678.3848.2871.5772.6973.5772,1.2275,0,.4932-.1709.9326-.5137,1.3233-.3408.3886-.8125.582-1.4092.582-.4717,0-1.0058-.2451-1.6035-.7363-3.2480999-2.7871-7.5439998-4.1768-12.8856997-4.1768-3.7626999,0-7.2763998.9609-10.5458997,2.8848-3.2705974,1.9258-5.8652974,4.497-7.7900974,7.7119-1.9228,3.2148-2.8857,6.6455-2.8857,10.29,0,3.7696.9511,7.2617,2.8535,10.4766,1.9023,3.2139,4.4873,5.7656,7.7567974,7.6484,3.2695999,1.8838,6.8056998,2.8262,10.6113997,2.8262,5.0418999,0,9.4658028-1.4961,13.2704997-4.4844.2988-.206.6191-.3086.9629-.3086.5126,0,.9707.1836,1.3779.5518.4053.3691.6084.8223.6084,1.3535,0,.5332-.1504.9619-.4483,1.2881-3.6766999,3.5234-8.9325968,5.2842-15.7713996,5.2842-4.4882999,0-8.6552998-1.1143-12.5029972-3.3448Z"/>
  <path class="st1" d="M61.0018963,59.3851114c-2.9296963-1.4151-5.2050999-3.3809-6.8280998-5.8994-1.625-2.5196-2.4374999-5.3946-2.4374999-8.6309V14.3822114c0-.5743.1836-1.0235.5459035-1.3516.3632965-.3301.8231965-.4912,1.3778964-.4912.5977,0,1.0684.1611,1.4102.4912.3418.3281.5137.7773.5137,1.3516v30.4726c0,2.4981.6503,4.7295,1.955,6.6953,1.3028,1.9658,3.1200999,3.503,5.4492999,4.6094,2.3290999,1.1045,4.9891999,1.6582,7.9823998,1.6582,2.9901999,0,5.6503999-.5537,7.9803998-1.6582,2.3301042-1.1064,4.1562999-2.6436,5.4824999-4.6094,1.3242-1.9658,1.9862999-4.1972,1.9862999-6.6953V14.3822114c0-.5743.1836-1.0235.5459-1.3516.3623-.3301.8232-.4912,1.3779-.4912.5987,0,1.0684.1611,1.4102.4912.3418.3281.5136.7773.5136,1.3516v30.4726c0,3.2363-.8242,6.1113-2.4686999,8.6309-1.6455,2.5185-3.9325956,4.4843-6.8593998,5.8994-2.9276999,1.4121-6.2509998,2.1172-9.9686997,2.1172-3.7187999,0-7.0409998-.7051-9.9687997-2.1172Z"/>
  <path class="st1" d="M136.9784943,60.0618114c0,.459-.1992.8155-.5977,1.0645-.3965.25-.9707.376-1.7187.376-.4668,0-.8398944-.0821-1.1221-.25-.2803-.168-.5381-.417-.7725-.752l-12.9100997-18.4385h-12.5595997v17.5586c0,.545-.1865.9961-.5615,1.3506-.374.3545-.8887.5313-1.543.5313-.6074,0-1.1113-.1768-1.5088-.5313-.3974-.3545-.5966-.8056-.5966-1.3506V14.4036114c0-.5859.1992-1.0449.5966-1.3808.3975-.334.9014-.502,1.5088-.502h13.4023997c3.3671999,0,6.3846998.628,9.0497998,1.8828,2.6678999,1.252,4.7479999,3.0088,6.2440998,5.2696,1.4981,2.2558,2.2470999,4.8252,2.2470999,7.7119,0,3.4306-1.0644944,6.3867-3.1933999,8.874-2.1288999,2.4893-4.9940944,4.1934-8.5956998,5.1113l12.0693997,17.2491c.373.5859.5615,1.0664.5615,1.4423ZM118.5956948,38.2972114c2.5712999,0,4.8632999-.46,6.8749998-1.3809,2.0116999-.9189,3.5887999-2.2138,4.7362999-3.8867,1.1465-1.6719,1.7188-3.5537,1.7188-5.6445,0-2.1319-.5723-4.0459-1.7188-5.7383-1.1475-1.6943-2.7245999-3.0107-4.7362999-3.9531-2.0116999-.9385-4.3036999-1.4112-6.8749998-1.4112h-11.2978997v22.0147h11.2978997Z"/>
  <path class="st1" d="M179.0712933,36.7484114c-2.9501999-2.4932-7.1240933-4.003-12.4003997-4.4893-4.3554999-.4082-7.3798998-1.2432-8.9931998-2.4824-1.5234-1.167-2.2636999-2.5664-2.2636999-4.2744,0-1.8057.8086-3.1514,2.4687999-4.1114,1.8183-1.0527,4.2724062-1.5859,7.2909998-1.5859,2.4394999,0,4.4647999.4209,6.0185998,1.25,1.5527.832,2.8680999,2.0645,3.8818065,3.6191.3915934.6729.958,1.21,1.6796933,1.5938.6972.373,1.4629.5625,2.2763067.5625.8251932,0,1.5595932-.1865,2.2197932-.5762,1.4453-.9316,1.748-2.1347,1.748-2.9795,0-.872-.3174-1.7773-.9433-2.6884-1.8213-2.6612-4.0800999-4.7403-6.7148998-6.1817-2.6483999-1.4472-5.9179999-2.1797-9.7206998-2.1797-3.4511999,0-6.6171998.503-9.4100998,1.4961-2.8554999,1.0156-5.1425999,2.5176-6.8017938,4.4649-1.7022059,1.999-2.5654059,4.4013-2.5654059,7.1406,0,3.8701,1.6504059,7.1289,4.9081999,9.6855,3.1542999,2.4776,7.5106998,3.9805,12.9452997,4.4659,3.5761999.33,6.2460998,1.2226,7.9354998,2.6533,1.6348,1.3896,2.4296999,3.001,2.4296999,4.9238,0,1.9736-.918,3.4961-2.8065999,4.6514-2.0292999,1.2402-4.5614999,1.8681-7.5253998,1.8681-2.5390999,0-4.8905999-.499-6.9892936-1.4843-2.0166061-.9444-3.3711061-2.085-4.0146061-3.3682-.3828-.8066-.9776-1.459-1.7696-1.9385-.7773-.4678-1.6113-.706-2.4793999-.706-.3907,0-.6622.0273-.8858.0879-.9805.1972-1.7822.5898-2.3866999,1.1699-.6641.6416-1.0147,1.4355-1.0147,2.2949,0,.4658.1338059.9883.4112,1.6025,1.3652,2.9776,3.8671999,5.4092,7.4336059,7.2276,3.498,1.7861,7.4335937,2.6904,11.6952936,2.6904,3.2460999,0,6.3300998-.5244,9.1639998-1.5566,2.9003999-1.0576,5.2657066-2.6817,7.0273998-4.8272,1.8008-2.1894,2.7138999-4.8428,2.7138999-7.8877,0-4.164-1.5352-7.5732-4.5624999-10.1308Z"/>
  <path class="st1" d="M216.6415923,15.2699114c-.7198-1.7969-2.1435999-2.7461-4.1191999-2.7461-1.8651924,0-3.2840999.9316-4.1044999,2.705l-18.0272995,39.9971c-.2695.6533-.400393,1.2344-.400393,1.7734,0,1.1202.418,2.1045,1.242193,2.9229.8203.8154,1.8574,1.2285,3.0819999,1.2285.836,0,1.624-.2217,2.3428071-.6582.7255928-.4414,1.29-1.0566,1.7001928-1.8789l3.3778999-7.708h21.6337995l3.3144999,7.7002c.3457.8057.914,1.4433,1.6865,1.8955.7373.4307,1.5303.6494,2.3583999.6494,1.2119,0,2.2518999-.3945,3.0927999-1.1758.8603-.8027,1.2959081-1.7832,1.2959081-2.916,0-.498-.1309081-1.0586-.4141081-1.7432l-18.0614995-40.0458ZM218.3026923,40.3216114h-11.5761997l5.9042999-14.0332,5.6718999,14.0332Z"/>
  <path class="st1" d="M277.8143908,53.7689114c-.9043-.8448-2.0243999-1.2725-3.3300999-1.2725h-21.8026994V16.6741114c0-1.2578-.4863-2.3759-1.4101-3.2324-.9052914-.8427-2.0263999-1.2695-3.3300999-1.2695-1.2578,0-2.3564999.4268-3.2636999,1.2685-.9228.8575-1.4111,1.9756-1.4111,3.2334v40.3252c0,1.2481.4717,2.3604,1.3603,3.2178.8858.8526,2.0009999,1.2852,3.3144999,1.2852h26.5428993c1.3047,0,2.4247999-.4268,3.3281999-1.2686.9228-.8584,1.4111-1.9756,1.4111-3.2344,0-1.2587-.4883-2.3769-1.4092-3.2304Z"/>
  <g>
    <path class="st5" d="M303.3143901,35.7757114c-1.334.3838-2.7069999.8858-4.1083999,1.5361-.0176.0069-.0332.0157-.0537.0254-.0156.0059-.0312.0137-.0469.0215-7.2010998,3.3311-11.0038997,8.5567-12.9510997,12.4649-1.4258,2.8105-1.8926,4.9257-1.9336,5.1318-.5977,2.8828,1.2578,5.708,4.1445094,6.3057,1.1601905.2421,2.3163904.0849,3.3173904-.3799,1.4853-.6856,2.6337999-2.0391,2.9891999-3.7627,0,0,.0098-.0469.0284097-.1153l.0477903.0079-.0117.0615c.0234-.1026.2617-1.1367.9766-2.5596,1.163-2.2422,3.4979999-5.4267,7.9237998-7.4941,4.4413999-2.0371,8.3807998-1.7539,10.8417997-1.1914l1.3408.5791-12.5048997-10.6309Z"/>
    <path class="st2" d="M286.1542906,49.8236114c1.5127-3.0352,4.1542999-6.8633,8.6297998-9.9844v-22.627c.0049-2.9492-2.3231999-5.3418-5.2684999-5.3457-2.9501999-.0058-5.4022999,2.378-5.4062999,5.3262v38.8262c.002-.3516.0372-.7071.1114-1.0635.041-.2061.5078-2.3213,1.9336-5.1318Z"/>
    <g>
      <path class="st0" d="M322.7147896,38.2611114l-29.6464993-25.0899c-.414-.3515-.875-.6035-1.3496-.8066,1.8203.8447,3.0693999,2.6914,3.0653999,4.8476v11.3897l21.0351995,17.8047c1.6357,1.3847,3.8661999,1.6152,5.6923999.7675.6846-.3134,1.3086-.7783,1.8271-1.3916,1.9053-2.25,1.626-5.6171-.624-7.5214Z"/>
      <path class="st3" d="M291.4247904,12.2386114c.0996.0361.1963.083.2939.126-.0957-.0459-.1933-.086-.2939-.126Z"/>
    </g>
    <path class="st4" d="M286.1522906,8.6575114c-1.0185.3877-2.1600906-.125-2.5468999-1.1445l-1.7811906-4.6933c-.3877093-1.0196.125-2.1612,1.1464906-2.5489,1.0185094-.3847,2.1591999.127,2.5467999,1.1475l1.7793,4.6924c.3877,1.0195-.125,2.1621-1.1445,2.5468Z"/>
    <path class="st4" d="M292.7186904,8.6790114c-1.0439-.3105-1.6406-1.4101-1.3281-2.456l1.4355-4.8106c.3106-1.0439,1.4092-1.6425,2.4561096-1.3291,1.043.3116,1.6395903,1.4131,1.3270903,2.4561l-1.4355,4.8125c-.3095903,1.0439-1.4111,1.6416-2.4550999,1.3271Z"/>
    <path class="st4" d="M297.2802,11.8743114c-.6425097-.8789-.4521097-2.1162.4287903-2.7597l4.0516999-2.961c.8799-.6445,2.1181999-.455,2.7607999.4288.6425.8779.4511,2.1162-.4278,2.7578l-4.0546999,2.9648c-.8807902.6426-2.1161999.4531-2.7587902-.4307Z"/>
    <path class="st4" d="M279.7714907,18.4564114c.0791,1.0879-.7354,2.0351-1.8252,2.1172l-5.0068999.3691c-1.0879.0801-2.0350999-.7363-2.1132999-1.8252-.081-1.0869.7364-2.0342,1.8233-2.1143l5.0068091-.3701c1.0888908-.0791,2.0361907.7373,2.1152907,1.8233Z"/>
    <path class="st4" d="M281.6639907,12.1702114c-.5976.9102-1.8203,1.1709-2.7323999.5733l-4.2040999-2.7461c-.9111-.5957-1.1689-1.8193-.5732-2.7344.5966-.9101,1.8203-1.1699,2.7342999-.5723l4.2031999,2.7461c.9121.5957,1.1689,1.8204.5722,2.7334Z"/>
  </g>
</svg>