<?xml version="1.0" encoding="UTF-8"?>
<svg id="Capa_1" xmlns="http://www.w3.org/2000/svg" version="1.1" xmlns:xlink="http://www.w3.org/1999/xlink" viewBox="0 0 53.7828473 61.3739007">
  <!-- Generator: Adobe Illustrator 29.5.1, SVG Export Plug-In . SVG Version: 2.1.0 Build 141)  -->
  <defs>
    <style>
      .st0 {
        fill: url(#linear-gradient2);
      }

      .st1 {
        fill: url(#linear-gradient1);
      }

      .st2 {
        fill: url(#linear-gradient3);
      }

      .st3 {
        fill: #0080c1;
      }

      .st4 {
        fill: url(#linear-gradient);
      }
    </style>
    <linearGradient id="linear-gradient" x1="12.0673166" y1="53.6211019" x2="43.4651835" y2="42.193213" gradientUnits="userSpaceOnUse">
      <stop offset=".721951" stop-color="#0080c1"/>
      <stop offset=".769901" stop-color="#007bbb"/>
      <stop offset=".8323134" stop-color="#0070aa"/>
      <stop offset=".9026904" stop-color="#005d90"/>
      <stop offset=".9784116" stop-color="#00426a"/>
      <stop offset="1" stop-color="#003a5f"/>
    </linearGradient>
    <linearGradient id="linear-gradient1" x1="18.6261397" y1="56.0189114" x2="18.6261397" y2="11.8665009" gradientUnits="userSpaceOnUse">
      <stop offset="0" stop-color="#003a5f"/>
      <stop offset=".0145374" stop-color="#004068"/>
      <stop offset=".0668955" stop-color="#005483"/>
      <stop offset=".1264182" stop-color="#00649a"/>
      <stop offset=".195066" stop-color="#0070ab"/>
      <stop offset=".2785285" stop-color="#0079b7"/>
      <stop offset=".3922646" stop-color="#007ebf"/>
      <stop offset=".673171" stop-color="#0080c1"/>
    </linearGradient>
    <linearGradient id="linear-gradient2" x1="55.386235" y1="33.7111011" x2="18.2876144" y2="27.1696133" gradientUnits="userSpaceOnUse">
      <stop offset=".614634" stop-color="#0080c1"/>
      <stop offset=".6887475" stop-color="#007cbc"/>
      <stop offset=".7682047" stop-color="#0073af"/>
      <stop offset=".8501448" stop-color="#00649a"/>
      <stop offset=".9332561" stop-color="#004f7c"/>
      <stop offset="1" stop-color="#003a5f"/>
    </linearGradient>
    <linearGradient id="linear-gradient3" x1="20.7511857" y1="12.3646114" x2="20.7511857" y2="12.2386114" gradientUnits="userSpaceOnUse">
      <stop offset=".614634" stop-color="#0080c1"/>
      <stop offset=".691694" stop-color="#0076b3"/>
      <stop offset=".836741" stop-color="#005c8e"/>
      <stop offset="1" stop-color="#003a5f"/>
    </linearGradient>
  </defs>
  <path class="st4" d="M32.4938354,35.7757114c-1.334.3838-2.7069999.8858-4.1083999,1.5361-.0176.0069-.0332.0157-.0537.0254-.0156.0059-.0312.0137-.0469.0215-7.2010998,3.3311-11.0038997,8.5567-12.9510997,12.4649-1.4258,2.8105-1.8926,4.9257-1.9336,5.1318-.5977,2.8828,1.2578,5.708,4.1445094,6.3057,1.1601905.2421,2.3163904.0849,3.3173904-.3799,1.4853-.6856,2.6337999-2.0391,2.9891999-3.7627,0,0,.0098-.0469.0284097-.1153l.0477903.0079-.0117.0615c.0234-.1026.2617-1.1367.9766-2.5596,1.163-2.2422,3.4979999-5.4267,7.9237998-7.4941,4.4413999-2.0371,8.3807998-1.7539,10.8417997-1.1914l1.3408.5791-12.5048997-10.6309Z"/>
  <path class="st1" d="M15.3337359,49.8236114c1.5127-3.0352,4.1542999-6.8633,8.6297998-9.9844v-22.627c.0049-2.9492-2.3231999-5.3418-5.2684999-5.3457-2.9501999-.0058-5.4022999,2.378-5.4062999,5.3262v38.8262c.002-.3516.0372-.7071.1114-1.0635.041-.2061.5078-2.3213,1.9336-5.1318Z"/>
  <g>
    <path class="st0" d="M51.8942349,38.2611114L22.2477357,13.1712114c-.414-.3515-.875-.6035-1.3496-.8066,1.8203.8447,3.0693999,2.6914,3.0653999,4.8476v11.3897l21.0351995,17.8047c1.6357,1.3847,3.8661999,1.6152,5.6923999.7675.6846-.3134,1.3086-.7783,1.8271-1.3916,1.9053-2.25,1.626-5.6171-.624-7.5214Z"/>
    <path class="st2" d="M20.6042357,12.2386114c.0996.0361.1963.083.2939.126-.0957-.0459-.1933-.086-.2939-.126Z"/>
  </g>
  <path class="st3" d="M15.3317359,8.6575114c-1.0185.3877-2.1600906-.125-2.5468999-1.1445l-1.7811906-4.6933c-.3877093-1.0196.125-2.1612,1.1464906-2.5489,1.0185094-.3847,2.1591999.127,2.5467999,1.1475l1.7793,4.6924c.3877,1.0195-.125,2.1621-1.1445,2.5468Z"/>
  <path class="st3" d="M21.8981357,8.6790114c-1.0439-.3105-1.6406-1.4101-1.3281-2.456l1.4355-4.8106c.3106-1.0439,1.4092-1.6425,2.4561096-1.3291,1.043.3116,1.6395903,1.4131,1.3270903,2.4561l-1.4355,4.8125c-.3095903,1.0439-1.4111,1.6416-2.4550999,1.3271Z"/>
  <path class="st3" d="M26.4596453,11.8743114c-.6425097-.8789-.4521097-2.1162.4287903-2.7597l4.0516999-2.961c.8799-.6445,2.1181999-.455,2.7607999.4288.6425.8779.4511,2.1162-.4278,2.7578l-4.0546999,2.9648c-.8807902.6426-2.1161999.4531-2.7587902-.4307Z"/>
  <path class="st3" d="M8.950936,18.4564114c.0791,1.0879-.7354,2.0351-1.8252,2.1172l-5.0068999.3691c-1.0879.0801-2.0350999-.7363-2.1132999-1.8252-.081-1.0869.7364-2.0342,1.8233-2.1143l5.0068091-.3701c1.0888908-.0791,2.0361907.7373,2.1152907,1.8233Z"/>
  <path class="st3" d="M10.843436,12.1702114c-.5976.9102-1.8203,1.1709-2.7323999.5733l-4.2040999-2.7461c-.9111-.5957-1.1689-1.8193-.5732-2.7344.5966-.9101,1.8203-1.1699,2.7342999-.5723l4.2031999,2.7461c.9121.5957,1.1689,1.8204.5722,2.7334Z"/>
</svg>