<?xml version="1.0" encoding="utf-8"?>
<!-- Generator: Adobe Illustrator 16.0.0, SVG Export Plug-In . SVG Version: 6.00 Build 0)  -->
<!DOCTYPE svg PUBLIC "-//W3C//DTD SVG 1.1//EN" "http://www.w3.org/Graphics/SVG/1.1/DTD/svg11.dtd">
<svg version="1.1" id="Capa_1" xmlns="http://www.w3.org/2000/svg"
    xmlns:xlink="http://www.w3.org/1999/xlink" x="0px" y="0px"
    width="365.101px" height="69.175px" viewBox="0 0 365.101 69.175"
    enable-background="new 0 0 365.101 69.175"
    xml:space="preserve">
<g>
	<path fill="#262626" d="M14.132,65.414c-4.325-2.516-7.762-5.898-10.31-10.16C1.272,50.992,0,46.396,0,41.467
		s1.261-9.512,3.785-13.753c2.524-4.237,5.938-7.611,10.24-10.124c4.301-2.509,9.023-3.763,14.169-3.763
		c6.73,0,12.666,2.052,17.811,6.147c0.433,0.323,0.649,0.784,0.649,1.383c0,0.554-0.192,1.048-0.578,1.487
		c-0.383,0.437-0.914,0.654-1.585,0.654c-0.53,0-1.131-0.274-1.803-0.828c-3.653-3.135-8.485-4.696-14.494-4.696
		c-4.231,0-8.184,1.08-11.861,3.244c-3.679,2.166-6.597,5.058-8.762,8.673c-2.163,3.615-3.246,7.476-3.246,11.575
		c0,4.239,1.07,8.168,3.209,11.783c2.14,3.613,5.047,6.485,8.725,8.603c3.677,2.118,7.654,3.179,11.935,3.179
		c5.671,0,10.647-1.682,14.927-5.043c0.336-0.233,0.696-0.348,1.083-0.348c0.576,0,1.092,0.206,1.549,0.619
		c0.457,0.416,0.685,0.925,0.685,1.523c0,0.6-0.169,1.082-0.504,1.449c-4.135,3.964-10.047,5.942-17.739,5.942
		C23.146,69.175,18.459,67.923,14.132,65.414z"/>
	<path fill="#262626" d="M68.612,66.794c-3.295-1.591-5.854-3.803-7.68-6.635c-1.828-2.833-2.741-6.067-2.741-9.708V16.177
		c0-0.646,0.206-1.151,0.613-1.521c0.409-0.371,0.926-0.554,1.55-0.554c0.672,0,1.202,0.183,1.586,0.554
		c0.384,0.369,0.578,0.875,0.578,1.521v34.274c0,2.81,0.732,5.319,2.199,7.531c1.465,2.209,3.509,3.938,6.129,5.185
		c2.62,1.24,5.612,1.864,8.979,1.864c3.363,0,6.355-0.624,8.976-1.864c2.621-1.246,4.674-2.976,6.166-5.185
		c1.49-2.212,2.234-4.722,2.234-7.531V16.177c0-0.646,0.207-1.151,0.614-1.521c0.408-0.371,0.925-0.554,1.549-0.554
		c0.674,0,1.202,0.183,1.586,0.554c0.385,0.369,0.578,0.875,0.578,1.521v34.274c0,3.641-0.927,6.875-2.776,9.708
		c-1.851,2.832-4.424,5.044-7.715,6.635c-3.293,1.588-7.031,2.381-11.212,2.381C75.643,69.175,71.906,68.382,68.612,66.794z"/>
	<path fill="#262626" d="M154.068,67.556c0,0.517-0.224,0.916-0.672,1.198c-0.446,0.279-1.092,0.421-1.933,0.421
		c-0.525,0-0.945-0.092-1.262-0.281c-0.315-0.189-0.605-0.468-0.869-0.846L134.811,47.31h-1.419h-12.708v19.75
		c0,0.613-0.209,1.12-0.631,1.518c-0.421,0.4-1,0.598-1.735,0.598c-0.683,0-1.25-0.197-1.697-0.598
		c-0.447-0.397-0.671-0.904-0.671-1.518V16.201c0-0.659,0.224-1.176,0.671-1.553c0.447-0.376,1.014-0.564,1.697-0.564h15.074
		c3.788,0,7.182,0.704,10.179,2.117c3.001,1.408,5.341,3.383,7.023,5.927c1.685,2.537,2.528,5.427,2.528,8.673
		c0,3.86-1.197,7.185-3.592,9.982c-2.395,2.799-5.617,4.717-9.668,5.749l13.575,19.4C153.856,66.592,154.068,67.131,154.068,67.556z
		 M133.392,43.074c2.892,0,5.47-0.516,7.733-1.553c2.262-1.032,4.037-2.489,5.327-4.371c1.289-1.881,1.933-3.996,1.933-6.35
		c0-2.396-0.644-4.549-1.933-6.454c-1.291-1.905-3.065-3.385-5.327-4.446c-2.263-1.055-4.841-1.585-7.733-1.585h-12.708v24.759
		H133.392z"/>
	<path fill="#262626" d="M201.413,41.332c-3.318-2.803-8.013-4.501-13.948-5.048c-4.899-0.459-8.3-1.399-10.115-2.792
		c-1.713-1.313-2.546-2.887-2.546-4.809c0-2.03,0.909-3.544,2.776-4.625c2.045-1.184,4.806-1.783,8.201-1.783
		c2.744,0,5.022,0.475,6.77,1.406c1.747,0.936,3.226,2.321,4.366,4.07c0.44,0.758,1.077,1.362,1.889,1.793
		c0.784,0.419,1.646,0.632,2.56,0.632c0.928,0,1.754-0.208,2.497-0.647c1.626-1.048,1.966-2.401,1.966-3.35
		c0-0.982-0.357-2-1.061-3.025c-2.048-2.992-4.589-5.331-7.552-6.953c-2.979-1.628-6.657-2.452-10.934-2.452
		c-3.882,0-7.442,0.567-10.584,1.684c-3.211,1.143-5.785,2.831-7.65,5.021c-1.915,2.249-2.885,4.952-2.885,8.031
		c0,4.354,1.856,8.019,5.521,10.894c3.547,2.788,8.447,4.479,14.56,5.025c4.022,0.371,7.025,1.374,8.925,2.982
		c1.839,1.564,2.733,3.377,2.733,5.538c0,2.222-1.032,3.933-3.157,5.233c-2.282,1.395-5.13,2.1-8.464,2.1
		c-2.856,0-5.501-0.561-7.861-1.67c-2.269-1.061-3.792-2.343-4.516-3.786c-0.431-0.907-1.1-1.642-1.99-2.182
		c-0.875-0.525-1.813-0.794-2.789-0.794c-0.439,0-0.745,0.031-0.996,0.1c-1.103,0.222-2.005,0.664-2.685,1.316
		c-0.747,0.72-1.141,1.613-1.141,2.58c0,0.523,0.151,1.111,0.462,1.801c1.535,3.352,4.35,6.086,8.361,8.132
		c3.935,2.008,8.361,3.024,13.155,3.024c3.651,0,7.12-0.588,10.307-1.75c3.263-1.188,5.923-3.018,7.904-5.43
		c2.026-2.463,3.053-5.447,3.053-8.872C206.544,48.044,204.817,44.211,201.413,41.332z"/>
	<path fill="#262626" d="M243.67,17.175c-0.81-2.021-2.411-3.089-4.633-3.089c-2.098,0-3.694,1.048-4.617,3.042l-20.277,44.988
		c-0.303,0.733-0.45,1.389-0.45,1.995c0,1.259,0.47,2.365,1.397,3.286c0.922,0.918,2.089,1.382,3.466,1.382
		c0.94,0,1.826-0.248,2.635-0.74c0.816-0.496,1.452-1.188,1.913-2.113l3.799-8.668h24.333l3.728,8.659
		c0.389,0.907,1.028,1.623,1.896,2.133c0.83,0.483,1.722,0.729,2.653,0.729c1.363,0,2.533-0.443,3.479-1.322
		c0.968-0.902,1.458-2.006,1.458-3.279c0-0.561-0.147-1.191-0.466-1.96L243.67,17.175z M245.538,45.354h-13.021l6.641-15.785
		L245.538,45.354z"/>
	<path fill="#262626" d="M312.474,60.478c-1.017-0.951-2.276-1.433-3.745-1.433h-24.523V18.754c0-1.415-0.547-2.672-1.586-3.635
		c-1.019-0.947-2.279-1.428-3.746-1.428c-1.415,0-2.65,0.48-3.671,1.428c-1.038,0.963-1.587,2.22-1.587,3.635v45.357
		c0,1.404,0.531,2.654,1.53,3.618c0.997,0.959,2.25,1.445,3.728,1.445h29.854c1.468,0,2.727-0.479,3.743-1.426
		c1.038-0.967,1.587-2.224,1.587-3.638C314.06,62.694,313.51,61.438,312.474,60.478z"/>
	<g>
		<linearGradient id="SVGID_1_" gradientUnits="userSpaceOnUse" x1="318.1812" y1="60.3115" x2="353.4972" y2="47.4575">
			<stop  offset="0.722" style="stop-color:#4280BE"/>
			<stop  offset="0.756" style="stop-color:#427EBC"/>
			<stop  offset="0.8002" style="stop-color:#3E78B4"/>
			<stop  offset="0.8502" style="stop-color:#376EA5"/>
			<stop  offset="0.9043" style="stop-color:#2D5E8E"/>
			<stop  offset="0.9612" style="stop-color:#204B73"/>
			<stop  offset="1" style="stop-color:#153C5D"/>
		</linearGradient>
		<path fill="url(#SVGID_1_)" d="M341.156,40.238c-1.5,0.434-3.045,0.998-4.622,1.729c-0.02,0.006-0.037,0.018-0.06,0.028
			c-0.018,0.007-0.035,0.016-0.053,0.023c-8.1,3.746-12.377,9.625-14.567,14.021c-1.604,3.162-2.128,5.541-2.175,5.771
			c-0.672,3.243,1.415,6.423,4.662,7.094c1.305,0.272,2.605,0.095,3.731-0.428c1.671-0.771,2.962-2.294,3.362-4.231
			c0,0,0.011-0.053,0.032-0.13l0.054,0.009l-0.013,0.068c0.026-0.114,0.294-1.278,1.099-2.878c1.308-2.522,3.934-6.104,8.912-8.429
			c4.996-2.292,9.427-1.973,12.195-1.341l1.508,0.65L341.156,40.238z"/>
		<g>
			<linearGradient id="SVGID_2_" gradientUnits="userSpaceOnUse" x1="325.5581" y1="63.0088" x2="325.5581" y2="13.3477">
				<stop  offset="0" style="stop-color:#153C5D"/>
				<stop  offset="0.0095" style="stop-color:#184164"/>
				<stop  offset="0.0479" style="stop-color:#235079"/>
				<stop  offset="0.0908" style="stop-color:#2C5D8C"/>
				<stop  offset="0.1378" style="stop-color:#34699D"/>
				<stop  offset="0.1904" style="stop-color:#3972AB"/>
				<stop  offset="0.2511" style="stop-color:#3E79B4"/>
				<stop  offset="0.3247" style="stop-color:#417DBB"/>
				<stop  offset="0.4252" style="stop-color:#427FBE"/>
				<stop  offset="0.6732" style="stop-color:#4280BE"/>
			</linearGradient>
			<path fill="url(#SVGID_2_)" d="M321.855,56.04c1.701-3.414,4.672-7.72,9.707-11.229V19.36c0.005-3.317-2.613-6.008-5.926-6.013
				c-3.319-0.007-6.077,2.673-6.081,5.991v43.67c0.002-0.396,0.042-0.796,0.125-1.198C319.727,61.581,320.251,59.202,321.855,56.04z
				"/>
		</g>
		<g>
			<linearGradient id="SVGID_3_" gradientUnits="userSpaceOnUse" x1="366.9038" y1="37.917" x2="325.1774" y2="30.5595">
				<stop  offset="0.6146" style="stop-color:#4280BE"/>
				<stop  offset="0.6699" style="stop-color:#427FBD"/>
				<stop  offset="0.7291" style="stop-color:#3F7AB6"/>
				<stop  offset="0.7902" style="stop-color:#3972AB"/>
				<stop  offset="0.8526" style="stop-color:#326699"/>
				<stop  offset="0.916" style="stop-color:#285682"/>
				<stop  offset="0.9794" style="stop-color:#1A4368"/>
				<stop  offset="1" style="stop-color:#153C5D"/>
			</linearGradient>
			<path fill="url(#SVGID_3_)" d="M362.977,43.036l-33.345-28.221c-0.466-0.396-0.984-0.679-1.518-0.907
				c2.047,0.949,3.452,3.027,3.448,5.452v12.809l23.66,20.026c1.84,1.559,4.348,1.816,6.402,0.863
				c0.77-0.351,1.472-0.873,2.055-1.563C365.822,48.965,365.508,45.177,362.977,43.036z"/>
			<linearGradient id="SVGID_4_" gradientUnits="userSpaceOnUse" x1="327.9482" y1="13.9082" x2="327.9482" y2="13.7656">
				<stop  offset="0.6146" style="stop-color:#4280BE"/>
				<stop  offset="0.6636" style="stop-color:#407CB8"/>
				<stop  offset="0.7557" style="stop-color:#366EA4"/>
				<stop  offset="0.88" style="stop-color:#285581"/>
				<stop  offset="1" style="stop-color:#153C5D"/>
			</linearGradient>
			<path fill="url(#SVGID_4_)" d="M327.783,13.766c0.112,0.041,0.221,0.094,0.331,0.143
				C328.006,13.855,327.896,13.812,327.783,13.766z"/>
		</g>
		<g>
			<path fill="#4280BE" d="M321.853,9.737c-1.146,0.437-2.429-0.14-2.865-1.286l-2.003-5.279c-0.437-1.146,0.141-2.432,1.289-2.867
				c1.146-0.433,2.429,0.144,2.865,1.29l2.001,5.279C323.576,8.021,323,9.305,321.853,9.737z"/>
		</g>
		<g>
			<path fill="#4280BE" d="M329.238,9.763c-1.174-0.349-1.845-1.587-1.494-2.764l1.614-5.411c0.349-1.173,1.585-1.848,2.763-1.494
				c1.173,0.35,1.844,1.589,1.493,2.762L332,8.268C331.651,9.444,330.413,10.116,329.238,9.763z"/>
		</g>
		<g>
			<path fill="#4280BE" d="M334.369,13.356c-0.723-0.989-0.509-2.381,0.482-3.104l4.557-3.33c0.99-0.725,2.383-0.513,3.105,0.48
				c0.723,0.989,0.507,2.383-0.481,3.103l-4.56,3.335C336.481,14.563,335.092,14.35,334.369,13.356z"/>
		</g>
		<g>
			<path fill="#4280BE" d="M314.676,20.759c0.089,1.225-0.827,2.289-2.053,2.383l-5.631,0.415c-1.223,0.09-2.289-0.828-2.377-2.055
				c-0.091-1.222,0.829-2.287,2.051-2.377l5.632-0.417C313.521,18.62,314.587,19.538,314.676,20.759z"/>
		</g>
		<g>
			<path fill="#4280BE" d="M316.804,13.688c-0.672,1.024-2.047,1.318-3.073,0.646l-4.729-3.089c-1.025-0.67-1.315-2.047-0.645-3.075
				c0.672-1.023,2.048-1.316,3.076-0.645l4.728,3.089C317.187,11.285,317.476,12.662,316.804,13.688z"/>
		</g>
	</g>
</g>
</svg>